<?xml version="1.0" standalone="no"?>
<!DOCTYPE svg PUBLIC "-//W3C//DTD SVG 1.1//EN" "http://www.w3.org/Graphics/SVG/1.1/DTD/svg11.dtd" >
<svg xmlns="http://www.w3.org/2000/svg" xmlns:xlink="http://www.w3.org/1999/xlink" version="1.1">
<metadata>
Created by FontForge 20200427 at Sun May 15 00:38:26 2016
 By www
Copyright (c) 2013 by P22 type foundry/ Hamilton Wood Type Foundry. All rights reserved.
</metadata>
<defs>
<font id="HWTArabesqueW00-Regular" horiz-adv-x="775" >
  <font-face 
    font-family="HWTArabesqueW00-Regular"
    font-weight="400"
    font-stretch="normal"
    units-per-em="1000"
    panose-1="1 0 0 0 0 0 0 0 0 0"
    ascent="800"
    descent="-200"
    x-height="544"
    cap-height="717"
    bbox="-79 -225 1084 931"
    underline-thickness="50"
    underline-position="-125"
    unicode-range="U+000D-FB02"
  />
<missing-glyph horiz-adv-x="250" 
 />
    <glyph glyph-name=".notdef" horiz-adv-x="250" 
 />
    <glyph glyph-name="glyph1" horiz-adv-x="0" 
 />
    <glyph glyph-name="glyph1" horiz-adv-x="0" 
 />
    <glyph glyph-name="uni000D" unicode="&#xd;" horiz-adv-x="250" 
 />
    <glyph glyph-name="space" unicode=" " horiz-adv-x="250" 
 />
    <glyph glyph-name="exclam" unicode="!" horiz-adv-x="397" 
d="M69 89q0 21 12 47t40.5 46t58.5 20q27 0 56 -13t46.5 -38t17.5 -54q0 -19 -10 -43.5t-36.5 -44t-60.5 -19.5h-8q-52 3 -82 26t-34 73zM187 723q181 0 181 -123q0 -31 -14.5 -72t-78.5 -115t-81 -102q-11 -16 -11 -44l4 -43q0 -8 -9 -12t-19 -4q-23 0 -63 158
q-4 15 -9.5 32.5t-12 31t-24.5 46t-18 84.5l2 40q5 66 43 94.5t110 28.5z" />
    <glyph glyph-name="quotedbl" unicode="&#x22;" horiz-adv-x="558" 
d="M28 495q0 11 25.5 43t28.5 41q0 2 -23.5 20t-27.5 28q-8 25 -11 54q0 43 7.5 72.5t34 45.5t104.5 16q102 0 102 -97q0 -38 -6.5 -67t-15.5 -37q-85 -79 -128.5 -115.5t-56.5 -36.5q-33 0 -33 33zM298 495q0 11 25.5 43t28.5 41q0 2 -23.5 20t-27.5 28q-8 25 -11 54
q0 43 7.5 72.5t34 45.5t104.5 16q102 0 102 -97q0 -38 -6.5 -67t-15.5 -37q-85 -79 -128.5 -115.5t-56.5 -36.5q-33 0 -33 33z" />
    <glyph glyph-name="numbersign" unicode="#" horiz-adv-x="609" 
d="M572 561l-132 -1l-56 -91h119q6 -1 16 -9q2 -3 2 -9q0 -14 -9 -19l-7 -2l-146 -1l-82 -133q-4 -5 -16 -10q-7 0 -13.5 6.5t-7.5 13.5l2 7l71 116l-104 -1l-82 -132q-4 -5 -16 -10q-7 0 -13.5 6.5t-7.5 13.5l2 7l71 115h-121q-9 0 -14 9q-3 6 -3 13q0 12 8 15l8 4h147
l56 90h-135q-3 0 -7.5 2.5t-6.5 7.5q-3 6 -3 12q0 11 8 16l8 3h161l66 107q4 8 15 8q8 0 15 -5.5t7 -12.5q0 -6 -2 -8l-55 -89h104l66 107q4 8 15 8q8 0 15 -5.5t7 -12.5q0 -6 -2 -8l-55 -89h105q6 -1 16 -9q2 -3 2 -9q0 -4 -2.5 -10t-6.5 -9zM290 559l-56 -90h104l56 91z
" />
    <glyph glyph-name="dollar" unicode="$" horiz-adv-x="699" 
d="M357 6v-15l-2 -2h-47q-3 0 -3 3v13q-79 3 -158 24q-21 5 -49 26t-49.5 59.5t-21.5 73.5q0 37 25.5 60.5t79.5 23.5q22 0 45 -9t41 -36.5t36 -94.5l6 -23q2 -7 11.5 -19t33.5 -21l2 195q-77 23 -144 61t-101 86t-34 94q0 39 22 79q31 53 94.5 82.5t158.5 29.5h4v15
q3 4 6 4h38l2 -11v-9q32 0 71 -7.5t69 -19.5q7 -3 44.5 -24.5t59.5 -21.5q12 0 33.5 13.5t28.5 13.5q6 0 6 -10q0 -31 -20.5 -54t-46.5 -31.5t-45 -8.5q-15 0 -33.5 6t-34.5 17.5t-53 45.5t-52 41t-26 8v-176q3 -1 9.5 -3t49 -15t85 -30t77 -40t59.5 -55.5t30 -77.5
q3 -24 3 -44q0 -66 -29.5 -114.5t-95.5 -75t-179 -26.5h-6zM159 600q0 -31 34 -56t114 -45v169l-35 2q-32 0 -59.5 -8t-40.5 -24.5t-13 -37.5zM354 247v-185q56 0 74 19.5t18 51.5q0 24 -14.5 50.5t-36.5 42.5t-41 21z" />
    <glyph glyph-name="percent" unicode="%" horiz-adv-x="526" 
d="M20 532q0 40 16 79t49.5 60t74.5 21q22 0 45.5 -9t45.5 -32t33.5 -57t11.5 -62q0 -30 -13.5 -60.5t-47.5 -50t-75 -19.5h-7q-55 0 -94 33.5t-39 96.5zM127 487q0 -27 8.5 -39t21.5 -12q7 0 12 5.5t5 12.5q0 5 0.5 22.5t2 30.5t4.5 24l4 11q19 51 19 74q-1 16 -8 32.5
t-18 24t-21 7.5q-8 0 -16.5 -7.5t-8.5 -16.5q8 -39 9 -49.5t1 -29.5q0 -14 -7.5 -44.5t-7.5 -45.5zM58 4l385 703q4 8 15 8q8 0 15 -5.5t7 -12.5q0 -6 -2 -8l-385 -702q-3 -6 -16 -10q-7 0 -13.5 6.5t-7.5 13.5zM230 122q0 40 16 79t49.5 60t74.5 21q22 0 45.5 -9t45.5 -32
t33.5 -57t11.5 -62q0 -30 -13.5 -60.5t-47.5 -50t-75 -19.5h-7q-55 0 -94 33.5t-39 96.5zM337 77q0 -27 8.5 -39t21.5 -12q7 0 12 5.5t5 12.5q0 5 0.5 22.5t2 30.5t4.5 24l4 11q19 51 19 74q-1 16 -8 32.5t-18 24t-21 7.5q-8 0 -16.5 -7.5t-8.5 -16.5q8 -39 9 -49.5t1 -29.5
q0 -14 -7.5 -44.5t-7.5 -45.5z" />
    <glyph glyph-name="ampersand" unicode="&#x26;" horiz-adv-x="895" 
d="M485 94q-18 -20 -73 -47t-111 -40.5t-95 -13.5q-55 0 -93.5 20.5t-61 59.5t-26.5 100q1 69 33.5 124.5t92 98t144.5 70.5q-3 17 -3 32q0 41 15.5 82.5t43.5 75.5t67 54t83 20q37 0 61.5 -13.5t37.5 -36.5t13 -49q0 -35 -13.5 -63t-35 -49.5t-54.5 -44.5t-34 -23l5 -10
q34 -58 91 -107q2 2 7 7.5t32 42.5t78 97q20 24 45 39t52 15q42 0 59.5 -33.5t17.5 -84.5q0 -10 -10 -10l-32 7q-35 0 -73.5 -25.5t-93.5 -98.5q6 -2 47.5 -12.5t75.5 -23t61 -32.5q16 -16 25.5 -39.5t9.5 -46.5q0 -24 -10.5 -50t-29.5 -45.5t-48 -31.5t-65 -12
q-71 0 -155 45q-41 22 -80 52zM307 375q-35 -15 -53.5 -43.5t-18.5 -61.5q0 -44 28.5 -77.5t73.5 -33.5q33 0 70 20q-56 69 -100 196zM513 711q-18 0 -37 -11.5t-31.5 -40.5t-12.5 -63q0 -53 20 -89q34 5 65 26t45 49.5t14 57.5q0 22 -9 39t-24 24t-30 8z" />
    <glyph glyph-name="quotesingle" unicode="'" horiz-adv-x="288" 
d="M28 495q0 11 25.5 43t28.5 41q0 2 -23.5 20t-27.5 28q-8 25 -11 54q0 43 7.5 72.5t34 45.5t104.5 16q102 0 102 -97q0 -38 -6.5 -67t-15.5 -37q-85 -79 -128.5 -115.5t-56.5 -36.5q-33 0 -33 33z" />
    <glyph glyph-name="parenleft" unicode="(" horiz-adv-x="375" 
d="M20 359q0 31 6 73.5t23 88t44 83.5t62.5 65t72.5 37t67 10h23l23 -1q5 -1 8 -4.5t3 -6.5q0 -5 -7.5 -7.5t-55.5 -2.5h-15q-21 0 -39 -17.5t-33 -52.5t-26.5 -103t-11.5 -148q0 -43 8 -96t23 -97t38.5 -66t48.5 -22l25 1q22 0 35 -9.5t13 -37.5q0 -32 -19.5 -45.5
t-62.5 -13.5q-50 0 -91.5 19.5t-71 53t-48.5 77t-30.5 100t-11.5 122.5z" />
    <glyph glyph-name="parenright" unicode=")" horiz-adv-x="375" 
d="M355 359q0 -66 -11.5 -122.5t-30.5 -100t-48.5 -77t-71 -53t-91.5 -19.5q-43 0 -62.5 13.5t-19.5 45.5q0 21 9.5 34t38.5 13l25 -1q25 0 45.5 19t36 54t26 93.5t10.5 114.5q0 51 -7.5 117.5t-24 115t-37 68.5t-41.5 20h-15q-41 0 -52 1.5t-11 8.5q0 3 3 6.5t8 4.5l23 1
h23q30 0 67 -10t72.5 -37t62.5 -65t44 -83.5t23 -88t6 -73.5z" />
    <glyph glyph-name="asterisk" unicode="*" horiz-adv-x="364" 
d="M160 690l21 -37l22 38q20 31 35 31q7 0 14 -4l13 -8q13 -8 13 -20q0 -10 -10 -28l-26 -44h44q28 0 38 -7.5t10 -21.5v-12q0 -15 -10.5 -22.5t-40.5 -7.5h-40l22 -39q12 -20 12 -32q0 -13 -14 -21l-10 -6q-10 -5 -16 -5q-17 0 -36 33l-20 34l-21 -36q-19 -32 -35 -32
q-6 0 -14 5l-10 6q-15 8 -15 23q0 8 14 36l19 34h-40q-29 0 -39 7t-10 22v16q0 26 40 26h50l-22 38q-12 22 -12 34q0 13 14 21l13 8q7 4 14 4q14 0 29 -26z" />
    <glyph glyph-name="plus" unicode="+" horiz-adv-x="527" 
d="M351 545q66 0 91 -17.5t25 -52.5v-18q0 -37 -25 -55.5t-98 -18.5h-195q-40 0 -67 5.5t-39.5 23t-12.5 42.5v28q0 29 20 46t77 17h224zM351 305q66 0 91 -17.5t25 -52.5v-18q0 -37 -25 -55.5t-98 -18.5h-195q-40 0 -67 5.5t-39.5 23t-12.5 42.5v28q0 29 20 46t77 17h224z
" />
    <glyph glyph-name="comma" unicode="," horiz-adv-x="288" 
d="M28 -93q0 11 25.5 43t28.5 41q0 2 -23.5 20t-27.5 28q-8 25 -11 54q0 43 7.5 72.5t34 45.5t104.5 16q102 0 102 -97q0 -38 -6.5 -67t-15.5 -37q-85 -79 -128.5 -115.5t-56.5 -36.5q-33 0 -33 33z" />
    <glyph glyph-name="hyphen" unicode="-" horiz-adv-x="387" 
d="M241 485q66 0 91 -17.5t25 -52.5v-88q0 -37 -25 -55.5t-98 -18.5h-85q-40 0 -67 5.5t-39.5 23t-12.5 42.5v98q0 29 20 46t77 17h114z" />
    <glyph glyph-name="period" unicode="." horiz-adv-x="290" 
d="M155 265q44 0 79.5 -28.5t35.5 -73.5v-70q0 -25 -13 -48.5t-45 -37.5t-65 -14t-62.5 11t-47 32t-17.5 54v80q0 31 18.5 52t50 32t66.5 11z" />
    <glyph glyph-name="slash" unicode="/" horiz-adv-x="391" 
d="M2 4l385 703q4 8 15 8q8 0 15 -5.5t7 -12.5q0 -6 -2 -8l-385 -702q-4 -5 -16 -10q-7 0 -13.5 6.5t-7.5 13.5z" />
    <glyph glyph-name="zero" unicode="0" 
d="M449 -5q-37 -4 -79 -4q-44 0 -94 7.5t-92.5 28t-71.5 51t-51 80.5t-29 136v12q0 38 15.5 88.5t44 102t67 97t81 74.5t76 38.5t58.5 9.5h6q109 0 191.5 -55t129.5 -153q21 -44 31 -91t10 -89q0 -61 -20 -119t-58.5 -104t-93.5 -75t-121 -35zM304 190q0 -69 24 -112.5
t70 -43.5q13 0 26 7.5t21.5 25.5t8.5 36q0 3 -1.5 25t-2.5 47t-1 44v26q0 10 4 48t17 137.5t13 100.5l1 15q0 36 -13 77.5t-39 61.5t-57 20q-15 0 -31 -16t-16 -34l1 -15q19 -74 19 -131q0 -4 -0.5 -14t-19 -116.5t-19.5 -113.5q-5 -30 -5 -75z" />
    <glyph glyph-name="one" unicode="1" horiz-adv-x="423" 
d="M207 -11q-78 0 -122.5 47.5t-44.5 125.5q0 60 24 122q61 159 81 247q5 24 5 60q0 25 -8.5 45.5t-24 29.5t-31.5 9q-4 0 -12.5 -3.5t-12.5 -3.5q-9 0 -9 8q0 12 20.5 19.5t39.5 7.5l68 -5q19 0 36.5 11t30.5 11q20 0 39 -22t34 -56t21 -62q10 -50 13 -229
q0 -28 14.5 -91.5t14.5 -97.5q0 -51 -22 -94q-10 -19 -31 -38.5t-54 -30t-69 -10.5z" />
    <glyph glyph-name="two" unicode="2" horiz-adv-x="588" 
d="M32 120q0 62 18.5 112.5t59.5 100t176 147.5l40 29q84 61 84 129q0 28 -20.5 46.5t-51.5 18.5q-19 0 -39.5 -8.5t-44 -31.5t-54 -71t-38.5 -59q-59 -81 -101 -81q-12 0 -20.5 13t-8.5 42q0 49 28.5 99.5t75.5 79.5t88 29h166q44 0 79 -22t57.5 -63t22.5 -93
q0 -58 -17 -87q-31 -53 -104.5 -120.5t-91.5 -85.5q-37 -38 -55.5 -70.5t-18.5 -51.5q0 -16 12 -34.5t28 -19.5q17 35 46.5 77.5t65.5 75.5t68.5 47.5t60.5 14.5q11 0 11 -9v-278q0 -2 -1.5 -4.5t-3.5 -2.5q-7 0 -15 8q-67 54 -149 54q-79 0 -152 -52q-2 -1 -7.5 -5.5
t-14.5 -4.5l-97 -2q-37 0 -59.5 43.5t-22.5 89.5z" />
    <glyph glyph-name="three" unicode="3" horiz-adv-x="588" 
d="M29 196q0 37 12.5 70.5t34.5 53t53 19.5q43 0 68.5 -26t25.5 -69q0 -31 -10 -60q-2 -4 -8 -18.5t-9 -25t-3 -20.5q0 -18 14.5 -30.5t33.5 -12.5q27 0 43.5 15.5t25 41.5t8.5 58q0 61 -20 104.5t-117 150.5l-2 6q0 4 3.5 7.5t7.5 3.5l8 -3q20 -17 37 -27t37 -10
q22 0 41.5 14t30.5 46t11 64q0 33 -10.5 69t-30 58t-47.5 22q-16 0 -31 -14t-26 -49.5t-12 -37.5q-12 -30 -34.5 -62.5t-47 -48.5t-45.5 -16q-42 0 -42 51q0 52 23.5 92t69.5 65q74 38 151 38q104 0 155 -23t81 -69q33 -49 33 -95q0 -53 -30 -95.5t-80 -61.5
q76 -62 101.5 -111.5t25.5 -95.5q0 -30 -14.5 -62.5t-48.5 -61t-75 -39.5q-46 -13 -115 -13q-89 0 -132 8q-52 9 -86.5 45t-46.5 79t-12 76z" />
    <glyph glyph-name="four" unicode="4" horiz-adv-x="647" 
d="M225 3q-68 54 -68 142q0 31 9 64q-32 6 -85.5 35t-53.5 53q0 3 36 21.5t71 43.5q44 32 82 81.5t54.5 94t16.5 76.5t-7.5 51.5t-25 29.5t-49.5 10q-5 0 -5 5q0 4 5 4q21 3 82 3l39 1q21 0 34 -4q29 -14 55.5 -52t42 -102.5t15.5 -119.5q0 -39 -12 -95t-15 -75l4 -3
q9 0 17 4t17 18.5t11 17.5q1 1 2 3t14.5 24.5t31.5 38t37 15.5q20 0 30 -15.5t10 -37.5q0 -49 -37 -82t-140 -56v-4q0 -14 7 -58t7 -65q0 -82 -82 -82h-75q-49 0 -75 15zM98 285q5 -8 39 -22.5t42 -14.5l68 133q1 2 4.5 12.5t5.5 23.5q-4 -2 -7 -9q-75 -77 -103.5 -96
t-48.5 -27z" />
    <glyph glyph-name="five" unicode="5" horiz-adv-x="598" 
d="M213 -12q-47 0 -91.5 29.5t-68.5 78t-24 89.5q0 47 29.5 77.5t86.5 30.5q16 0 40 -10t43.5 -34t19.5 -50q0 -22 -15 -54.5t-15 -38.5q0 -15 11.5 -23.5t25.5 -8.5q18 0 33 11.5t26.5 32.5t21.5 60t10 74q0 73 -26 105.5t-61 32.5q-21 0 -43.5 -11t-35.5 -27
q-28 2 -68 4.5t-60 4.5q-2 1 -5 4.5t-3 6.5q3 2 12 8.5t30.5 31t42.5 71.5t21 91q0 34 -19 64.5t-46.5 43t-50.5 12.5q-4 0 -7 6q0 9 18 9q40 0 70.5 -13.5t56.5 -45.5q22 21 62.5 38t80.5 23.5t69 6.5q33 0 66.5 -7t59 -23.5t40 -42t14.5 -60.5q0 -36 -18 -65.5
t-44.5 -41.5t-50.5 -12q-9 0 -19.5 1.5t-24.5 5.5t-62 26t-80 22q-29 0 -56 -14.5t-38.5 -36t-11.5 -40.5q0 -24 15 -44q37 29 79.5 43.5t83.5 14.5q45 0 86.5 -17t73 -48.5t49.5 -76t18 -96.5q0 -108 -48.5 -163t-135.5 -55h-167z" />
    <glyph glyph-name="six" unicode="6" horiz-adv-x="647" 
d="M313 -12h-62q-43 0 -84.5 21t-71.5 67t-47.5 110t-17.5 136q0 102 19.5 176.5t55 120t82.5 68t104 25.5l61 2q75 0 124 -19q36 -14 67.5 -42t44.5 -59t13 -55q0 -41 -27 -41q-10 0 -30.5 7.5t-32.5 7.5q-18 0 -46 -14.5t-43 -14.5q-16 0 -32 6.5t-26 27t-14.5 67t-7.5 61
t-8.5 24.5t-15.5 17.5t-29 7.5q-22 0 -40 -16t-23 -38q-8 -34 -8 -65q0 -38 10.5 -84t26.5 -84q33 19 74 33t81 14q64 0 108.5 -31t69.5 -87t25 -131q0 -66 -20.5 -109.5t-72.5 -75.5q-24 -15 -61 -24t-146 -9zM245 104q4 -4 16 -17.5t24.5 -20t36.5 -6.5q44 0 64.5 37
t20.5 103q0 51 -13 98t-39.5 73t-57.5 28h-5q-20 0 -30 -13q10 -10 19 -40t15 -76.5t6 -74.5q0 -22 -11 -44t-46 -47z" />
    <glyph glyph-name="seven" unicode="7" horiz-adv-x="520" 
d="M91 117q7 60 12 80q28 102 101 191q149 184 149 243q0 16 -15.5 29t-46.5 16h-7q-40 0 -83.5 -36t-86.5 -107.5t-46.5 -76.5t-6.5 -5q-14 7 -25 25.5t-11 51.5q0 10 4.5 40t20.5 62t30 46.5t27 14.5q2 0 30 -3.5t61 -3.5q15 0 57 11t73 15.5t60 4.5l48 -1
q18 0 31.5 -12.5t19.5 -40t6 -67.5q0 -25 -6 -53.5t-20.5 -59.5t-55.5 -98.5t-41 -111.5q0 -19 18 -63t22 -71l1 -19q0 -45 -29.5 -76t-68.5 -42.5t-68 -11.5q-30 0 -67 8.5t-62 38.5t-25 82z" />
    <glyph glyph-name="eight" unicode="8" horiz-adv-x="605" 
d="M211 -9q-50 6 -89.5 29t-65 61t-25.5 88v9q3 50 34.5 97.5t90.5 83.5q-26 17 -52 47.5t-38 63t-12 58.5v9q11 186 218 186l31 -1q36 -2 76 -10.5t73.5 -25t55 -45t21.5 -68.5v-9q-3 -56 -91 -129q37 -20 71 -54.5t55.5 -84.5t21.5 -101v-15q-2 -34 -15 -68.5t-41.5 -62
t-72 -44.5t-102.5 -17q-90 0 -144 3zM236 311q-22 -21 -37.5 -57t-17.5 -70v-9q0 -37 20.5 -61.5t63.5 -27.5h6q27 0 43.5 19.5t18.5 49.5v7q0 32 -15 66.5t-38 55t-44 27.5zM155 616l-1 -5q0 -27 13.5 -47t39 -35t91.5 -34.5t88 -30.5q28 39 30 89v12q0 55 -33 96t-89 45
h-8q-46 0 -87.5 -24t-43.5 -66z" />
    <glyph glyph-name="nine" unicode="9" horiz-adv-x="588" 
d="M196 68q2 35 17.5 77t62.5 121.5t62.5 110.5t25 56.5t19 62.5t9.5 84q0 52 -14.5 75t-36.5 26q5 -10 10 -39.5t5 -53.5q0 -50 -15 -101.5t-44 -94t-71 -70t-92 -32.5q-31 0 -57 14.5t-40 50.5t-14 80q0 70 22 123.5t63 87t99 50t130 16.5q22 0 46.5 -8t65.5 -34l27 34
q5 6 11 6q5 0 8.5 -6.5t5 -23.5t2.5 -20l10 -28q20 -55 32 -100t12 -94q0 -42 -21 -121t-21 -123q0 -18 5 -55t5 -55q0 -33 -23.5 -60.5t-59.5 -32.5l-44 -2l-66 -1l-52 -1q-31 0 -48.5 7t-26.5 24.5t-9 49.5zM316 678q-13 -3 -29 -12t-33 -33t-30 -63.5t-21 -79.5
t-14.5 -82.5t-9.5 -57.5q32 12 64.5 49.5t55 104.5t22.5 124q0 31 -5 50z" />
    <glyph glyph-name="colon" unicode=":" horiz-adv-x="290" 
d="M154 -3q-36 0 -65 10.5t-47 32t-20 55.5l-1 39q0 76 30 102t92 26q35 0 56 -7q26 -9 42.5 -21t21.5 -32t5 -63q0 -45 -7 -74t-32.5 -48.5t-74.5 -19.5zM154 579q20 0 47 -8t44 -27t21 -34.5t4 -26.5v-86q0 -32 -16 -52.5t-44.5 -32t-62.5 -11.5t-63 10t-46.5 30t-17.5 53
v96q0 43 36.5 66t97.5 23z" />
    <glyph glyph-name="semicolon" unicode=";" horiz-adv-x="263" 
d="M28 -108q0 15 25 46.5t30 42.5q-19 7 -38 30t-19 45l2 64q3 27 26.5 41t87.5 14h15q46 0 62 -16t16 -42v-16q0 -46 -5.5 -68t-16.5 -30l-23 -13q-8 -6 -39.5 -34.5t-54.5 -45.5t-36 -22.5t-20 -5.5q-12 0 -12 10zM30 347l1 86q0 19 13 31.5t30 13.5l76 1q52 0 69.5 -15.5
t17.5 -40.5v-92q0 -17 -17 -31.5t-39 -14.5h-104q-12 0 -23 8t-17.5 24.5t-6.5 29.5z" />
    <glyph glyph-name="less" unicode="&#x3c;" horiz-adv-x="288" 
d="M228 486q-51 -60 -106 -132q34 -8 59.5 -11.5t51.5 -8.5q4 -1 8.5 -13t7.5 -40.5t3 -58.5q0 -50 -6 -70.5t-13 -20.5q-22 29 -49.5 52t-67 46t-54 35t-20.5 26t-6 28q0 29 14 62q12 5 30.5 13t37 23.5t52 49.5t50.5 51q11 9 16 9q4 0 6.5 -2.5t2.5 -6.5q0 -13 -17 -31z
" />
    <glyph glyph-name="equal" unicode="=" horiz-adv-x="477" 
d="M341 545q66 0 91 -17.5t25 -52.5v-18q0 -37 -25 -55.5t-98 -18.5h-195q-40 0 -67 5.5t-39.5 23t-12.5 42.5v28q0 29 20 46t77 17h224zM341 305q66 0 91 -17.5t25 -52.5v-18q0 -37 -25 -55.5t-98 -18.5h-195q-40 0 -67 5.5t-39.5 23t-12.5 42.5v28q0 29 20 46t77 17h224z
" />
    <glyph glyph-name="greater" unicode="&#x3e;" horiz-adv-x="288" 
d="M61 486q-18 19 -18 31q0 3 3 6t7 3q6 0 17 -9q18 -18 51 -51.5t50.5 -49t36 -23.5t30.5 -13q14 -29 14 -62q0 -24 -13.5 -41t-57.5 -42.5t-64 -41.5t-35 -31.5t-26 -30.5q-7 0 -13.5 21t-6.5 70q0 40 6.5 75.5t13.5 36.5q5 1 15.5 3t37.5 6t57 11q-54 72 -105 132z" />
    <glyph glyph-name="question" unicode="?" horiz-adv-x="596" 
d="M304 379q20 17 31 49t11 68q0 54 -24 95t-66 41q-14 0 -25.5 -8.5t-11.5 -23.5q0 -6 15 -38.5t15 -54.5q0 -26 -19.5 -50t-43.5 -34t-40 -10q-57 0 -86.5 30.5t-29.5 77.5q0 41 24 89.5t68.5 78t91.5 29.5h167q56 0 96.5 -22t64.5 -62.5t24 -95.5q0 -63 -38.5 -126
t-100.5 -88t-130 3q-5 -8 -6.5 -22t1.5 -40.5t3 -34.5t-9 -12t-19 -4q-4 0 -16 17.5t-26 50.5t-14 58q0 21 12 33.5t37 12.5q19 0 44 -7zM160 89q0 21 12 47t40.5 46t58.5 20q27 0 56 -13t46.5 -38t17.5 -54q0 -19 -10 -43.5t-36.5 -44t-60.5 -19.5h-8q-52 3 -82 26t-34 73z
" />
    <glyph glyph-name="at" unicode="@" horiz-adv-x="749" 
d="M426 469q6 24 34.5 37t57.5 13l16 1q14 0 14 -17q0 -21 -24 -107t-24 -87q-5 -21 -11 -52t-6 -42q0 -19 8 -19q14 0 43 58.5t45 119t16 99.5q0 46 -15 91.5t-52 72t-88 26.5h-5q-65 -2 -121.5 -39.5t-96 -97t-61 -129.5t-21.5 -134q0 -63 24.5 -106t74.5 -68t127 -25
q59 0 121.5 23t115 65t86.5 98.5t40 118.5q6 -1 10.5 -6t4.5 -10q0 -10 -13 -59q-11 -38 -31.5 -83.5t-53.5 -87.5t-79 -77t-106.5 -55t-121.5 -20q-50 0 -97 12l-7 3q-111 30 -169.5 104.5t-58.5 177.5q0 100 49.5 195.5t145 157t213.5 61.5q89 0 147.5 -20.5t89.5 -61.5
t31 -105l-2 -29q-7 -70 -23 -126.5t-44 -97t-70.5 -62.5t-99.5 -22q-21 0 -37 5.5t-27 22t-16 40.5q-40 -40 -54.5 -52t-28.5 -17t-25 -5q-32 4 -48 32.5t-16 70.5q0 20 3 39q9 54 33 107.5t53.5 84.5t62.5 31q25 0 45.5 -7t41.5 -41zM316 346q-4 -20 -4 -37q0 -34 18 -34
q11 0 25.5 19t30 58t22.5 67l3 9l1 8q0 16 -9.5 24t-21.5 10q-12 0 -28 -29t-25.5 -57t-11.5 -38z" />
    <glyph glyph-name="A" unicode="A" horiz-adv-x="803" 
d="M20 50q0 37 18.5 81.5t78.5 128t79.5 114t33.5 56.5t24.5 49.5t16.5 41.5q2 5 9 23.5t11 35t4 32.5v13q-2 30 -14 51t-29 23l-20 1q-7 1 -7 9q0 5 10 6l51 1h84q36 0 60 -3t41 -10t35.5 -26t53.5 -104q19 -45 55 -165t65.5 -175t56.5 -91q2 -2 24 -29.5t22 -62.5
q0 -58 -57 -58h-213q-49 0 -82 48.5t-50 154.5l-36 1l-70 -1q-40 0 -67 -7.5t-41.5 -25.5t-14.5 -49l3 -70q0 -24 -10 -38.5t-31 -14.5q-55 0 -70.5 7.5t-19.5 22t-4 30.5zM184 250l96 -1q78 0 95 3v21q0 37 -7.5 97t-24 120t-32.5 80q-12 -48 -23 -76.5t-44 -104.5
t-60 -139z" />
    <glyph glyph-name="B" unicode="B" horiz-adv-x="787" 
d="M363 23q-9 -17 -39 -26t-115 -9h-13q-85 0 -126.5 27.5t-41.5 83.5q0 106 45.5 215t51.5 126.5t11.5 41t8.5 46.5t3 47q0 128 -91 128q-4 3 -4 6q0 6 5 6h461q41 0 83 -15t76.5 -42t55 -64.5t20.5 -79.5q0 -61 -43 -107.5t-106 -54.5q76 -40 114 -86t38 -114v-11
q-1 -28 -13.5 -64t-47 -62t-86.5 -26l-121 -1q-35 0 -51.5 5t-74.5 30zM372 70q26 -14 49 -14q25 0 41.5 18t18.5 53v6q0 33 -10.5 80t-38.5 91.5t-67 59.5q-16 -41 -16 -115v-5q0 -8 1 -29t0.5 -19t16.5 -89zM375 418q5 -8 18 -11.5t24 -3.5q17 0 31 14t20.5 41t6.5 51
q0 47 -16.5 91t-46 70t-70.5 26q-8 0 -16 -3q59 -75 59 -181q0 -50 -10 -94z" />
    <glyph glyph-name="C" unicode="C" horiz-adv-x="727" 
d="M354 -9q-57 0 -123.5 21.5t-115 68t-65.5 104.5q-20 72 -20 136q0 34 7.5 72t20.5 69q31 73 80.5 129.5t107.5 89t122 36.5l18 1q58 0 118.5 -23t96 -55.5t51.5 -63.5q23 -42 23 -72q0 -19 -9 -39q-5 -10 -16 -16t-37.5 -11.5t-34.5 -9.5q-7 -4 -18 -16.5t-17.5 -16.5
t-12 -5.5t-10.5 -1.5q-35 0 -50 50q-2 7 -5 25.5t-3 33.5q0 18 6.5 55.5t6.5 55.5q0 25 -7 43q-8 17 -27 30.5t-37 13.5q-27 0 -44.5 -17.5t-23 -40t-5.5 -40.5q0 -29 4 -49q1 -6 5 -29t7 -36l1 -5q13 -52 13 -84q0 -34 -9 -92t-9 -82q0 -21 4 -40q16 -86 102 -86h6
q45 1 86 21.5t72.5 56.5t49 84.5t17.5 101.5l-1 29q0 10 9 10q2 0 5 -4t3 -14v-14q0 -83 -25.5 -153t-71.5 -119t-109.5 -75.5t-135.5 -26.5z" />
    <glyph glyph-name="D" unicode="D" horiz-adv-x="787" 
d="M144 -12q-52 0 -88 30t-36 83q0 38 9.5 85t42 127t40.5 101.5t15.5 49t12 54.5t4.5 58q0 66 -40 110l-2 8q0 4 13.5 8t32.5 4l182 6q78 0 127 -13t94 -42.5t86.5 -76.5t72 -113.5t39 -119t8.5 -83.5q0 -55 -17 -111.5t-56.5 -97t-91.5 -55.5l-3 -1q-31 -9 -161 -9
q-23 0 -49.5 9t-46.5 23q-25 -34 -65 -34h-123zM382 532q0 -54 -18.5 -164t-18.5 -166q0 -33 4 -60q14 -44 44.5 -69.5t74.5 -25.5h9q-16 38 -25.5 87.5t-9.5 93.5q0 45 15 135t15 135q0 100 -40.5 149t-116.5 49q67 -67 67 -164z" />
    <glyph glyph-name="E" unicode="E" horiz-adv-x="712" 
d="M20 97q0 28 3.5 63t14.5 76.5t35 101.5t32.5 83.5t14 45t9.5 48.5t4 60q0 25 -6 52t-19 45q-4 8 -10.5 13.5t-16.5 11t-10 9.5q0 11 48 11h220l230 1q26 0 49 -11t38 -38t23 -66l2 -22q0 -19 -7 -58t-7 -57q0 -11 4 -33t4 -32t-9 -10t-26.5 9.5t-26.5 16.5
q-55 38 -84 129q-11 33 -35.5 69t-65.5 59.5t-85 23.5l-40 -2q55 -75 55 -178l-5 -100q0 -2 15.5 -4t33.5 -2q26 0 38.5 16.5t12.5 42.5q0 19 -6.5 37.5t-31.5 50.5l-1 5q0 8 5.5 14t11.5 6l3 -1q12 -5 25 -22.5t21 -48.5t8 -55q0 -16 -5 -35.5t-5 -26.5q0 -14 4 -53.5
t4 -53.5q0 -23 -14 -46.5t-36 -23.5q-6 0 -11.5 2.5t-5.5 7.5q0 6 6 19.5t6 19.5q0 13 -10 31t-33.5 33t-46.5 17q-8 -40 -8 -102q0 -44 13.5 -81.5t38 -60.5t61.5 -28q0 31 12 68t42 72.5t69 60.5q15 9 35 14.5t37 5.5q20 0 35.5 -16.5t15.5 -50.5q0 -16 -6.5 -50t-6.5 -50
v-5l1 -4q12 -41 12 -73q0 -29 -20 -44.5t-52 -15.5h-171q-8 0 -18 1.5t-22 6.5t-23 12.5t-22 16t-13 10.5q-16 -17 -39 -31.5t-47 -14.5l-110 -1q-43 0 -69 9t-46 40t-20 60z" />
    <glyph glyph-name="F" unicode="F" horiz-adv-x="726" 
d="M22 144q0 30 9 71.5t36.5 103.5t33.5 77q17 43 27.5 92t10.5 91l-1 34q-18 80 -82 84h-5q-31 2 -31 8q0 7 12 7q377 0 570 -2q20 -2 41.5 -12.5t38.5 -34.5t26 -55q3 -13 3 -27q0 -19 -9 -63.5t-9 -65.5l4 -41q0 -19 -9 -19q-46 0 -75 28.5t-52 88t-32 75.5
q-27 50 -67 78t-90 28q-17 0 -42 -5q14 -13 27.5 -39t21 -63t7.5 -69q0 -17 -4.5 -51.5t-4.5 -50.5q0 -8 24 -8q28 0 46.5 16.5t18.5 43.5q0 42 -23 85l-5 10q0 3 3 5.5t7 2.5q2 0 3.5 -0.5t7.5 -7.5q18 -25 27.5 -52t9.5 -62l-3 -84q0 -10 4.5 -39t4.5 -42q0 -55 -58 -59
q-6 3 -6 14q0 7 3 19.5t3 13.5q0 31 -22.5 53.5t-54.5 22.5q-5 0 -8.5 -21.5t-3.5 -58.5q0 -26 11 -79.5t11 -79.5q0 -39 -13.5 -69.5t-45.5 -39.5q-28 -7 -185 -7q-18 0 -50 15q-28 14 -44.5 45t-16.5 95z" />
    <glyph glyph-name="G" unicode="G" horiz-adv-x="826" 
d="M558 -7q-8 1 -25.5 12.5t-42.5 36.5q-27 -25 -75 -38t-105 -13q-59 0 -113 13.5t-81 39.5q-48 46 -67.5 102.5t-19.5 130.5q0 46 8 96t24 91q32 83 93 147t140 88q62 19 137 19q59 0 115.5 -13t102.5 -41t73.5 -73t27.5 -104q0 -22 -12 -33.5t-26 -11.5q-10 0 -28.5 5
t-28.5 5l-38 -6q-21 0 -34.5 10t-23.5 29.5t-23 72.5t-27 79.5t-37.5 41.5t-59.5 15q-21 0 -44 -7t-34 -21t-11 -28q0 -18 8 -93t8 -127v-8l1 -19q0 -23 -9.5 -83.5t-9.5 -100.5v-11q2 -75 22 -107t60 -32q20 0 40.5 12.5t35 51t14.5 94.5l-1 33q-7 55 -34.5 81.5
t-82.5 28.5q-3 1 -3 7q0 9 3 9l320 1q26 0 46.5 -24.5t30 -76t9.5 -101.5q0 -14 8 -50.5t8 -62.5q0 -17 -3 -37q-2 -15 -30.5 -25.5t-97.5 -10.5q-22 0 -102 5z" />
    <glyph glyph-name="H" unicode="H" horiz-adv-x="816" 
d="M147 -13q-24 0 -43.5 7t-35.5 21t-27.5 44t-11.5 74q0 23 3.5 50t13 55t24.5 62.5t18 41.5q62 154 62 236q0 38 -7 64.5t-23.5 42.5t-46.5 17q-6 0 -7 10q2 3 10 3l145 1h59q8 0 16.5 -0.5t14.5 -6.5q33 -36 51.5 -73.5t18.5 -105.5q0 -21 -11 -67.5t-14 -63.5q0 -4 3 -5
q11 4 34 4q49 0 129 -16l3 -1l4 3q11 34 21.5 95.5t10.5 112.5q0 44 -16 70.5t-53 34.5l-15 1q-25 0 -25 10q0 8 20 8h234q14 0 33 -21t37 -59.5t18 -79.5q0 -58 -15.5 -154t-15.5 -105v-8q0 -39 19 -108.5t19 -92.5q0 -21 -10 -37q-13 -31 -40.5 -47.5t-96.5 -16.5t-111 10
t-67.5 39t-25.5 82q0 16 3.5 39t10.5 49t12 42t10 31t6 19q-15 14 -62 14q-3 0 -12 -0.5t-25.5 -2t-19.5 -1.5q-24 -3 -24 -40q0 -21 5 -44.5t12.5 -50.5t9.5 -37q3 -15 3 -44q0 -43 -20 -67t-64 -36l-17 -2h-131z" />
    <glyph glyph-name="I" unicode="I" horiz-adv-x="395" 
d="M179 -12q-39 0 -75.5 18t-56.5 59.5t-20 95.5q3 34 12.5 83t41 125t41 111.5t11.5 64.5t2 40q0 44 -15.5 64.5t-38.5 20.5l-37 -5q-7 0 -7 12q0 8 22.5 16.5t45.5 8.5l56 -5q12 0 32.5 10t30.5 10q17 0 35.5 -18.5t40.5 -65t33 -96.5q6 -27 6 -57l-3 -88v-8
q0 -45 16 -114t16 -106q0 -80 -49 -128t-140 -48z" />
    <glyph glyph-name="J" unicode="J" horiz-adv-x="686" 
d="M578 23q-15 -12 -43.5 -20t-87 -9t-74.5 -2l-62 -1q-103 0 -156 21t-87 67q-15 19 -27 56t-12 70q0 25 8.5 44.5t24.5 27.5t33 8q28 0 57.5 -16t44.5 -37.5t18 -39.5l15 -81q3 -16 14 -32.5t24.5 -24t23.5 -7.5q12 0 21.5 9t9.5 31l-5 70q0 54 35 143q5 14 28 72.5
t36.5 109.5t13.5 100q0 21 -6 48t-17.5 43.5t-23.5 20.5q-6 3 -16 5t-28.5 2.5t-21.5 0.5q-3 1 -5 6q0 2 2 4.5t5 2.5h32l208 -1q30 0 54.5 -33t34.5 -78t10 -81q0 -14 -5 -59t-25 -199q0 -17 4 -51.5t4 -50.5q0 -44 -13.5 -78t-45.5 -61z" />
    <glyph glyph-name="K" unicode="K" horiz-adv-x="830" 
d="M114 -6q-27 0 -49.5 12.5t-33.5 42.5t-11 67q0 43 14 106l2 8q6 26 28.5 77t25.5 60q45 117 45 192v6q0 67 -13 96q-2 5 -13.5 18.5t-11.5 17.5q0 23 45 23l70 1q50 0 75.5 -6t44 -26t30.5 -62q19 -67 19 -135l-2 -88q138 98 189.5 147t51.5 87q0 16 -7.5 30.5
t-22.5 21.5q-10 5 -26 5q-30 0 -48.5 1t-18.5 8q0 10 7 10h126l94 1q22 0 22 -5q0 -10 -13 -12q-16 0 -39 -19t-32 -42q-2 -5 -7 -18t-17.5 -40.5t-29 -56t-31.5 -48.5t-68 -80q99 -21 150 -46t65 -58q13 -32 40.5 -96t41.5 -101t14 -59q0 -42 -92 -42h-174q-32 0 -65.5 36
t-33.5 69l3 123q0 22 -10 42.5t-25.5 29.5t-29.5 9q-36 0 -36 -52q0 -21 17.5 -73t17.5 -80q0 -32 -19 -59.5t-50 -39.5q-12 -6 -71 -6z" />
    <glyph glyph-name="L" unicode="L" horiz-adv-x="680" 
d="M139 -12q-49 0 -76.5 29.5t-34.5 74.5q-3 18 -3 36q0 39 12.5 82.5t34 101t29.5 78.5l24 68q16 43 16 120q0 18 -2 36.5t-8 33.5t-19.5 29.5t-13.5 24.5q0 16 40 16h147q16 0 39 -30q55 -70 55 -178q0 -33 -4 -60q-5 -40 -20 -119.5t-15 -110.5q0 -53 25 -93.5t74 -54.5
q-5 25 -5 42q0 25 8 57q7 29 28.5 63.5t53 58.5t62.5 28l14 1q16 0 31.5 -8t23 -27t7.5 -41q0 -19 -6 -41q-14 -44 -14 -78q0 -25 8 -54q1 -3 4 -11t3 -12q0 -19 -12 -33.5t-37 -21.5t-55 -7h-161q-10 2 -22.5 8t-25.5 16t-14 10q-2 0 -28 -17t-39 -17h-124z" />
    <glyph glyph-name="M" unicode="M" horiz-adv-x="904" 
d="M301 3q-33 23 -53.5 62t-31.5 89.5t-11 105.5l6 202q0 64 -13 100.5t-34 57.5q-3 -24 -8.5 -57t-18.5 -87.5t-17 -73.5q-8 -38 -8 -102q0 -80 18 -148q3 -13 20 -51.5t17 -62.5q0 -21 -9 -33.5t-44 -12.5q-32 0 -49 11.5t-24 35.5t-7 70q0 56 12.5 129t51.5 201
q19 64 30 110t12 93q0 14 -7 28t-28 22.5t-22 10.5t-1 3q1 10 33 10l164 1q29 0 67 -36t78 -109.5t51 -115.5l103 108q33 35 33 72q0 24 -7.5 39.5t-17.5 21.5q-9 5 -22 5h-7q-11 0 -11 6q0 2 4 5t9 3l126 1q68 0 77 -4q13 -6 31 -23t34.5 -53.5t29 -89.5t12.5 -102
q0 -42 -16 -173v-46l17 -137q0 -96 -93 -96h-125q-40 0 -66.5 17.5t-40 50.5t-13.5 78q0 63 17 131.5t46 124.5q47 88 47 156q0 27 -8 51q-84 -118 -101.5 -146t-30.5 -52q-23 -33 -37 -81t-14 -128l2 -119q0 -44 -20.5 -65t-66.5 -21q-47 0 -65 13z" />
    <glyph glyph-name="N" unicode="N" horiz-adv-x="678" 
d="M213 304q-2 13 -7 86t-12 112.5t-15.5 63.5t-19.5 38l-5 -5q-6 -38 -22 -173.5t-22 -195.5q0 -50 17 -104q15 -50 17.5 -64.5t2.5 -24.5q0 -18 -19.5 -29.5t-43.5 -11.5q-28 0 -43.5 20t-15.5 78q0 53 9 120.5t21 109.5q1 4 35.5 112t34.5 161q0 26 -7.5 48.5t-22 35
t-29.5 16.5q-2 1 -11 1.5t-12.5 3.5t-3.5 7q0 5 17 5l159 2h74q18 0 37 -14t35 -39t33 -60q18 -44 44.5 -128t43.5 -126q12 -30 25 -40q4 40 28 94.5t30.5 73t9.5 38.5t3 36q0 74 -39 116q-10 11 -25.5 21t-15.5 13q0 15 16 15h53q36 0 55 -2q5 -1 5 -13q0 -2 -1 -5.5
t-8 -10.5l-8 -8q-15 -16 -15 -47q20 -83 20 -151q0 -30 -12.5 -95t-12.5 -97l1 -17q3 -70 24 -113l27 -51q11 -22 11 -51t-11 -47q-4 -6 -15 -11t-20 -6q-54 -6 -108 -6q-64 0 -115 8q-5 1 -19.5 7t-29.5 23q-28 29 -54 70t-41.5 92t-26.5 119z" />
    <glyph glyph-name="O" unicode="O" 
d="M449 -6q-37 -4 -79 -4q-44 0 -94 7.5t-92.5 28t-71.5 51t-51 80.5t-29 136v12q0 38 15.5 88.5t44 102t67 97t81 74.5t76 38.5t58.5 9.5h6q109 0 191.5 -55t129.5 -153q21 -44 31 -91t10 -89q0 -61 -20 -119t-58.5 -104t-93.5 -75t-121 -35zM304 189q0 -69 24 -112.5
t70 -43.5q13 0 26 7.5t21.5 25.5t8.5 36q0 3 -1.5 25t-2.5 47t-1 44v26q0 10 4 48t17 137.5t13 100.5l1 15q0 51 -17.5 89.5t-42 51t-47.5 12.5q-16 0 -32.5 -13t-16.5 -31l1 -15q19 -74 19 -131q0 -4 -0.5 -14t-19 -116.5t-19.5 -113.5q-5 -30 -5 -75z" />
    <glyph glyph-name="P" unicode="P" horiz-adv-x="806" 
d="M29 125q0 27 8.5 66t33 102.5t29.5 78.5q45 127 45 204q0 123 -110 123q-5 0 -6 8q1 9 6 9h245q133 0 209.5 -12t135 -41t98.5 -71q51 -55 51 -141t-48.5 -130t-138.5 -44q-23 0 -67 6.5t-152 40.5l-15 6q-7 -14 -7 -51v-6q0 -30 3.5 -55.5t13 -63t9.5 -59.5
q0 -37 -13 -59.5t-41 -34.5t-109 -12h-5q-78 0 -110.5 9.5t-48.5 38.5t-16 88zM365 387q16 -13 62 -13q40 0 60.5 38.5t20.5 113.5q0 24 -9 51.5t-31 54t-56.5 45.5t-77.5 19q-16 0 -16 -5q23 -32 39.5 -73t16.5 -100q0 -11 -0.5 -24t-8.5 -107z" />
    <glyph glyph-name="Q" unicode="Q" horiz-adv-x="897" 
d="M225 0q-98 37 -146 103t-50 146v14q0 77 27.5 158t76.5 147.5t115.5 107t139.5 40.5h8q126 0 232 -109q55 -57 84 -128.5t29 -149.5q0 -75 -28 -159q-1 -2 17 -8q22 0 37.5 24.5t24.5 28.5t16 4q15 0 30.5 -12t25 -40t9.5 -57q0 -36 -11 -56q-26 -59 -120 -59
q-26 0 -56 11t-72 44q-17 -17 -51 -33t-84.5 -24t-103.5 -8q-48 0 -92 5t-58 10zM348 513q0 -52 -16.5 -149t-19.5 -139q10 7 31.5 13t42.5 6q35 0 58 -11q0 57 7.5 118.5t21.5 111.5q10 34 10 63q0 47 -16.5 94t-45.5 69q-19 14 -38 14q-21 0 -37 -15.5t-18 -40.5v-5
q20 -86 20 -129zM313 135q0 -23 10.5 -46.5t27 -34t31.5 -10.5q32 0 49 26.5t17 73.5v17q-36 31 -75 31q-25 0 -42.5 -16t-17.5 -41z" />
    <glyph glyph-name="R" unicode="R" horiz-adv-x="802" 
d="M35 60q-14 28 -14 81q0 29 9 68.5t39.5 111t39 93.5t15.5 46t11.5 47t4.5 47q0 112 -55 138q-2 1 -33.5 3.5t-30.5 11.5q0 8 16 8l364 2q59 0 85 -2q37 -2 79 -15t80.5 -38.5t64 -68t28.5 -98.5v-7q0 -32 -16.5 -54t-41.5 -36t-57.5 -26.5t-39.5 -15.5q43 -19 77 -44.5
t54 -55t22 -63.5q1 -22 11 -42t21 -31q24 -24 24 -63q0 -17 -9.5 -33t-39 -25t-97.5 -9q-40 0 -120 10l-7 1q-38 5 -58 43.5t-20 84.5q0 18 6.5 60t6.5 61q0 34 -18.5 59.5t-41.5 35t-38 9.5q-8 0 -13 -2q-16 -45 -16 -120q0 -28 12.5 -85t12.5 -85q0 -33 -7.5 -47.5
t-30.5 -19.5t-94 -5l-55 -1q-25 0 -51 3q-25 2 -47 22t-32 46zM351 401q4 -2 19 -5.5t34 -3.5q21 0 36.5 13t21.5 37t6 56q0 45 -17 87t-43 65.5t-61 23.5h-4q-17 0 -17 -9q30 -76 30 -139z" />
    <glyph glyph-name="S" unicode="S" horiz-adv-x="646" 
d="M33 180q0 15 7 34t25.5 34t42.5 15q30 0 61 -24t56 -82q32 -93 64 -124.5t76 -31.5q15 0 35 7t35 26.5t15 44.5q0 37 -22.5 69.5t-58.5 53.5q-6 4 -24 14.5t-98.5 55t-83 46.5t-23.5 15.5t-36.5 26.5t-33 32.5t-31.5 51.5t-14 76q0 46 27 93.5t76 75t99 27.5h107
q38 0 68.5 -14t65.5 -38t50 -33q19 -11 37 -15q5 -1 15.5 -2t15 -5t4.5 -18q0 -18 -11 -40t-37.5 -37t-55.5 -15q-37 0 -69 24.5t-53 60.5q-1 2 -4.5 8.5t-20 38t-31.5 45.5t-31.5 20t-37.5 6q-34 0 -56.5 -21t-22.5 -55q0 -21 16.5 -44.5t54.5 -43.5l238 -128
q80 -43 116 -100.5t36 -116.5q0 -26 -7 -52t-17 -44q-28 -48 -87.5 -78t-144.5 -30q-130 0 -194 23t-99 68q-39 48 -39 100z" />
    <glyph glyph-name="T" unicode="T" horiz-adv-x="788" 
d="M202 112q0 44 12 92t40 116t35 88q28 75 28 177q0 30 -10 57t-27.5 43t-42.5 16q-45 0 -84 -76q-32 -62 -49 -91q-9 -17 -32 -39t-38 -22q-8 0 -13.5 8.5t-5.5 27.5q0 18 9 63.5t9 81.5q0 8 -6.5 24t-6.5 24q0 10 13 13l148 1l295 -1h240q23 0 35.5 -21t16 -48.5
t3.5 -49.5q0 -21 -2.5 -47.5t-2.5 -42.5t7 -49l-3 -3q-16 0 -30 9t-27 27t-30.5 54.5t-24.5 45.5q-21 29 -49 53.5t-55.5 35.5t-49.5 12q42 -70 42 -162q0 -59 -12 -143q-2 -11 -7 -38t-7 -43t-2 -29q0 -51 29 -148q6 -32 6 -56q0 -15 -9 -34t-30.5 -34t-44.5 -15h-171
q-51 0 -73.5 34t-22.5 89z" />
    <glyph glyph-name="U" unicode="U" horiz-adv-x="668" 
d="M344 -19q-125 0 -185 24t-86 74.5t-26 138.5q0 20 5.5 53t35.5 117t38.5 124.5t8.5 74.5q-4 52 -18.5 76t-37.5 33q-7 3 -47 3q-9 0 -9 7q0 10 6 10l264 1q5 -1 20 -21.5t29 -45.5q32 -52 32 -142q0 -59 -18 -173.5t-18 -152.5q0 -89 64 -89q31 0 57.5 17t51 54.5t40 100
t15.5 115.5q0 44 -7.5 101t-19.5 103q-21 78 -59 105q-6 4 -13 6.5t-18 4t-15 2.5q-2 2 -2 11q0 4 21 4l129 -1l42 1q9 0 17.5 -4.5t8.5 -9.5l-1 -3l-44 -1q-13 0 -29 -13.5t-20 -38.5v-4q0 -3 1.5 -15.5t35.5 -131.5t34 -188q0 -63 -17 -115q-22 -69 -64.5 -116.5
t-93.5 -71.5t-108 -24z" />
    <glyph glyph-name="V" unicode="V" horiz-adv-x="696" 
d="M223 143q-18 129 -22 247q-5 114 -28.5 180t-64.5 96.5t-96 33.5q-6 0 -7 9q0 7 5 7h297q2 0 5 -3.5t4 -5.5q32 -43 65 -106t57 -145.5t41 -178.5q32 118 49.5 194t17.5 119q0 55 -30 81t-87 29q-4 3 -4 9q0 1 3 4t11 3l232 -2q5 0 7 -7q-1 -5 -4 -6q-6 -2 -25.5 -6.5
t-29 -8.5t-16 -9t-11 -12.5t-6.5 -18.5q-39 -220 -64.5 -342.5t-58.5 -204.5q-27 -67 -55.5 -89t-63.5 -22q-49 0 -78.5 39t-42.5 116z" />
    <glyph glyph-name="W" unicode="W" horiz-adv-x="1012" 
d="M598 179l-22 245q-9 -18 -19 -48t-33 -136t-39 -144.5t-32.5 -60.5t-39 -35t-52.5 -13q-13 0 -28 3q-28 7 -49 28t-33 50t-20 74t-8 140v19q0 352 -154 387q-1 0 -23.5 3.5t-31.5 6.5t-9 7q0 2 1.5 6.5t15.5 4.5h277q8 0 26.5 -23t48 -76t64.5 -134t62 -171
q18 44 30.5 73t19 43t10 20.5t6 11.5t3.5 6q-1 9 -5 31.5t-11.5 64.5t-20.5 66q-10 19 -29 36t-48 24.5t-68 8.5q-6 0 -6 7q0 5 9 9q4 1 8.5 1h84.5l223 -1l7 -4q8 -16 27 -58t60 -131t53 -140l7 -6q5 0 18.5 36.5t31 107.5t17.5 95q0 22 -13 45t-32 31q-20 5 -68 5
q-27 0 -44 2q-8 2 -8 9q0 8 5 8q35 0 77 0.5t90 1.5t50 1q10 0 15 -3.5t5 -7.5q0 -1 -2 -4.5t-8 -3.5q-8 0 -20 -19.5t-16 -39.5q-2 -12 -24 -182t-47 -259.5t-52.5 -137.5t-62.5 -63q-19 -8 -56 -8q-23 0 -41.5 11.5t-33 33t-27 60.5t-16.5 86z" />
    <glyph glyph-name="X" unicode="X" horiz-adv-x="777" 
d="M299 201l-11 -22q-44 -92 -77 -132q-19 -24 -47 -38t-58 -14q-34 0 -51.5 14t-17.5 31q0 1 0.5 5t4 13.5t16 23.5t27 26.5t29.5 24t16 12.5q72 55 108.5 120t36.5 126q0 35 -12 82t-37.5 90t-54.5 72.5t-65 46.5t-74 17q-2 0 -5 2t-3 6q0 3 2 6t6 3l192 1q109 0 120 -4
q130 -102 186 -257l4 -2q32 28 52 72.5t20 87.5t-22 65t-78 25q-9 2 -9 8q0 7 13 9h184q6 0 6 -7q0 -2 -2 -5.5t-14 -8.5t-13 -5q-9 -6 -18.5 -24t-21.5 -84.5t-22 -101t-23.5 -60.5t-27.5 -42q4 -23 16 -49t31.5 -51.5t78.5 -91t59 -111.5q0 -47 -29 -67.5t-94 -20.5l-66 1
h-83q-32 0 -62.5 23.5t-49 51.5t-26.5 47l-10 30t-14.5 39.5t-9.5 16.5z" />
    <glyph glyph-name="Y" unicode="Y" horiz-adv-x="740" 
d="M463 -11h-201q-4 0 -21 4t-20 6q-22 10 -37 30.5t-15 63.5q0 21 4 41t11 44t10 34q17 70 17 111q0 81 -38.5 177t-96.5 148q-2 2 -24.5 17t-32 24t-9.5 15q0 13 7 13h238q2 0 9.5 -3.5t37 -31.5t81 -97.5t76.5 -125.5q19 13 46.5 46.5t55.5 79.5t28 62q0 25 -16.5 38
t-48 15t-36 3.5t-4.5 4.5q0 9 4 9h230q12 0 12 -7q-1 -6 -9 -9q-2 -1 -22 -7t-39.5 -19.5t-31.5 -38.5l-140 -299q-15 -33 -15 -75q0 -49 27 -116q3 -8 11.5 -27t13.5 -34.5t5 -34.5q0 -10 -8 -24t-25.5 -25.5t-33.5 -11.5z" />
    <glyph glyph-name="Z" unicode="Z" horiz-adv-x="721" 
d="M473 650q0 25 -16.5 41t-62.5 16q-44 0 -87 -23t-73 -53t-48 -54q-3 -4 -23 -32.5t-39 -49t-43 -34.5q-16 -8 -19 -8q-10 0 -10 22q0 24 12 73t12 73q0 39 -22 83q0 14 33 14l411 1h117q13 0 25.5 -9t19 -30t6.5 -44q0 -41 -19.5 -84.5t-78.5 -117t-198 -218.5
q-29 -29 -45 -58t-16 -47q0 -22 17.5 -39t40.5 -17q35 0 61 19.5t55 77.5t49.5 78t41.5 26.5t40 6.5q31 0 51.5 -11.5t20.5 -47.5q0 -12 -3.5 -43.5t-3.5 -48.5l5 -68q0 -21 -14 -38.5t-35 -17.5h-164q-104 0 -132.5 6.5t-61.5 33.5q-7 -3 -27.5 -19.5t-32 -18.5t-16.5 -2
h-98q-14 1 -28.5 10.5t-23.5 23t-12 20.5q-12 30 -12 63q0 43 18 89.5t46 85.5q34 56 234 207l13 9q3 2 34.5 24.5t55.5 44.5t34.5 44t10.5 41z" />
    <glyph glyph-name="bracketleft" unicode="[" horiz-adv-x="302" 
d="M156 615q-40 -28 -62 -62t-22 -104l1 -78l2 -177q0 -60 46 -84q62 -32 91 -49q17 -9 39 -32t22 -38q0 -8 -8.5 -13.5t-27.5 -5.5q-18 0 -63.5 9t-81.5 9q-8 0 -24 -6.5t-24 -6.5q-10 0 -13 13l-1 148l1 295v240q0 23 21 35.5t48.5 16t49.5 3.5q21 0 47.5 -2.5t42.5 -2.5
t49 7l3 -3q0 -16 -9 -30t-27 -27t-54.5 -30.5t-45.5 -24.5z" />
    <glyph glyph-name="backslash" unicode="\" horiz-adv-x="391" 
d="M37 707l385 -703l2 -7q-1 -7 -7.5 -13.5t-13.5 -6.5q-12 5 -16 10l-385 702q-2 2 -2 8q0 7 7 12.5t15 5.5q11 0 15 -8z" />
    <glyph glyph-name="bracketright" unicode="]" horiz-adv-x="282" 
d="M146 615q-9 7 -45.5 24.5t-54.5 30.5t-27 27t-9 30l3 3q33 -7 49 -7t42.5 2.5t47.5 2.5q51 0 77.5 -9.5t34 -21.5t7.5 -24v-240l1 -295l-1 -148q-3 -13 -10 -13l-32 1l-164 -6q-19 0 -27.5 5.5t-8.5 13.5q0 15 22 38t39 32q29 17 91 49q46 24 46 84l2 177l1 78
q0 70 -22 104t-62 62z" />
    <glyph glyph-name="asciicircum" unicode="^" horiz-adv-x="435" 
d="M60 345q-19 -18 -31 -18q-3 0 -6 3t-3 7q0 6 9 17q18 18 51.5 51t49 50.5t23.5 36t13 30.5q29 14 62 14q24 0 41 -13.5t42.5 -57.5t41.5 -64t31.5 -35t30.5 -26q0 -7 -21 -13.5t-70 -6.5q-40 0 -75.5 6.5t-36.5 13.5q-1 5 -3 15.5t-6 37.5t-11 57q-72 -54 -132 -105z" />
    <glyph glyph-name="underscore" unicode="_" horiz-adv-x="737" 
d="M621 -11q66 0 91 -17.5t25 -52.5v-12q0 -37 -25 -55.5t-98 -18.5h-495q-40 0 -67 5.5t-39.5 23t-12.5 42.5v22q0 29 20 46t77 17h524z" />
    <glyph glyph-name="grave" unicode="`" horiz-adv-x="270" 
d="M87 738l13 2q36 0 69 -47.5t37 -51.5q41 -48 44 -63v-6l-6 -4q-7 0 -20 13t-18 16q-12 8 -30.5 14.5t-52.5 9t-46.5 4t-23.5 7t-19.5 15t-12.5 28.5l-1 7q0 15 17 32t50 24z" />
    <glyph glyph-name="a" unicode="a" horiz-adv-x="565" 
d="M20 147q0 35 9 73.5t28.5 69.5t50 49.5t70.5 18.5q24 0 43.5 -6.5t35.5 -17.5t37 -31t27 -26q1 1 3 3.5t20 48.5l22 56q9 27 9 45q0 17 -8 39t-29.5 39t-47.5 17q-23 0 -44 -14.5t-43.5 -44.5t-28.5 -37q-21 -25 -66.5 -54.5t-73.5 -29.5q-5 0 -5 5t8 24q5 14 22 48
t22.5 55.5t5.5 40.5v7q0 17 14 19l267 2h5q22 0 35 -6q55 -26 83.5 -72.5t28.5 -102.5q0 -42 -22 -122q-15 -54 -16 -62t-1 -17q0 -8 4 -19.5t26 -29t28 -27.5t6 -22q0 -33 -22.5 -53t-57.5 -20l-56 -2q-47 0 -73.5 23t-45.5 60q-4 -4 -23.5 -21t-36 -29t-32.5 -19
t-29.5 -9.5t-23.5 -2.5q-30 3 -59 19.5t-47.5 54.5t-18.5 80zM196 203q0 -76 37 -76q24 0 40 22t26 80l1 10q0 21 -16.5 32.5t-38.5 13.5q-13 0 -25 -10t-18 -31.5t-6 -40.5z" />
    <glyph glyph-name="b" unicode="b" horiz-adv-x="567" 
d="M123 557v36q0 47 -22 77.5t-64 30.5q-7 0 -7 7q0 10 27 10q86 0 122 -2q10 -1 25 -25q37 -58 51 -94.5t28 -88.5q20 15 43 23.5t58 8.5q33 0 60.5 -17.5t49 -51t37.5 -93t16 -126.5q0 -56 -13.5 -108.5t-44.5 -87.5q-28 -31 -65 -49.5t-78 -18.5q-35 0 -64 7.5t-68 46.5
q-22 -25 -44.5 -38.5t-49.5 -13.5q-55 0 -77.5 35.5t-22.5 100.5v15q1 17 6 44t17 61t26 68.5t17 41.5q17 45 27 98.5t10 102.5zM233 112q0 -35 17.5 -62t51.5 -27q0 9 -5 26.5t-5 26.5q0 37 13.5 82.5t53.5 116.5q4 7 17.5 28.5t19.5 38t6 33.5q0 67 -14.5 97.5t-43.5 30.5
q-24 0 -38.5 -8.5t-23.5 -31.5l1 -63q0 -105 -20 -179q-3 -11 -13 -38t-13.5 -43t-3.5 -28z" />
    <glyph glyph-name="c" unicode="c" horiz-adv-x="566" 
d="M20 241q0 95 49.5 169t141.5 113q50 21 109 21q29 0 66.5 -9.5t65.5 -38.5t31 -77q0 -24 -8 -34q-9 -11 -26.5 -18l-22.5 -9q-12 -6 -28 -26.5t-26.5 -27.5t-23.5 -7q-12 0 -23 11t-11 23q0 17 6.5 45t7.5 34l2 22q0 23 -7.5 44t-20 30t-23.5 9q-17 0 -39 -16
q-24 -18 -38 -51.5t-14 -99.5q0 -50 13 -101t36 -89.5t54 -56.5t63 -18q33 0 75 30q55 39 78 108.5t23 149.5q12 0 14 -10q2 -9 2 -44q0 -73 -24 -133.5t-65 -102t-93.5 -63t-106.5 -22.5h-5q-109 0 -170.5 67t-61.5 178z" />
    <glyph glyph-name="d" unicode="d" horiz-adv-x="573" 
d="M317 54l-44 -41q-25 -23 -86 -23q-46 0 -79 21.5t-52.5 58t-27.5 82t-8 88.5q0 29 6.5 71t25.5 90t49 80t61 45t58 16l13 1q24 0 55 -11.5t80 -43.5q0 43 -21 100q-24 61 -55.5 86.5t-86.5 26.5q-6 0 -6 8q0 7 23 7h85q53 0 71 -7q7 -3 18 -10t39 -37q23 -24 45.5 -62.5
t36 -91t13.5 -106.5q0 -25 -6 -79t-6 -79q0 -46 27 -102q8 -17 8 -57q0 -54 -29 -75.5t-86 -21.5h-6q-28 0 -54 9t-41 25t-20 32zM212 255q6 -70 15 -90t21.5 -27.5t33.5 -7.5q4 0 25 8q0 7 0.5 28.5t2.5 36t5 26.5t6.5 19.5t5.5 11.5q15 29 27.5 69.5t12.5 74.5
q0 29 -11 50.5t-31.5 30t-42.5 8.5q-46 0 -71.5 -27.5t-25.5 -74.5q0 -10 1 -20t11 -47z" />
    <glyph glyph-name="e" unicode="e" horiz-adv-x="595" 
d="M49 106q-29 58 -29 125q0 53 19 103q39 100 120 158t190 58q17 0 41.5 -4.5t52.5 -17t56 -35t47.5 -57t19.5 -72.5q0 -24 -11.5 -38.5t-34.5 -14.5q-15 0 -45.5 9t-46.5 9q-40 0 -96 -37.5t-75 -73.5q-15 -28 -15 -58q0 -18 10.5 -41t35.5 -40.5t53 -17.5q35 0 75.5 16
t77.5 56t57 90q2 6 4.5 13t12.5 49l4 4q3 -1 3 -5q0 -77 -40 -145.5t-107 -106.5q-64 -37 -154 -37q-95 0 -145.5 26.5t-79.5 84.5zM232 392q0 -12 1 -30.5t11 -109.5q22 23 53 48.5t32 25.5q27 24 47.5 60t20.5 68q0 28 -20 49t-50 21q-25 0 -47 -15t-35 -49t-13 -68z" />
    <glyph glyph-name="f" unicode="f" horiz-adv-x="327" 
d="M215 633q0 22 -14.5 43t-34.5 21q-10 0 -19 -5q-22 -12 -22 -35q0 -17 16 -46t51 -63l105 -2q4 -2 4 -13q0 -6 -4 -12h-88q16 -29 27.5 -63.5t15 -72.5t3.5 -100q0 -40 5 -81t5 -59q0 -69 -13 -99.5t-45 -43t-94 -12.5q-91 0 -91 114q0 19 6 50.5t38 102.5t41 104.5
t9 62.5q0 32 -10 60q-6 18 -23 26.5t-38 8.5h-10q-15 0 -15 9q0 16 32 16h23q7 0 11 2q0 6 -12.5 35.5t-12.5 45.5q0 19 11.5 41t42.5 36t73 14h13q38 -2 68 -13t46.5 -28.5t16.5 -43.5q0 -16 -10.5 -25.5t-42.5 -9.5q-64 0 -64 35z" />
    <glyph glyph-name="g" unicode="g" horiz-adv-x="700" 
d="M66 165q-46 65 -46 146q0 45 16 87.5t46.5 76t76.5 53t103 19.5h11q65 -2 124 -25.5t101 -67.5q5 6 25.5 32.5t40 37.5t45.5 11q17 0 35.5 -11t29.5 -36t11 -51q0 -29 -14 -55.5t-35.5 -37.5t-40.5 -11q-12 0 -23 4t-19.5 12t-16.5 19t-9 12q0 -39 -6 -75t-23 -82
q-17 -44 -51.5 -74.5t-84 -46.5t-106.5 -16q-44 0 -89.5 14.5t-75.5 37.5q-10 0 -10 -26q0 -36 46 -61t87 -25h4q61 0 150 32.5t119 37t48 4.5q144 0 144 -119q0 -32 -14.5 -61.5t-38.5 -45.5t-48 -21q-13 16 -31.5 26t-36.5 10q-37 0 -114 -18.5t-121 -18.5
q-74 0 -130 20.5t-88.5 61t-32.5 101.5q0 39 11.5 73t30.5 57zM223 186q0 -12 11 -18t22 -6q32 0 51 63.5t19 192.5v23q0 21 -7 39.5t-20 26.5t-27 8q-11 0 -23 -8t-18.5 -25.5t-6.5 -34.5l1 -14q10 -51 12.5 -73.5t2.5 -49.5q0 -52 -10 -89q-7 -28 -7 -35z" />
    <glyph glyph-name="h" unicode="h" horiz-adv-x="610" 
d="M31 103q0 26 8 64.5t31.5 104t29.5 82.5l3 8q17 51 28 93.5t11 84.5q0 116 -59 150q-10 5 -17.5 7.5t-22.5 2.5q-3 0 -9.5 1t-6.5 10q0 6 17 6h132q3 0 8 -3t7 -5q25 -23 42.5 -51t27 -59.5t17 -70t8.5 -44.5q5 5 16.5 15.5t19.5 17.5t20.5 14.5t29.5 10.5t33 3h4
q28 -1 53 -15.5t40 -35.5q17 -22 27 -67t10 -80v-7q0 -30 2 -61.5t7 -57t18 -62.5t13 -70q0 -55 -33 -76.5t-92 -21.5q-41 0 -66.5 14t-39 41t-13.5 66q0 70 20 115q66 147 66 205q0 21 -8 40.5t-21.5 28.5t-27.5 9q-15 0 -32 -10.5t-49 -48.5q0 -32 -16.5 -105.5
t-16.5 -109.5q0 -23 7.5 -62t7.5 -57q0 -53 -31.5 -89.5t-82.5 -36.5q-59 0 -89.5 25.5t-30.5 86.5z" />
    <glyph glyph-name="i" unicode="i" horiz-adv-x="280" 
d="M101 409q0 106 -75 121q-4 1 -5 2.5t-1 7.5q0 5 7 6h107q17 0 20 -3q46 -42 68.5 -88t22.5 -104v-53l-2 -104q0 -19 8.5 -55t8.5 -54q0 -27 -12 -49.5t-31.5 -31.5t-37.5 -9h-98q-13 0 -26.5 8.5t-21 29t-7.5 45.5q0 76 32 159.5t37 116t6 55.5zM37 647q0 36 24 54t62 18
q30 0 50.5 -23t20.5 -53q0 -17 -9 -28.5t-25 -11.5l-34 5q-9 0 -26 -8.5t-25 -8.5q-17 1 -27.5 19.5t-10.5 36.5z" />
    <glyph glyph-name="j" unicode="j" horiz-adv-x="384" 
d="M170 -160q-26 0 -59 11.5t-57 41.5t-24 74q0 23 19 38.5t45 15.5q7 0 18 -3t18 -6q11 0 18.5 17.5t7.5 43.5l1 123q0 94 -9 162q-12 81 -39.5 120t-79.5 43q-14 0 -14 11q0 14 20 14l20 -1q28 0 65 -2t51 -6q10 -3 26.5 -15t36 -38t40.5 -67.5t37 -99.5t18 -117
q0 -18 17.5 -72t17.5 -102v-14q-2 -50 -16 -76q-25 -47 -72.5 -71.5t-105.5 -24.5zM136 603l-35 -3q-19 0 -33 16.5t-14 36.5q1 34 25.5 47.5t51 15.5t51.5 2h6q27 0 42.5 -17.5t15.5 -41.5q0 -17 -8.5 -33t-21.5 -24t-26 -10q-9 0 -26.5 5.5t-27.5 5.5z" />
    <glyph glyph-name="k" unicode="k" horiz-adv-x="626" 
d="M25 115q1 41 8.5 78t30.5 96t34.5 100t19 89t10.5 92v13q0 26 -7.5 51t-22 39.5t-29.5 19.5q-5 2 -21.5 4.5t-22.5 2.5q-2 0 -3.5 3t-1.5 5t2 5.5t5 3.5h152q6 0 14.5 -5.5t12.5 -11.5q48 -61 69.5 -122t21.5 -136l-5 -91q0 -9 3 -14q28 28 52 57.5t60 77.5q3 3 5.5 10.5
t2.5 11.5q0 9 -6.5 19.5t-20.5 10.5h-29q-25 0 -25 8q0 12 7 12l216 1q12 0 12 -7q0 -2 -2 -6t-17 -5.5t-19 -2.5q-15 -3 -29.5 -15.5t-28 -31t-48 -74.5t-52.5 -80q53 -21 96 -52q10 -7 19.5 -19.5t23.5 -39.5t18 -34q2 -4 35 -42t37 -55t4 -24q0 -27 -16 -46t-43 -19h-135
q-20 0 -36.5 13t-23 29.5t-6.5 28.5v88q0 23 -12.5 43.5t-32.5 20.5q-13 0 -21 -3v-3l5 -81q0 -69 -32 -102.5t-102 -33.5q-66 0 -96 28.5t-30 94.5z" />
    <glyph glyph-name="l" unicode="l" horiz-adv-x="303" 
d="M106 -5q-15 0 -33.5 12.5t-33 39t-14.5 46.5q0 44 18 119.5t67 233.5q16 51 16 112q0 72 -25 105t-76 41q-2 0 -3.5 2.5t-1.5 4.5q0 5 5 5h153q2 0 8.5 -3.5t14.5 -11.5q20 -18 39 -48t29.5 -71t10.5 -85q-3 -44 -15 -106.5t-12 -86.5q0 -25 13 -77t14 -58
q2 -8 2.5 -33.5t0.5 -27.5v-4q0 -30 -14.5 -57.5t-36.5 -39.5t-42 -12h-84z" />
    <glyph glyph-name="m" unicode="m" horiz-adv-x="866" 
d="M299 68q0 18 5.5 47.5t36 97t39 101.5t8.5 63q0 55 -28 95t-70 40q-30 0 -61 -25q18 -42 29.5 -82t11.5 -83q0 -19 -15 -179v-9q0 -78 -19.5 -110.5t-65.5 -32.5h-26q-69 0 -96.5 24t-27.5 74q0 24 7.5 53t30 76t29.5 65q29 71 29 119q0 29 -9 57.5t-28 41.5
q-3 2 -23 11.5t-28 14t-8 6.5q0 12 15 12h100q32 0 84 -41q56 42 120 42q40 0 69.5 -8.5t64.5 -43.5q43 33 68.5 42t49.5 9q50 -1 91 -18.5t69 -49t43 -74.5t15 -92l-4 -80q0 -35 17.5 -71t20.5 -50.5t3 -25.5q0 -32 -20 -52.5t-55 -31.5t-77 -11q-50 0 -74 27.5t-24 77.5
q0 17 5.5 39t22 57.5t21.5 48.5q18 50 18 97q0 42 -17.5 87.5t-45.5 65.5t-57 20q-13 0 -31.5 -9.5t-26.5 -20.5q30 -44 42.5 -89.5t12.5 -101.5l-3 -99l5 -112q0 -28 -12.5 -50t-32 -30t-36.5 -8h-40q-44 0 -68.5 5.5t-39 22.5t-14.5 51z" />
    <glyph glyph-name="n" unicode="n" horiz-adv-x="613" 
d="M181 524l29 -39q81 62 156 62q51 0 97.5 -29.5t71 -86.5t24.5 -120v-12l-6 -88v-4q0 -33 20 -79t20 -63q0 -32 -18.5 -50t-73.5 -18h-37q-60 0 -89.5 18.5t-45.5 74.5q-6 23 -6 50q0 45 29.5 147.5t29.5 144.5q0 24 -10.5 43.5t-28 27.5t-33.5 8q-14 0 -51 -18t-37 -27
q16 -28 24.5 -67.5t8.5 -74.5l-3 -88q0 -21 6.5 -58t6.5 -58q0 -29 -7.5 -59t-32.5 -48t-72 -18h-5q-56 0 -80.5 11.5t-33.5 34.5q-14 28 -14 61q0 44 32 134.5t39 127.5t9 59v15q0 19 -6.5 40.5t-25 38t-44.5 19.5q-3 0 -3 4q0 6 4 6h122q14 0 34 -22z" />
    <glyph glyph-name="o" unicode="o" horiz-adv-x="560" 
d="M20 242q0 60 17 115t51 97t83.5 66t111.5 24q27 0 61 -8.5t67 -30.5t62.5 -59t48 -90t18.5 -107v-6q-1 -43 -15 -86.5t-50 -83t-88 -58t-103 -18.5h-14q-51 0 -96.5 16t-80 47t-54 77.5t-19.5 104.5zM221 158q0 -51 16.5 -74t41.5 -23q14 0 23 11t9 23q1 79 3.5 102
t9.5 44l4 12q38 107 38 148q-1 29 -13.5 60t-32.5 46t-41 15q-8 0 -19.5 -5t-21 -17.5t-7.5 -23.5q13 -61 15 -75.5t3 -32.5t1 -35v-5q0 -29 -14.5 -85t-14.5 -85z" />
    <glyph glyph-name="p" unicode="p" horiz-adv-x="616" 
d="M30 -35q0 19 3 44t11.5 57.5t46 138t37.5 176.5q0 87 -47 129q-4 3 -13 8t-26 6.5t-19.5 4.5t-2.5 5q0 10 12 12h96q73 0 127 -67q55 39 80 50t48 11q40 0 79 -20.5t69 -65t47.5 -106t17.5 -128.5q0 -119 -47 -176.5t-132 -57.5q-23 0 -70 18t-70 41q4 -19 4 -48
q0 -43 -18 -81.5t-47 -54t-59 -15.5q-54 0 -90.5 31t-36.5 88zM270 147q0 -20 6 -38.5t18 -26.5t24 -8q14 0 26 6.5t16.5 20.5t7.5 38v4l7 64q3 22 18 72.5t15 81.5t-14.5 62.5t-36.5 46t-44 14.5q-12 0 -28.5 -7.5t-19.5 -19.5q22 -53 22 -144q0 -27 -8.5 -83.5t-8.5 -82.5
z" />
    <glyph glyph-name="q" unicode="q" horiz-adv-x="593" 
d="M292 -8l2 28q-24 -14 -46.5 -21.5t-52.5 -7.5q-61 0 -98 33.5t-62 96.5q-14 38 -14 105q0 51 9.5 101.5t28.5 85.5q25 45 80.5 84.5t109.5 39.5q14 0 27 -3q1 1 -23.5 17t-24.5 25t9 9q10 0 30.5 -11t24.5 -13q15 -5 32 -5l34 1q14 0 22 -2q27 -6 62 -42.5t61 -87
t34 -110.5q2 -18 4 -68t2 -80l-1 -42q0 -23 11 -70t11 -70q0 -44 -22.5 -73.5t-56.5 -40t-63 -10.5q-73 0 -101.5 30.5t-28.5 100.5zM238 126q0 -17 14 -32.5t30 -15.5q40 0 60.5 64t20.5 221q0 28 -9 66.5t-25.5 60.5t-38.5 22q-18 0 -33 -16t-23 -49.5t-8 -60.5
q0 -26 10 -87t10 -87q0 -13 -4 -43t-4 -43z" />
    <glyph glyph-name="r" unicode="r" horiz-adv-x="500" 
d="M151 -9q-46 0 -73.5 8.5t-42.5 28.5t-15 61q0 24 2 38q2 15 8 33.5t22.5 48.5t20.5 39q16 35 26.5 76t10.5 76q0 42 -9 66.5t-24 41.5q-6 7 -28.5 16t-22.5 19q0 1 0.5 2.5t10.5 1.5l17 -1h83q54 0 101 -63q28 23 68 40t75 17q28 0 57 -13t45.5 -38.5t16.5 -54.5
q0 -38 -11 -55.5t-29 -17.5q-11 0 -33.5 8.5t-33.5 8.5l-39 -5q-15 0 -25 8.5t-10 35.5l2 31q0 12 -9.5 24t-24.5 12q-5 0 -17.5 -6t-26.5 -19q11 -25 17.5 -57t6.5 -59q0 -21 -6 -67t-6 -69q0 -19 8.5 -58.5t8.5 -58.5q0 -37 -31.5 -68t-89.5 -31z" />
    <glyph glyph-name="s" unicode="s" horiz-adv-x="542" 
d="M22 117q-2 8 -2 23q0 28 15 43t36 15q11 0 27 -7q13 -7 28 -20t40.5 -46.5t38 -45.5t24.5 -20.5t27 -13t33 -4.5q27 0 47 15t20 42q0 23 -19 43.5t-43 27.5l-122 37q-30 9 -64 29.5t-54 46.5q-12 16 -18.5 41t-6.5 48q0 52 26 90.5t73 61t108 22.5q54 0 91 -13t55 -30
l35 -34q9 -10 22 -21.5t54 -30.5q4 -3 4 -12q-1 -14 -22 -25.5t-35 -11.5q-13 0 -27 4.5t-26.5 13.5t-21 18.5t-52.5 66.5t-94 57q-25 0 -43.5 -19.5t-18.5 -45.5q0 -22 17.5 -39t41.5 -26l179 -66q36 -13 74 -46.5t46 -66.5q7 -22 7 -49q0 -50 -25.5 -90t-67.5 -62t-98 -22
h-58q-98 0 -150.5 21.5t-80.5 61.5q-5 7 -12 19.5t-8 19.5z" />
    <glyph glyph-name="t" unicode="t" horiz-adv-x="339" 
d="M19 129q0 21 21.5 105.5t47.5 154.5q23 61 23 113v10l-92 1q-4 4 -4 11t5 14h93q0 17 -4.5 41t-11.5 40q-21 47 -35 70q-7 14 -7 21q0 6 6 6l33 1q18 0 34 -4q19 -6 40.5 -22t34.5 -40q21 -37 48 -113h77q6 -2 6 -10q0 -12 -6 -16h-72l2 -54l-3 -149q0 -73 10 -103
q16 -48 16 -90q0 -39 -14 -66.5t-39 -41.5t-65 -14h-27q-50 0 -67 12q-24 16 -37 47.5t-13 75.5z" />
    <glyph glyph-name="u" unicode="u" horiz-adv-x="590" 
d="M21 89l-1 19q0 5 1.5 17t32 97t39.5 111q14 42 14 79t-14 62.5t-30 35t-23 12.5q-3 1 -11.5 2.5t-8.5 8.5q0 4 3 7.5t8 3.5h125q15 0 49 -44q26 -37 44 -92t18 -149q0 -51 -6 -203q34 11 63.5 50.5t50.5 99.5t21 114q0 56 -13 103t-39.5 74t-66.5 27h-22q-13 0 -14 13
q0 9 30 9h17q99 0 118 -1q31 -1 61 -27t56 -68.5t37 -84.5q9 -37 9 -65q0 -18 -9 -106l-1 -13q0 -13 5.5 -36.5t5.5 -46.5v-6q0 -19 -4.5 -37t-10.5 -26q-14 -20 -40 -29.5t-82 -9.5h-9q-25 0 -46.5 5t-34.5 15t-29 40q-55 -37 -90 -48.5t-67 -11.5q-72 0 -102 23t-34 76z
" />
    <glyph glyph-name="v" unicode="v" horiz-adv-x="591" 
d="M11 531q-6 0 -6 6q0 7 7 7l86 2l41 1l40 -1q11 -1 29.5 -10.5t56.5 -52.5q62 -70 142 -221q35 123 42 210q1 11 -1.5 22t-11.5 19t-30 14t-21 12q0 7 6 7h187q8 0 8 -10q0 -3 -7 -5.5t-21 -4.5t-16 -2q-19 -5 -33 -24t-18 -37l-69 -336q-16 -75 -42 -102.5t-66 -27.5
q-39 0 -65 22.5t-36 61.5l-85 338q-7 27 -22.5 54t-41 42.5t-53.5 15.5z" />
    <glyph glyph-name="w" unicode="w" horiz-adv-x="876" 
d="M12 530q-7 0 -7 8q0 2 1.5 5t4.5 4h188q44 -22 86 -70.5t70.5 -100.5t45.5 -91l32 105q2 7 2 16q0 16 -20 53q-34 63 -70 63q-19 0 -32 3.5t-13 9.5q0 11 15 11l133 1l56 -1q16 0 36 -16.5t45.5 -52t52 -92.5t34.5 -93l30 103q10 34 10 60q0 70 -96 70q-9 0 -9 8
q0 5 4 9.5t10 4.5h220q30 0 30 -9q0 -11 -7 -11q-70 1 -100 -71q-21 -51 -32.5 -107.5t-22.5 -131.5t-16 -106q-6 -32 -20 -62t-34.5 -44.5t-42.5 -14.5q-45 0 -70 67q-10 29 -23.5 71.5t-23.5 86t-19 89t-12 45.5q-4 0 -20 -71q-15 -66 -32 -128q-16 -60 -37.5 -95
t-42.5 -51t-47 -16q-15 0 -31.5 7t-25.5 18q-33 39 -37 132q0 10 -1.5 95.5t-14.5 141.5t-48 95.5t-99 52.5z" />
    <glyph glyph-name="x" unicode="x" horiz-adv-x="579" 
d="M214 176q-56 -180 -152 -180q-19 0 -33.5 10t-14.5 45q0 13 12 33t64 65t66 63q8 10 14 32.5t6 51.5q0 67 -46 154q-12 23 -29 42.5t-34.5 27.5t-32.5 8l-10 -1h-4q-10 0 -10 7q0 4 4 8t10 4h171l12 -3l8 -3q27 -12 48.5 -28.5t51 -55.5t67.5 -106q12 0 27 42.5t15 60.5
q0 73 -74 73q-14 0 -16 9q0 11 10 11l220 -1q5 -5 5 -7q0 -3 -3 -6t-8 -3q-28 0 -48.5 -8.5t-32.5 -28.5t-16 -47q-16 -88 -50 -144q9 -21 34 -51.5t55.5 -63.5t38.5 -42q27 -37 27 -65q0 -42 -26 -64.5t-109 -22.5q-54 0 -84.5 9t-52 31.5t-40.5 54.5l-15 30q-2 5 -12 26
t-13 33z" />
    <glyph glyph-name="y" unicode="y" horiz-adv-x="576" 
d="M205 -149q-23 0 -51 10.5t-48.5 37t-20.5 57.5q0 18 5 34t18.5 26t41.5 24q11 5 20.5 25.5t14 56t4.5 70.5q0 52 -8 107t-23.5 96t-32.5 65q-15 22 -39 40t-49 26q-4 1 -16.5 3t-14 4t-1.5 3q0 9 5 9l89 1l54 -1q20 0 52.5 -23.5t70.5 -76.5t53 -96q34 62 42.5 84t8.5 43
t-14.5 34.5t-59.5 20.5q-6 0 -6 6q0 8 15 8h248q1 0 4.5 -1.5t3.5 -5.5q0 -3 -3 -6t-8 -3l-11 1q-20 0 -45.5 -11.5t-50 -39.5t-44.5 -64q-39 -69 -50 -106t-11 -72q0 -32 13.5 -98t13.5 -97q0 -45 -21.5 -91.5t-62.5 -73t-86 -26.5z" />
    <glyph glyph-name="z" unicode="z" horiz-adv-x="540" 
d="M227 24q-42 -29 -75 -29q-52 1 -82.5 23t-40 52t-9.5 54q0 34 12.5 68t31.5 53q27 35 111 81q12 7 71 36.5t93 56.5q21 18 21 47q0 23 -15 40.5t-40 17.5q-24 0 -48.5 -14.5t-42.5 -31.5q-9 -7 -33 -27t-57.5 -53.5t-38.5 -37.5q-32 -30 -45 -30t-13 27l1 15q1 8 17 70.5
t16 73.5l-1 17q0 12 14 12l139 1l261 -1q19 0 30.5 -25t11.5 -74q0 -19 -10.5 -48.5t-34.5 -63.5t-49 -52q-85 -62 -133 -109t-48 -70q0 -18 10.5 -27.5t28.5 -9.5q13 0 27 10t22 22l74 120q8 13 25.5 28.5t32.5 15.5q32 0 45.5 -17t13.5 -49l-7 -59l7 -77
q0 -22 -11.5 -39.5t-40.5 -25.5t-66 -8l-80 3q-10 1 -26 4.5t-26 7.5q-1 0 -19.5 11t-23.5 11z" />
    <glyph glyph-name="braceleft" unicode="{" horiz-adv-x="342" 
d="M322 673q-67 0 -101 -29t-36 -100v-7q0 -8 2.5 -40t2.5 -49q0 -73 -35 -103q34 -28 34 -103l-4 -82v-9q1 -74 35 -103.5t102 -29.5v-5q-16 -14 -35 -22t-35 -8q-41 0 -68 38.5t-27 103.5v21l1 50q0 70 -31.5 104.5t-96.5 39.5v11q62 4 95 36.5t33 126.5l-1 30v22
q0 47 16 82t38.5 48t40.5 13q16 0 34.5 -8t34.5 -23z" />
    <glyph glyph-name="bar" unicode="|" horiz-adv-x="139" 
d="M50 -59v802q0 5 6 11t15 6q7 0 12.5 -4.5t5.5 -11.5v-801q-1 -4 -5.5 -11.5t-11.5 -7.5q-8 0 -15 5t-7 12z" />
    <glyph glyph-name="braceright" unicode="}" horiz-adv-x="342" 
d="M30 673l1 5q16 15 34.5 23t34.5 8q18 0 40.5 -13t38.5 -48t16 -82v-22l-1 -30q0 -94 33 -126.5t95 -36.5v-11q-65 -5 -96.5 -39.5t-31.5 -104.5l1 -50v-21q0 -47 -16 -82t-38 -47.5t-41 -12.5q-16 0 -35 8t-35 22v5q68 0 102 29.5t35 103.5v9l-4 82q0 75 34 103
q-35 30 -35 103q0 17 2.5 49t2.5 40v7q-2 71 -36 100t-101 29z" />
    <glyph glyph-name="asciitilde" unicode="~" horiz-adv-x="500" 
d="M105 226l-8 -4q-58 33 -58 90q0 27 15 50.5t36.5 33.5t40.5 10q35 0 102 -24t103 -24q17 0 40 7t39 22.5t22 32.5l7 1q16 -29 16 -67q0 -99 -90 -99q-39 0 -116.5 22t-93.5 24h-10q-22 0 -36 -13t-14 -36q0 -9 5 -26z" />
    <glyph glyph-name="exclamdown" unicode="&#xa1;" horiz-adv-x="397" 
d="M330 623q0 -21 -12 -47t-40.5 -46t-58.5 -20q-27 0 -56 13t-46.5 38t-17.5 54q0 19 10 43.5t36.5 44t60.5 19.5h8q52 -3 82 -26t34 -73zM213 -11q-181 0 -181 125q0 31 14.5 71.5t77.5 114t81 101.5q11 17 11 44l-4 43q0 8 9 12t19 4q24 0 63 -158q4 -15 9.5 -32.5
t12 -31t24.5 -46t18 -84.5l-2 -40q-5 -66 -42.5 -94.5t-109.5 -28.5z" />
    <glyph glyph-name="cent" unicode="&#xa2;" horiz-adv-x="566" 
d="M253 -59v125h-1q-109 0 -170.5 67t-61.5 178q0 95 49.5 169t141.5 113q25 10 42 13v137q0 5 6 11t15 6q7 0 12.5 -4.5t5.5 -11.5v-131l28 1q29 0 66.5 -9.5t65.5 -38.5t31 -77q0 -24 -8 -34q-9 -11 -26.5 -18l-22.5 -9q-12 -6 -28 -26.5t-26.5 -27.5t-23.5 -7
q-12 0 -23 11t-11 23q0 17 6.5 45t7.5 34l2 22q0 27 -10 50.5t-28 30.5v-413q28 -17 62 -17q33 0 75 30q55 39 78 108.5t23 149.5q12 0 14 -10q2 -9 2 -44q0 -50 -14 -103t-46 -97.5t-81.5 -76.5t-112.5 -41v-126q-1 -4 -5.5 -11.5t-11.5 -7.5q-8 0 -15 5t-7 12zM188 418
q0 -52 16.5 -113t48.5 -101v373l-13 -8q-24 -18 -38 -51.5t-14 -99.5z" />
    <glyph glyph-name="sterling" unicode="&#xa3;" horiz-adv-x="638" 
d="M56 434h58l-9 16q-17 29 -17 87q0 52 22.5 93t57.5 63t79 22h166q41 0 88 -29t75.5 -79.5t28.5 -99.5q0 -29 -8.5 -42t-20.5 -13q-42 0 -101 81q-3 4 -8.5 12t-38 59.5t-64.5 75t-65 23.5q-31 0 -51.5 -18.5t-20.5 -46.5q0 -44 11 -92.5t45 -112.5h140q7 0 12 -6.5
t5 -14.5q0 -5 -4.5 -11t-11.5 -6h-120l27 -52h62q7 0 12 -6.5t5 -14.5q0 -5 -4.5 -11t-11.5 -6h-45q32 -77 35 -156q4 -1 20 -10t22 -10q5 8 18 30.5t21 36t19.5 29t27 30t36.5 24t49 9.5q11 0 11 -9v-278q0 -2 -1.5 -4.5t-3.5 -2.5q-7 0 -15 8q-79 63 -157 63
q-50 0 -99 -28q-89 -52 -168 -52q-47 0 -84 19t-53.5 52.5t-16.5 66.5q0 30 13.5 54t47.5 41t97 17l-12 70h-78q-7 1 -13 6t-6 12q0 13 17 21h70l-16 51h-72q-7 1 -13 6t-6 12q0 13 17 21zM74 130q0 -17 12 -31t38 -14q23 0 36.5 15t13.5 60q0 11 -4 16t-26 7h-7
q-15 0 -30 -6.5t-24 -20t-9 -26.5z" />
    <glyph glyph-name="yen" unicode="&#xa5;" horiz-adv-x="777" 
d="M160 423h57q-12 48 -33.5 95.5t-45 79.5t-43.5 50q-2 2 -24.5 17t-32 24t-9.5 15q0 13 7 13h238q2 0 9.5 -3.5t37 -31.5t81 -97.5t76.5 -125.5q19 13 46.5 46.5t55.5 79.5t28 62q0 25 -16.5 38t-48 15t-36 3.5t-4.5 4.5q0 9 4 9h230q12 0 12 -7q-1 -6 -9 -9q-2 -1 -22 -7
t-39.5 -19.5t-31.5 -38.5l-100 -214h54q7 0 12 -6.5t5 -14.5q0 -5 -4.5 -11t-11.5 -6h-73l-22 -47l-2 -5h66q7 0 12 -6.5t5 -14.5q0 -5 -4.5 -11t-11.5 -6h-78q-2 -11 -2 -32q0 -49 27 -116q3 -8 11.5 -27t13.5 -34.5t5 -34.5q0 -10 -8 -24t-25.5 -25.5t-33.5 -11.5h-201
q-4 0 -21 4t-20 6q-22 10 -37 30.5t-15 63.5q0 21 4 41t11 44t10 34q13 56 16 82h-47q-7 1 -13 6t-6 12q0 13 17 21h50l-6 51h-62q-7 1 -13 6t-6 12q0 13 17 21z" />
    <glyph glyph-name="brokenbar" unicode="&#xa6;" horiz-adv-x="139" 
d="M50 401v312q0 5 6 11t15 6q7 0 12.5 -4.5t5.5 -11.5v-311q-1 -4 -5.5 -11.5t-11.5 -7.5q-8 0 -15 5t-7 12zM50 -29v312q0 5 6 11t15 6q7 0 12.5 -4.5t5.5 -11.5v-311q-1 -4 -5.5 -11.5t-11.5 -7.5q-8 0 -15 5t-7 12z" />
    <glyph glyph-name="section" unicode="&#xa7;" horiz-adv-x="515" 
d="M20 286q0 22 8.5 47.5t28.5 49.5t52 41.5t72 17.5h8q-100 53 -134.5 93.5t-34.5 100.5q0 22 8.5 47.5t28.5 49.5t52 41.5t72 17.5h85q30 0 54.5 -11t52.5 -30.5t40 -26.5l29 -12q4 -1 13 -2t12 -4.5t3 -13.5q0 -23 -15 -41t-34 -25t-34 -7q-22 0 -48 15t-49 53
q-4 6 -19.5 35.5t-32.5 44t-48 14.5q-27 0 -44.5 -16.5t-17.5 -44.5q0 -16 13 -34.5t43 -35.5l190 -102q63 -34 92 -80t29 -93q0 -43 -19 -76q-18 -31 -53 -53t-83 -30l34 -18q63 -34 92 -80t29 -93q0 -43 -19 -76q-22 -38 -69.5 -62t-115.5 -24q-101 0 -153 17.5t-81 54.5
q-31 41 -31 80q0 26 17 46t43 20q24 0 49 -19t44 -65q25 -72 46 -93.5t37.5 -26t28.5 -4.5q27 0 47 17t20 45q0 30 -18 55.5t-46 42.5q-10 6 -29.5 17.5t-103 56.5t-112.5 86t-29 93zM128 370q0 -16 13 -34.5t43 -35.5l134 -72q18 7 29 21.5t11 35.5q0 30 -18 55.5t-46 42.5
l-81 45q-12 3 -23 3q-27 0 -44.5 -16.5t-17.5 -44.5z" />
    <glyph glyph-name="dieresis" unicode="&#xa8;" horiz-adv-x="353" 
d="M220 640q0 23 18.5 41.5t40.5 18.5q24 0 44 -16t20 -40q0 -22 -16 -39.5t-41 -17.5h-4q-58 3 -62 53zM20 640q0 23 18.5 41.5t40.5 18.5q24 0 44 -16t20 -40q0 -22 -16 -39.5t-41 -17.5h-4q-58 3 -62 53z" />
    <glyph glyph-name="copyright" unicode="&#xa9;" 
d="M449 -5q-37 -4 -79 -4q-44 0 -94 7.5t-92.5 28t-71.5 51t-51 80.5t-29 136v12q0 75 27.5 148t69.5 123t86.5 79.5t87 40.5t75.5 11h6q110 0 190 -51.5t127 -148.5q21 -44 31 -91t10 -89q0 -61 -20 -119t-58.5 -104t-93.5 -75t-121 -35zM661 372q0 65 -22.5 119t-61.5 91
t-88.5 56t-100.5 19q-45 0 -88 -16.5t-77 -41.5t-60.5 -61.5t-42.5 -85.5t-16 -106v-15q0 -55 18.5 -101.5t54 -79.5t86 -50.5t111.5 -17.5h4q49 1 98.5 18t91 52.5t67 91.5t26.5 128zM190 349q0 50 20.5 94t53.5 70.5t64 39.5q37 15 79 15q33 0 61.5 -12t41.5 -33t14 -45
q0 -18 -5 -25q-1 -2 -4.5 -5t-16 -8t-14.5 -6q-8 -4 -24.5 -24.5t-32.5 -20.5q-9 0 -16.5 8t-7.5 17q0 12 4 32l5 25l2 16q0 23 -8.5 38t-24.5 15q-12 0 -28 -10q-42 -32 -42 -103q0 -44 13.5 -85.5t29 -62.5t35 -32.5t42.5 -11.5q16 0 38 8.5t42.5 36t33.5 72t14 91.5
q4 0 10.5 -3t7.5 -6q3 -19 3 -39q0 -43 -14 -83t-40 -71t-64.5 -50.5t-84.5 -22.5q-80 0 -133.5 51.5t-53.5 129.5z" />
    <glyph glyph-name="guillemotleft" unicode="&#xab;" horiz-adv-x="380" 
d="M190 430q-43 -50 -88 -110q39 -28 70.5 -70t31.5 -65q0 -10 -3 -30t-7 -21q-32 42 -83 73t-61 39.5t-15 20.5t-5 23q0 25 12 52q19 7 35 16t32 24t38.5 38t35.5 36q9 7 14 7q2 0 4.5 -2.5t2.5 -4.5q0 -11 -14 -26zM330 430q-43 -50 -88 -110q51 -12 69.5 -19.5
t25.5 -20.5t9 -28.5t4 -41.5v-15q0 -25 -4.5 -43t-11.5 -18q-28 38 -76 78t-59.5 53t-16.5 25.5t-5 23.5q0 16 5 28q32 37 59 51.5t44 28t38 34.5q9 7 14 7q2 0 4.5 -2.5t2.5 -4.5q0 -11 -14 -26z" />
    <glyph glyph-name="registered" unicode="&#xae;" horiz-adv-x="391" 
d="M228 373q-13 -2 -37 -2q-73 0 -113 33t-46 109v6q0 45 19.5 91t57 72t78.5 26q52 0 95.5 -25t64.5 -69q19 -39 19 -85q0 -43 -21.5 -81.5t-53.5 -55t-63 -19.5zM328 550q0 30 -15 61t-51.5 52t-73.5 21q-20 0 -48.5 -12t-51 -46.5t-22.5 -87.5v-7q0 -53 34.5 -85
t94.5 -32q36 0 69.5 19t48 51t15.5 66zM108 483q-4 8 -4 20q0 17 15 51.5t15 51.5q0 15 -10.5 25.5t-10.5 13.5l4 2h103q31 -3 47 -19.5t16 -37.5q0 -7 -4.5 -14t-33.5 -19q37 -17 38 -41q0 -12 8 -18q6 -7 6 -16q0 -8 -7.5 -12.5t-29.5 -4.5l-31 3q-9 1 -14.5 11t-5.5 21
l3 30q0 10 -8 18t-19 8q-4 -10 -4 -30l6 -43q0 -10 -3.5 -14t-29.5 -4h-14l-13 1q-2 0 -8.5 3.5t-10.5 13.5zM187 568l13 -2q11 0 14 12l2 14q0 13 -7.5 25t-20.5 12l-8 -1q2 -2 5 -13.5t3 -15.5z" />
    <glyph glyph-name="macron" unicode="&#xaf;" horiz-adv-x="394" 
d="M318 672q33 0 44.5 -8.5t11.5 -23.5v-12q0 -17 -12.5 -25.5t-46.5 -8.5h-238q-34 0 -45.5 8t-11.5 25v17q0 13 10 20.5t37 7.5h251z" />
    <glyph glyph-name="degree" unicode="&#xb0;" horiz-adv-x="250" 
d="M20 588q0 50 27.5 79t78.5 29q22 0 46.5 -10.5t41 -37.5t16.5 -60q0 -22 -10.5 -46t-37 -38.5t-60.5 -14.5q-32 0 -57 14t-35 38t-10 47zM124 661q-20 0 -33 -16t-13 -41v-7q1 -20 9.5 -34t19 -18.5t17.5 -4.5q18 0 30 16t12 51q0 20 -11.5 37t-30.5 17z" />
    <glyph glyph-name="acute" unicode="&#xb4;" horiz-adv-x="255" 
d="M172 727q23 -5 43 -19.5t20 -32.5l-1 -8q-4 -17 -13 -27.5t-22.5 -15t-62 -8t-75.5 -21.5q-3 -2 -16 -14.5t-19 -12.5l-5 4l-1 6q3 11 42 57q64 93 98 93z" />
    <glyph glyph-name="periodcentered" unicode="&#xb7;" horiz-adv-x="290" 
d="M155 465q44 0 79.5 -28.5t35.5 -73.5v-60q0 -25 -13 -48.5t-45 -37.5t-65 -14t-62.5 11t-47 32t-17.5 54v70q0 31 18.5 52t50 32t66.5 11z" />
    <glyph glyph-name="cedilla" unicode="&#xb8;" horiz-adv-x="241" 
d="M105 -92q-6 35 -6 68q0 24 4 40h28q-3 -10 -3 -23q0 -15 3 -29q51 -14 70.5 -32t19.5 -42q0 -20 -11 -37.5t-29.5 -25t-35.5 -7.5q-48 0 -75 6.5t-41 26.5q-9 9 -9 25q0 10 6.5 16t15.5 6l9 -1q11 -6 32.5 -33.5t44.5 -27.5q10 0 18.5 6.5t8.5 16.5q0 13 -11.5 27.5
t-38.5 19.5z" />
    <glyph glyph-name="guillemotright" unicode="&#xbb;" horiz-adv-x="380" 
d="M190 430q-14 15 -14 26q0 2 2.5 4.5t4.5 2.5q5 0 14 -7l10 -10t33 -33.5t38.5 -37.5t24.5 -17.5t21.5 -10.5t13.5 -5q12 -27 12 -52q0 -11 -5 -23t-15 -20.5t-61 -39.5t-83 -73q-3 0 -6.5 18t-3.5 33q0 23 31.5 65t70.5 70q-45 60 -88 110zM50 430q-14 15 -14 26
q0 2 2.5 4.5t4.5 2.5q5 0 14 -7q40 -40 70.5 -56.5t45 -31t25.5 -26.5q5 -12 5 -28q0 -11 -5 -23.5t-16.5 -25.5t-59.5 -53t-76 -78q-5 0 -10.5 14t-5.5 47v15q3 51 10.5 65.5t22.5 22.5t75 22q-45 60 -88 110z" />
    <glyph glyph-name="questiondown" unicode="&#xbf;" horiz-adv-x="596" 
d="M292 329q-20 -17 -31 -49t-11 -68q0 -54 24 -95t66 -41q14 0 25.5 8.5t11.5 23.5q0 6 -15 38.5t-15 54.5q0 26 19.5 50t43.5 34t40 10q57 0 86.5 -30.5t29.5 -77.5q0 -41 -24 -89.5t-68.5 -78t-91.5 -29.5h-167q-56 0 -96.5 22t-64.5 62.5t-24 95.5q0 47 25.5 102
t73.5 89t100 34q36 0 70 -14q7 13 7 33l-5 64q0 8 9 12t19 4q4 0 16 -17.5t26 -50.5t14 -58q0 -21 -12 -33.5t-37 -12.5q-19 0 -44 7zM436 619q0 -21 -12 -47t-40.5 -46t-58.5 -20q-27 0 -56 13t-46.5 38t-17.5 54q0 19 10 43.5t36.5 44t60.5 19.5h8q52 -3 82 -26t34 -73z
" />
    <glyph glyph-name="Agrave" unicode="&#xc0;" horiz-adv-x="803" 
d="M20 50q0 37 18.5 81.5t78.5 128t79.5 114t33.5 56.5t24.5 49.5t16.5 41.5q2 5 9 23.5t11 35t4 32.5v13q-2 30 -14 51t-29 23l-20 1q-7 1 -7 9q0 5 10 6l51 1h84q36 0 60 -3t41 -10t35.5 -26t53.5 -104q19 -45 55 -165t65.5 -175t56.5 -91q2 -2 24 -29.5t22 -62.5
q0 -58 -57 -58h-213q-49 0 -82 48.5t-50 154.5l-36 1l-70 -1q-40 0 -67 -7.5t-41.5 -25.5t-14.5 -49l3 -70q0 -24 -10 -38.5t-31 -14.5q-55 0 -70.5 7.5t-19.5 22t-4 30.5zM184 250l96 -1q78 0 95 3v21q0 37 -7.5 97t-24 120t-32.5 80q-12 -48 -23 -76.5t-44 -104.5
t-60 -139zM233 908l13 2q36 0 69 -47.5t37 -51.5q41 -48 44 -63v-6l-6 -4q-7 0 -20 13t-18 16q-12 8 -30.5 14.5t-52.5 9t-46.5 4t-23.5 7t-19.5 15t-12.5 28.5l-1 7q0 15 17 32t50 24z" />
    <glyph glyph-name="Aacute" unicode="&#xc1;" horiz-adv-x="803" 
d="M20 50q0 37 18.5 81.5t78.5 128t79.5 114t33.5 56.5t24.5 49.5t16.5 41.5q2 5 9 23.5t11 35t4 32.5v13q-2 30 -14 51t-29 23l-20 1q-7 1 -7 9q0 5 10 6l51 1h84q36 0 60 -3t41 -10t35.5 -26t53.5 -104q19 -45 55 -165t65.5 -175t56.5 -91q2 -2 24 -29.5t22 -62.5
q0 -58 -57 -58h-213q-49 0 -82 48.5t-50 154.5l-36 1l-70 -1q-40 0 -67 -7.5t-41.5 -25.5t-14.5 -49l3 -70q0 -24 -10 -38.5t-31 -14.5q-55 0 -70.5 7.5t-19.5 22t-4 30.5zM184 250l96 -1q78 0 95 3v21q0 37 -7.5 97t-24 120t-32.5 80q-12 -48 -23 -76.5t-44 -104.5
t-60 -139zM432 897q23 -5 43 -19.5t20 -32.5l-1 -8q-4 -17 -13 -27.5t-22.5 -15t-62 -8t-75.5 -21.5q-3 -2 -16 -14.5t-19 -12.5l-5 4l-1 6q3 11 42 57q64 93 98 93z" />
    <glyph glyph-name="Acircumflex" unicode="&#xc2;" horiz-adv-x="812" 
d="M20 50q0 37 18.5 81.5t78.5 128t79.5 114t33.5 56.5t24.5 49.5t16.5 41.5q2 5 9 23.5t11 35t4 32.5v13q-2 30 -14 51t-29 23l-20 1q-7 1 -7 9q0 5 10 6l51 1h84q36 0 60 -3t41 -10t35.5 -26t53.5 -104q19 -45 55 -165t65.5 -175t56.5 -91q2 -2 24 -29.5t22 -62.5
q0 -58 -57 -58h-213q-49 0 -82 48.5t-50 154.5l-36 1l-70 -1q-40 0 -67 -7.5t-41.5 -25.5t-14.5 -49l3 -70q0 -24 -10 -38.5t-31 -14.5q-55 0 -70.5 7.5t-19.5 22t-4 30.5zM184 250l96 -1q78 0 95 3v21q0 37 -7.5 97t-24 120t-32.5 80q-12 -48 -23 -76.5t-44 -104.5
t-60 -139zM257 777q-13 -12 -21 -12q-6 0 -6 6t6 12q11 11 34 33.5t36.5 38t24.5 45.5q21 10 43 10q10 0 19.5 -4t18 -14t22.5 -34t25 -39t23 -26t22 -19q0 -5 -14.5 -9.5t-48.5 -4.5q-29 0 -53 4t-25 10q-3 16 -5.5 33.5t-8.5 42.5q-49 -37 -92 -73z" />
    <glyph glyph-name="Atilde" unicode="&#xc3;" horiz-adv-x="803" 
d="M20 50q0 37 18.5 81.5t78.5 128t79.5 114t33.5 56.5t24.5 49.5t16.5 41.5q2 5 9 23.5t11 35t4 32.5v13q-2 30 -14 51t-29 23l-20 1q-7 1 -7 9q0 5 10 6l51 1h84q36 0 60 -3t41 -10t35.5 -26t53.5 -104q19 -45 55 -165t65.5 -175t56.5 -91q2 -2 24 -29.5t22 -62.5
q0 -58 -57 -58h-213q-49 0 -82 48.5t-50 154.5l-36 1l-70 -1q-40 0 -67 -7.5t-41.5 -25.5t-14.5 -49l3 -70q0 -24 -10 -38.5t-31 -14.5q-55 0 -70.5 7.5t-19.5 22t-4 30.5zM184 250l96 -1q78 0 95 3v21q0 37 -7.5 97t-24 120t-32.5 80q-12 -48 -23 -76.5t-44 -104.5
t-60 -139zM252 740l-6 -4q-40 23 -40 63q0 25 18.5 44.5t45.5 19.5q24 0 70.5 -16.5t70.5 -16.5q26 0 45 12.5t25 30.5l4 1q12 -19 12 -47q0 -68 -63 -68q-6 0 -24.5 2t-62.5 15t-58 15h-6q-16 0 -25.5 -9t-9.5 -24q0 -6 4 -18z" />
    <glyph glyph-name="Adieresis" unicode="&#xc4;" horiz-adv-x="803" 
d="M20 50q0 37 18.5 81.5t78.5 128t79.5 114t33.5 56.5t24.5 49.5t16.5 41.5q2 5 9 23.5t11 35t4 32.5v13q-2 30 -14 51t-29 23l-20 1q-7 1 -7 9q0 5 10 6l51 1h84q36 0 60 -3t41 -10t35.5 -26t53.5 -104q19 -45 55 -165t65.5 -175t56.5 -91q2 -2 24 -29.5t22 -62.5
q0 -58 -57 -58h-213q-49 0 -82 48.5t-50 154.5l-36 1l-70 -1q-40 0 -67 -7.5t-41.5 -25.5t-14.5 -49l3 -70q0 -24 -10 -38.5t-31 -14.5q-55 0 -70.5 7.5t-19.5 22t-4 30.5zM184 250l96 -1q78 0 95 3v21q0 37 -7.5 97t-24 120t-32.5 80q-12 -48 -23 -76.5t-44 -104.5
t-60 -139zM410 810q0 23 18.5 41.5t40.5 18.5q24 0 44 -16t20 -40q0 -22 -16 -39.5t-41 -17.5h-4q-58 3 -62 53zM210 810q0 23 18.5 41.5t40.5 18.5q24 0 44 -16t20 -40q0 -22 -16 -39.5t-41 -17.5h-4q-58 3 -62 53z" />
    <glyph glyph-name="Aring" unicode="&#xc5;" horiz-adv-x="803" 
d="M20 50q0 37 18.5 81.5t78.5 128t79.5 114t33.5 56.5t24.5 49.5t16.5 41.5q2 5 9 23.5t11 35t4 32.5v13q-2 30 -14 51t-29 23l-20 1q-7 1 -7 9q0 5 10 6l51 1h84q36 0 60 -3t41 -10t35.5 -26t53.5 -104q19 -45 55 -165t65.5 -175t56.5 -91q2 -2 24 -29.5t22 -62.5
q0 -58 -57 -58h-213q-49 0 -82 48.5t-50 154.5l-36 1l-70 -1q-40 0 -67 -7.5t-41.5 -25.5t-14.5 -49l3 -70q0 -24 -10 -38.5t-31 -14.5q-55 0 -70.5 7.5t-19.5 22t-4 30.5zM184 250l96 -1q78 0 95 3v21q0 37 -7.5 97t-24 120t-32.5 80q-12 -48 -23 -76.5t-44 -104.5
t-60 -139zM284 801q0 35 19.5 55.5t55.5 20.5q32 0 52.5 -22t20.5 -54q0 -33 -22 -51.5t-54 -18.5q-31 0 -51.5 18.5t-20.5 51.5zM357 852q-14 0 -23 -11t-9 -29v-5q1 -19 10.5 -29.5t21.5 -10.5q30 0 30 47q0 13 -8 25.5t-22 12.5z" />
    <glyph glyph-name="AE" unicode="&#xc6;" horiz-adv-x="1104" 
d="M406 94q-4 29 -4 63l1 38l-35 1l-70 -1q-40 0 -68.5 -7.5t-47 -25.5t-24.5 -49l-11 -70q-12 -53 -52 -53q-48 0 -63.5 5t-18.5 16t-3 16l3 23q8 37 35 81.5t104.5 127.5t103 114t45 57t34.5 49.5t25 41.5q31 55 36 68.5t7 22.5l2 13l2 22q0 21 -8 35.5t-22 16.5l-19 1
q-6 1 -6 9q2 5 12 6l51 1l471 4q27 0 50.5 -11t41.5 -37.5t31 -65.5l4 -22l1 -22l-3 -70l1 -23q1 -10 8 -32.5t7 -33.5q0 -4 -9 -9q-17 0 -55 25q-58 38 -98 128q-32 70 -87 110.5t-116 40.5q-13 0 -25 -3q63 -72 75 -177q2 -17 3.5 -51.5t2.5 -48.5q0 -2 11 -4t24 -2
q45 1 45 47l-1 13q-2 19 -10.5 37.5t-36.5 49.5l-2 7q0 7 4.5 12.5t10.5 5.5l3 -1q25 -9 44.5 -49t23.5 -76l1 -15l-4 -41v-6q2 -16 10 -55.5t10 -51.5v-8q0 -23 -11.5 -42.5t-31.5 -20.5q-6 0 -11.5 3t-6.5 9q0 5 4 18t4 19q-3 29 -28.5 54t-55.5 27l-1 -34q0 -36 4 -68
q5 -44 22.5 -81.5t45 -60.5t64.5 -27l-2 30q0 54 23.5 98t64.5 74q29 20 72 20q19 0 35.5 -16.5t20.5 -49.5l1 -17l-4 -66q0 -17 11 -49.5t12 -49.5l1 -9q0 -25 -18 -38.5t-48 -13.5l-116 -1l-57 1q-15 0 -35 6t-66 39q-21 -25 -42.5 -35.5t-38.5 -10.5h-193q-14 0 -28 14
t-24 41.5t-12 49.5zM218 250l96 -1q78 0 95 3l4 21l3 15t15.5 67t19 98.5t5.5 70.5q0 55 -16 86q-11 -28 -23.5 -56.5t-26.5 -52t-68.5 -98t-103.5 -153.5z" />
    <glyph glyph-name="Ccedilla" unicode="&#xc7;" horiz-adv-x="727" 
d="M348 -92q-6 35 -6 68v15q-44 2 -90 14.5t-87 37t-71.5 61t-43.5 81.5q-20 72 -20 136q0 34 7.5 72t20.5 69q31 73 80.5 129.5t107.5 89t122 36.5l18 1q58 0 118.5 -23t96 -55.5t51.5 -63.5q23 -42 23 -72q0 -19 -9 -39q-5 -10 -16 -16t-37.5 -11.5t-34.5 -9.5
q-7 -4 -18 -16.5t-17.5 -16.5t-12 -5.5t-10.5 -1.5q-35 0 -50 50q-2 7 -5 25.5t-3 33.5q0 18 6.5 55.5t6.5 55.5q0 25 -7 43q-8 17 -27 30.5t-37 13.5q-27 0 -44.5 -17.5t-23 -40t-5.5 -40.5q0 -29 4 -49q1 -6 5 -29t7 -36l1 -5q13 -52 13 -84q0 -34 -9 -92t-9 -82
q0 -21 4 -40q16 -86 102 -86h6q45 1 86 21.5t72.5 56.5t49 84.5t17.5 101.5l-1 29q0 10 9 10q2 0 5 -4t3 -14v-14q0 -81 -24 -149.5t-68 -117t-104 -76t-129 -30.5q0 -14 3 -28q51 -14 70.5 -32t19.5 -42q0 -20 -11 -37.5t-29.5 -25t-35.5 -7.5q-48 0 -75 6.5t-41 26.5
q-9 9 -9 25q0 10 6.5 16t15.5 6l9 -1q11 -6 32.5 -33.5t44.5 -27.5q10 0 18.5 6.5t8.5 16.5q0 13 -11.5 27.5t-38.5 19.5z" />
    <glyph glyph-name="Egrave" unicode="&#xc8;" horiz-adv-x="740" 
d="M34 97q0 28 3.5 63t14.5 76.5t35 101.5t32.5 83.5t14 45t9.5 48.5t4 60q0 25 -6 52t-19 45q-4 8 -10.5 13.5t-16.5 11t-10 9.5q0 11 48 11h220l230 1q26 0 49 -11t38 -38t23 -66l2 -22q0 -19 -7 -58t-7 -57q0 -11 4 -33t4 -32t-9 -10t-26.5 9.5t-26.5 16.5
q-55 38 -84 129q-11 33 -35.5 69t-65.5 59.5t-85 23.5l-40 -2q55 -75 55 -178l-5 -100q0 -2 15.5 -4t33.5 -2q26 0 38.5 16.5t12.5 42.5q0 19 -6.5 37.5t-31.5 50.5l-1 5q0 8 5.5 14t11.5 6l3 -1q12 -5 25 -22.5t21 -48.5t8 -55q0 -16 -5 -35.5t-5 -26.5q0 -14 4 -53.5
t4 -53.5q0 -23 -14 -46.5t-36 -23.5q-6 0 -11.5 2.5t-5.5 7.5q0 6 6 19.5t6 19.5q0 13 -10 31t-33.5 33t-46.5 17q-8 -40 -8 -102q0 -44 13.5 -81.5t38 -60.5t61.5 -28q0 31 12 68t42 72.5t69 60.5q15 9 35 14.5t37 5.5q20 0 35.5 -16.5t15.5 -50.5q0 -16 -6.5 -50t-6.5 -50
v-5l1 -4q12 -41 12 -73q0 -29 -20 -44.5t-52 -15.5h-171q-8 0 -18 1.5t-22 6.5t-23 12.5t-22 16t-13 10.5q-16 -17 -39 -31.5t-47 -14.5l-110 -1q-43 0 -69 9t-46 40t-20 60zM305 908l13 2q36 0 69 -47.5t37 -51.5q41 -48 44 -63v-6l-6 -4q-7 0 -20 13t-18 16
q-12 8 -30.5 14.5t-52.5 9t-46.5 4t-23.5 7t-19.5 15t-12.5 28.5l-1 7q0 15 17 32t50 24z" />
    <glyph glyph-name="Eacute" unicode="&#xc9;" horiz-adv-x="740" 
d="M34 97q0 28 3.5 63t14.5 76.5t35 101.5t32.5 83.5t14 45t9.5 48.5t4 60q0 25 -6 52t-19 45q-4 8 -10.5 13.5t-16.5 11t-10 9.5q0 11 48 11h220l230 1q26 0 49 -11t38 -38t23 -66l2 -22q0 -19 -7 -58t-7 -57q0 -11 4 -33t4 -32t-9 -10t-26.5 9.5t-26.5 16.5
q-55 38 -84 129q-11 33 -35.5 69t-65.5 59.5t-85 23.5l-40 -2q55 -75 55 -178l-5 -100q0 -2 15.5 -4t33.5 -2q26 0 38.5 16.5t12.5 42.5q0 19 -6.5 37.5t-31.5 50.5l-1 5q0 8 5.5 14t11.5 6l3 -1q12 -5 25 -22.5t21 -48.5t8 -55q0 -16 -5 -35.5t-5 -26.5q0 -14 4 -53.5
t4 -53.5q0 -23 -14 -46.5t-36 -23.5q-6 0 -11.5 2.5t-5.5 7.5q0 6 6 19.5t6 19.5q0 13 -10 31t-33.5 33t-46.5 17q-8 -40 -8 -102q0 -44 13.5 -81.5t38 -60.5t61.5 -28q0 31 12 68t42 72.5t69 60.5q15 9 35 14.5t37 5.5q20 0 35.5 -16.5t15.5 -50.5q0 -16 -6.5 -50t-6.5 -50
v-5l1 -4q12 -41 12 -73q0 -29 -20 -44.5t-52 -15.5h-171q-8 0 -18 1.5t-22 6.5t-23 12.5t-22 16t-13 10.5q-16 -17 -39 -31.5t-47 -14.5l-110 -1q-43 0 -69 9t-46 40t-20 60zM453 899q23 -5 43 -19.5t20 -32.5l-1 -8q-4 -17 -13 -27.5t-22.5 -15t-62 -8t-75.5 -21.5
q-3 -2 -16 -14.5t-19 -12.5l-5 4l-1 6q3 11 42 57q64 93 98 93z" />
    <glyph glyph-name="Ecircumflex" unicode="&#xca;" horiz-adv-x="712" 
d="M20 97q0 28 3.5 63t14.5 76.5t35 101.5t32.5 83.5t14 45t9.5 48.5t4 60q0 25 -6 52t-19 45q-4 8 -10.5 13.5t-16.5 11t-10 9.5q0 11 48 11h220l230 1q26 0 49 -11t38 -38t23 -66l2 -22q0 -19 -7 -58t-7 -57q0 -11 4 -33t4 -32t-9 -10t-26.5 9.5t-26.5 16.5
q-55 38 -84 129q-11 33 -35.5 69t-65.5 59.5t-85 23.5l-40 -2q55 -75 55 -178l-5 -100q0 -2 15.5 -4t33.5 -2q26 0 38.5 16.5t12.5 42.5q0 19 -6.5 37.5t-31.5 50.5l-1 5q0 8 5.5 14t11.5 6l3 -1q12 -5 25 -22.5t21 -48.5t8 -55q0 -16 -5 -35.5t-5 -26.5q0 -14 4 -53.5
t4 -53.5q0 -23 -14 -46.5t-36 -23.5q-6 0 -11.5 2.5t-5.5 7.5q0 6 6 19.5t6 19.5q0 13 -10 31t-33.5 33t-46.5 17q-8 -40 -8 -102q0 -44 13.5 -81.5t38 -60.5t61.5 -28q0 31 12 68t42 72.5t69 60.5q15 9 35 14.5t37 5.5q20 0 35.5 -16.5t15.5 -50.5q0 -16 -6.5 -50t-6.5 -50
v-5l1 -4q12 -41 12 -73q0 -29 -20 -44.5t-52 -15.5h-171q-8 0 -18 1.5t-22 6.5t-23 12.5t-22 16t-13 10.5q-16 -17 -39 -31.5t-47 -14.5l-110 -1q-43 0 -69 9t-46 40t-20 60zM246 784q-13 -12 -21 -12q-6 0 -6 6t6 12q11 11 34 33.5t36.5 38t24.5 45.5q21 10 43 10
q10 0 19.5 -4t18 -14t22.5 -34t25 -39t23 -26t22 -19q0 -5 -14.5 -9.5t-48.5 -4.5q-29 0 -53 4t-25 10q-3 16 -5.5 33.5t-8.5 42.5q-49 -37 -92 -73z" />
    <glyph glyph-name="Edieresis" unicode="&#xcb;" horiz-adv-x="740" 
d="M34 97q0 28 3.5 63t14.5 76.5t35 101.5t32.5 83.5t14 45t9.5 48.5t4 60q0 25 -6 52t-19 45q-4 8 -10.5 13.5t-16.5 11t-10 9.5q0 11 48 11h220l230 1q26 0 49 -11t38 -38t23 -66l2 -22q0 -19 -7 -58t-7 -57q0 -11 4 -33t4 -32t-9 -10t-26.5 9.5t-26.5 16.5
q-55 38 -84 129q-11 33 -35.5 69t-65.5 59.5t-85 23.5l-40 -2q55 -75 55 -178l-5 -100q0 -2 15.5 -4t33.5 -2q26 0 38.5 16.5t12.5 42.5q0 19 -6.5 37.5t-31.5 50.5l-1 5q0 8 5.5 14t11.5 6l3 -1q12 -5 25 -22.5t21 -48.5t8 -55q0 -16 -5 -35.5t-5 -26.5q0 -14 4 -53.5
t4 -53.5q0 -23 -14 -46.5t-36 -23.5q-6 0 -11.5 2.5t-5.5 7.5q0 6 6 19.5t6 19.5q0 13 -10 31t-33.5 33t-46.5 17q-8 -40 -8 -102q0 -44 13.5 -81.5t38 -60.5t61.5 -28q0 31 12 68t42 72.5t69 60.5q15 9 35 14.5t37 5.5q20 0 35.5 -16.5t15.5 -50.5q0 -16 -6.5 -50t-6.5 -50
v-5l1 -4q12 -41 12 -73q0 -29 -20 -44.5t-52 -15.5h-171q-8 0 -18 1.5t-22 6.5t-23 12.5t-22 16t-13 10.5q-16 -17 -39 -31.5t-47 -14.5l-110 -1q-43 0 -69 9t-46 40t-20 60zM408 810q0 23 18.5 41.5t40.5 18.5q24 0 44 -16t20 -40q0 -22 -16 -39.5t-41 -17.5h-4
q-58 3 -62 53zM208 810q0 23 18.5 41.5t40.5 18.5q24 0 44 -16t20 -40q0 -22 -16 -39.5t-41 -17.5h-4q-58 3 -62 53z" />
    <glyph glyph-name="Igrave" unicode="&#xcc;" horiz-adv-x="395" 
d="M179 -12q-39 0 -75.5 18t-56.5 59.5t-20 95.5q3 34 12.5 83t41 125t41 111.5t11.5 64.5t2 40q0 44 -15.5 64.5t-38.5 20.5l-37 -5q-7 0 -7 12q0 8 22.5 16.5t45.5 8.5l56 -5q12 0 32.5 10t30.5 10q17 0 35.5 -18.5t40.5 -65t33 -96.5q6 -27 6 -57l-3 -88v-8
q0 -45 16 -114t16 -106q0 -80 -49 -128t-140 -48zM11 892l13 2q36 0 69 -47.5t37 -51.5q41 -48 44 -63v-6l-6 -4q-7 0 -20 13t-18 16q-12 8 -30.5 14.5t-52.5 9t-46.5 4t-23.5 7t-19.5 15t-12.5 28.5l-1 7q0 15 17 32t50 24z" />
    <glyph glyph-name="Iacute" unicode="&#xcd;" horiz-adv-x="395" 
d="M179 -12q-39 0 -75.5 18t-56.5 59.5t-20 95.5q3 34 12.5 83t41 125t41 111.5t11.5 64.5t2 40q0 44 -15.5 64.5t-38.5 20.5l-37 -5q-7 0 -7 12q0 8 22.5 16.5t45.5 8.5l56 -5q12 0 32.5 10t30.5 10q17 0 35.5 -18.5t40.5 -65t33 -96.5q6 -27 6 -57l-3 -88v-8
q0 -45 16 -114t16 -106q0 -80 -49 -128t-140 -48zM228 897q23 -5 43 -19.5t20 -32.5l-1 -8q-4 -17 -13 -27.5t-22.5 -15t-62 -8t-75.5 -21.5q-3 -2 -16 -14.5t-19 -12.5l-5 4l-1 6q3 11 42 57q64 93 98 93z" />
    <glyph glyph-name="Icircumflex" unicode="&#xce;" horiz-adv-x="395" 
d="M179 -12q-39 0 -75.5 18t-56.5 59.5t-20 95.5q3 34 12.5 83t41 125t41 111.5t11.5 64.5t2 40q0 44 -15.5 64.5t-38.5 20.5l-37 -5q-7 0 -7 12q0 8 22.5 16.5t45.5 8.5l56 -5q12 0 32.5 10t30.5 10q17 0 35.5 -18.5t40.5 -65t33 -96.5q6 -27 6 -57l-3 -88v-8
q0 -45 16 -114t16 -106q0 -80 -49 -128t-140 -48zM87 784q-13 -12 -21 -12q-6 0 -6 6t6 12q11 11 34 33.5t36.5 38t24.5 45.5q21 10 43 10q10 0 19.5 -4t18 -14t22.5 -34t25 -39t23 -26t22 -19q0 -5 -14.5 -9.5t-48.5 -4.5q-29 0 -53 4t-25 10q-3 16 -5.5 33.5t-8.5 42.5
q-49 -37 -92 -73z" />
    <glyph glyph-name="Idieresis" unicode="&#xcf;" horiz-adv-x="395" 
d="M179 -12q-39 0 -75.5 18t-56.5 59.5t-20 95.5q3 34 12.5 83t41 125t41 111.5t11.5 64.5t2 40q0 44 -15.5 64.5t-38.5 20.5l-37 -5q-7 0 -7 12q0 8 22.5 16.5t45.5 8.5l56 -5q12 0 32.5 10t30.5 10q17 0 35.5 -18.5t40.5 -65t33 -96.5q6 -27 6 -57l-3 -88v-8
q0 -45 16 -114t16 -106q0 -80 -49 -128t-140 -48zM236 810q0 23 18.5 41.5t40.5 18.5q24 0 44 -16t20 -40q0 -22 -16 -39.5t-41 -17.5h-4q-58 3 -62 53zM36 810q0 23 18.5 41.5t40.5 18.5q24 0 44 -16t20 -40q0 -22 -16 -39.5t-41 -17.5h-4q-58 3 -62 53z" />
    <glyph glyph-name="Eth" unicode="&#xd0;" horiz-adv-x="794" 
d="M151 -12q-52 0 -88 30t-36 83q0 40 10 88t40 122q-43 7 -43 45v30q0 22 17.5 34t72.5 12q27 76 27 144q0 66 -40 110l-2 8q0 4 13.5 8t32.5 4l182 6q78 0 127 -13t94 -42.5t86.5 -76.5t72 -113.5t39 -119t8.5 -83.5q0 -55 -17 -111.5t-56.5 -97t-91.5 -55.5l-3 -1
q-31 -9 -161 -9q-23 0 -49.5 9t-46.5 23q-25 -34 -65 -34h-123zM389 532q0 -47 -8 -100q58 -6 58 -46v-32q0 -20 -13 -32.5t-54 -12.5h-11q-9 -65 -9 -107q0 -33 4 -60q14 -44 44.5 -69.5t74.5 -25.5h9q-16 38 -25.5 87.5t-9.5 93.5q0 45 15 135t15 135q0 100 -40.5 149
t-116.5 49q67 -67 67 -164z" />
    <glyph glyph-name="Ntilde" unicode="&#xd1;" horiz-adv-x="686" 
d="M213 304q-2 13 -7 86t-12 112.5t-15.5 63.5t-19.5 38l-5 -5q-6 -38 -22 -173.5t-22 -195.5q0 -50 17 -104q15 -50 17.5 -64.5t2.5 -24.5q0 -18 -19.5 -29.5t-43.5 -11.5q-28 0 -43.5 20t-15.5 78q0 53 9 120.5t21 109.5q1 4 35.5 112t34.5 161q0 26 -7.5 48.5t-22 35
t-29.5 16.5q-2 1 -11 1.5t-12.5 3.5t-3.5 7q0 5 17 5l159 2h74q18 0 37 -14t35 -39t33 -60q18 -44 44.5 -128t43.5 -126q12 -30 25 -40q4 40 28 94.5t30.5 73t9.5 38.5t3 36q0 74 -39 116q-10 11 -25.5 21t-15.5 13q0 15 16 15h53q36 0 55 -2q5 -1 5 -13q0 -2 -1 -5.5
t-8 -10.5l-8 -8q-15 -16 -15 -47q20 -83 20 -151q0 -30 -12.5 -95t-12.5 -97l1 -17q3 -70 24 -113l27 -51q11 -22 11 -51t-11 -47q-4 -6 -15 -11t-20 -6q-54 -6 -108 -6q-64 0 -115 8q-5 1 -19.5 7t-29.5 23q-28 29 -54 70t-41.5 92t-26.5 119zM243 744l-6 -4q-40 23 -40 63
q0 25 18.5 44.5t45.5 19.5q24 0 70.5 -16.5t70.5 -16.5q26 0 45 12.5t25 30.5l4 1q12 -19 12 -47q0 -68 -63 -68q-6 0 -24.5 2t-62.5 15t-58 15h-6q-16 0 -25.5 -9t-9.5 -24q0 -6 4 -18z" />
    <glyph glyph-name="Ograve" unicode="&#xd2;" 
d="M449 -6q-37 -4 -79 -4q-44 0 -94 7.5t-92.5 28t-71.5 51t-51 80.5t-29 136v12q0 38 15.5 88.5t44 102t67 97t81 74.5t76 38.5t58.5 9.5h6q109 0 191.5 -55t129.5 -153q21 -44 31 -91t10 -89q0 -61 -20 -119t-58.5 -104t-93.5 -75t-121 -35zM304 189q0 -69 24 -112.5
t70 -43.5q13 0 26 7.5t21.5 25.5t8.5 36q0 3 -1.5 25t-2.5 47t-1 44v26q0 10 4 48t17 137.5t13 100.5l1 15q0 51 -17.5 89.5t-42 51t-47.5 12.5q-16 0 -32.5 -13t-16.5 -31l1 -15q19 -74 19 -131q0 -4 -0.5 -14t-19 -116.5t-19.5 -113.5q-5 -30 -5 -75zM278 908l13 2
q36 0 69 -47.5t37 -51.5q41 -48 44 -63v-6l-6 -4q-7 0 -20 13t-18 16q-12 8 -30.5 14.5t-52.5 9t-46.5 4t-23.5 7t-19.5 15t-12.5 28.5l-1 7q0 15 17 32t50 24z" />
    <glyph glyph-name="Oacute" unicode="&#xd3;" 
d="M449 -6q-37 -4 -79 -4q-44 0 -94 7.5t-92.5 28t-71.5 51t-51 80.5t-29 136v12q0 38 15.5 88.5t44 102t67 97t81 74.5t76 38.5t58.5 9.5h6q109 0 191.5 -55t129.5 -153q21 -44 31 -91t10 -89q0 -61 -20 -119t-58.5 -104t-93.5 -75t-121 -35zM304 189q0 -69 24 -112.5
t70 -43.5q13 0 26 7.5t21.5 25.5t8.5 36q0 3 -1.5 25t-2.5 47t-1 44v26q0 10 4 48t17 137.5t13 100.5l1 15q0 51 -17.5 89.5t-42 51t-47.5 12.5q-16 0 -32.5 -13t-16.5 -31l1 -15q19 -74 19 -131q0 -4 -0.5 -14t-19 -116.5t-19.5 -113.5q-5 -30 -5 -75zM512 899
q23 -5 43 -19.5t20 -32.5l-1 -8q-4 -17 -13 -27.5t-22.5 -15t-62 -8t-75.5 -21.5q-3 -2 -16 -14.5t-19 -12.5l-5 4l-1 6q3 11 42 57q64 93 98 93z" />
    <glyph glyph-name="Ocircumflex" unicode="&#xd4;" 
d="M449 -6q-37 -4 -79 -4q-44 0 -94 7.5t-92.5 28t-71.5 51t-51 80.5t-29 136v12q0 38 15.5 88.5t44 102t67 97t81 74.5t76 38.5t58.5 9.5h6q109 0 191.5 -55t129.5 -153q21 -44 31 -91t10 -89q0 -61 -20 -119t-58.5 -104t-93.5 -75t-121 -35zM304 189q0 -69 24 -112.5
t70 -43.5q13 0 26 7.5t21.5 25.5t8.5 36q0 3 -1.5 25t-2.5 47t-1 44v26q0 10 4 48t17 137.5t13 100.5l1 15q0 51 -17.5 89.5t-42 51t-47.5 12.5q-16 0 -32.5 -13t-16.5 -31l1 -15q19 -74 19 -131q0 -4 -0.5 -14t-19 -116.5t-19.5 -113.5q-5 -30 -5 -75zM291 770
q-13 -12 -21 -12q-6 0 -6 6t6 12q11 11 34 33.5t36.5 38t24.5 45.5q21 10 43 10q10 0 19.5 -4t18 -14t22.5 -34t25 -39t23 -26t22 -19q0 -5 -14.5 -9.5t-48.5 -4.5q-29 0 -53 4t-25 10q-3 16 -5.5 33.5t-8.5 42.5q-49 -37 -92 -73z" />
    <glyph glyph-name="Otilde" unicode="&#xd5;" 
d="M449 -6q-37 -4 -79 -4q-44 0 -94 7.5t-92.5 28t-71.5 51t-51 80.5t-29 136v12q0 38 15.5 88.5t44 102t67 97t81 74.5t76 38.5t58.5 9.5h6q109 0 191.5 -55t129.5 -153q21 -44 31 -91t10 -89q0 -61 -20 -119t-58.5 -104t-93.5 -75t-121 -35zM304 189q0 -69 24 -112.5
t70 -43.5q13 0 26 7.5t21.5 25.5t8.5 36q0 3 -1.5 25t-2.5 47t-1 44v26q0 10 4 48t17 137.5t13 100.5l1 15q0 51 -17.5 89.5t-42 51t-47.5 12.5q-16 0 -32.5 -13t-16.5 -31l1 -15q19 -74 19 -131q0 -4 -0.5 -14t-19 -116.5t-19.5 -113.5q-5 -30 -5 -75zM288 744l-6 -4
q-40 23 -40 63q0 25 18.5 44.5t45.5 19.5q24 0 70.5 -16.5t70.5 -16.5q26 0 45 12.5t25 30.5l4 1q12 -19 12 -47q0 -68 -63 -68q-6 0 -24.5 2t-62.5 15t-58 15h-6q-16 0 -25.5 -9t-9.5 -24q0 -6 4 -18z" />
    <glyph glyph-name="Odieresis" unicode="&#xd6;" 
d="M449 -6q-37 -4 -79 -4q-44 0 -94 7.5t-92.5 28t-71.5 51t-51 80.5t-29 136v12q0 38 15.5 88.5t44 102t67 97t81 74.5t76 38.5t58.5 9.5h6q109 0 191.5 -55t129.5 -153q21 -44 31 -91t10 -89q0 -61 -20 -119t-58.5 -104t-93.5 -75t-121 -35zM304 189q0 -69 24 -112.5
t70 -43.5q13 0 26 7.5t21.5 25.5t8.5 36q0 3 -1.5 25t-2.5 47t-1 44v26q0 10 4 48t17 137.5t13 100.5l1 15q0 51 -17.5 89.5t-42 51t-47.5 12.5q-16 0 -32.5 -13t-16.5 -31l1 -15q19 -74 19 -131q0 -4 -0.5 -14t-19 -116.5t-19.5 -113.5q-5 -30 -5 -75zM426 810
q0 23 18.5 41.5t40.5 18.5q24 0 44 -16t20 -40q0 -22 -16 -39.5t-41 -17.5h-4q-58 3 -62 53zM226 810q0 23 18.5 41.5t40.5 18.5q24 0 44 -16t20 -40q0 -22 -16 -39.5t-41 -17.5h-4q-58 3 -62 53z" />
    <glyph glyph-name="multiply" unicode="&#xd7;" horiz-adv-x="477" 
d="M236 452l10 -9l26 27q43 45 74 45q20 0 40 -20l19 -19q16 -16 16 -35q0 -16 -13.5 -37t-60.5 -67l32 -31q47 -47 47 -75q0 -19 -18 -37l-13 -13q-20 -20 -40 -20q-13 0 -30 9.5t-46 38.5l-30 30l-6 -6q-37 -38 -57.5 -53.5t-43.5 -15.5q-21 0 -39 18l-12 12
q-20 20 -20 41q0 15 7 31.5t35 43.5l31 31l-31 31q-21 21 -34.5 40t-13.5 37q0 20 19 39l20 20q16 16 33 16q9 0 26 -8t69 -60z" />
    <glyph glyph-name="Oslash" unicode="&#xd8;" 
d="M449 -6q-37 -4 -79 -4q-141 0 -219 53l-37 -45q-4 -5 -16 -10q-7 0 -13.5 6.5t-7.5 13.5l2 7l42 52q-77 72 -89 226v12q0 38 15.5 88.5t44 102t67 97t81 74.5t76 38.5t58.5 9.5h6q121 0 213 -71l46 56q4 8 15 8q8 0 15 -5.5t7 -12.5q0 -6 -2 -8l-52 -63q46 -45 79 -112
q21 -44 31 -91t10 -89q0 -61 -20 -119t-58.5 -104t-93.5 -75t-121 -35zM304 189q0 -69 24 -112.5t70 -43.5q13 0 26 7.5t21.5 25.5t8.5 36q0 3 -1.5 25t-2.5 47t-1 44v26q0 19 21 189l-165 -202zM348 508q0 -4 -0.5 -13.5t-15 -90.5t-17.5 -100l165 202l3 24l1 15
q0 51 -17.5 89.5t-42 51t-47.5 12.5q-16 0 -32.5 -13t-16.5 -31l1 -15q19 -74 19 -131z" />
    <glyph glyph-name="Ugrave" unicode="&#xd9;" horiz-adv-x="668" 
d="M344 -19q-125 0 -185 24t-86 74.5t-26 138.5q0 20 5.5 53t35.5 117t38.5 124.5t8.5 74.5q-4 52 -18.5 76t-37.5 33q-7 3 -47 3q-9 0 -9 7q0 10 6 10l264 1q5 -1 20 -21.5t29 -45.5q32 -52 32 -142q0 -59 -18 -173.5t-18 -152.5q0 -89 64 -89q31 0 57.5 17t51 54.5t40 100
t15.5 115.5q0 44 -7.5 101t-19.5 103q-21 78 -59 105q-6 4 -13 6.5t-18 4t-15 2.5q-2 2 -2 11q0 4 21 4l129 -1l42 1q9 0 17.5 -4.5t8.5 -9.5l-1 -3l-44 -1q-13 0 -29 -13.5t-20 -38.5v-4q0 -3 1.5 -15.5t35.5 -131.5t34 -188q0 -63 -17 -115q-22 -69 -64.5 -116.5
t-93.5 -71.5t-108 -24zM221 908l13 2q36 0 69 -47.5t37 -51.5q41 -48 44 -63v-6l-6 -4q-7 0 -20 13t-18 16q-12 8 -30.5 14.5t-52.5 9t-46.5 4t-23.5 7t-19.5 15t-12.5 28.5l-1 7q0 15 17 32t50 24z" />
    <glyph glyph-name="Uacute" unicode="&#xda;" horiz-adv-x="668" 
d="M344 -19q-125 0 -185 24t-86 74.5t-26 138.5q0 20 5.5 53t35.5 117t38.5 124.5t8.5 74.5q-4 52 -18.5 76t-37.5 33q-7 3 -47 3q-9 0 -9 7q0 10 6 10l264 1q5 -1 20 -21.5t29 -45.5q32 -52 32 -142q0 -59 -18 -173.5t-18 -152.5q0 -89 64 -89q31 0 57.5 17t51 54.5t40 100
t15.5 115.5q0 44 -7.5 101t-19.5 103q-21 78 -59 105q-6 4 -13 6.5t-18 4t-15 2.5q-2 2 -2 11q0 4 21 4l129 -1l42 1q9 0 17.5 -4.5t8.5 -9.5l-1 -3l-44 -1q-13 0 -29 -13.5t-20 -38.5v-4q0 -3 1.5 -15.5t35.5 -131.5t34 -188q0 -63 -17 -115q-22 -69 -64.5 -116.5
t-93.5 -71.5t-108 -24zM504 877q23 -5 43 -19.5t20 -32.5l-1 -8q-4 -17 -13 -27.5t-22.5 -15t-62 -8t-75.5 -21.5q-3 -2 -16 -14.5t-19 -12.5l-5 4l-1 6q3 11 42 57q64 93 98 93z" />
    <glyph glyph-name="Ucircumflex" unicode="&#xdb;" horiz-adv-x="668" 
d="M344 -19q-125 0 -185 24t-86 74.5t-26 138.5q0 20 5.5 53t35.5 117t38.5 124.5t8.5 74.5q-4 52 -18.5 76t-37.5 33q-7 3 -47 3q-9 0 -9 7q0 10 6 10l264 1q5 -1 20 -21.5t29 -45.5q32 -52 32 -142q0 -59 -18 -173.5t-18 -152.5q0 -89 64 -89q31 0 57.5 17t51 54.5t40 100
t15.5 115.5q0 44 -7.5 101t-19.5 103q-21 78 -59 105q-6 4 -13 6.5t-18 4t-15 2.5q-2 2 -2 11q0 4 21 4l129 -1l42 1q9 0 17.5 -4.5t8.5 -9.5l-1 -3l-44 -1q-13 0 -29 -13.5t-20 -38.5v-4q0 -3 1.5 -15.5t35.5 -131.5t34 -188q0 -63 -17 -115q-22 -69 -64.5 -116.5
t-93.5 -71.5t-108 -24zM237 773q-13 -12 -21 -12q-6 0 -6 6t6 12q11 11 34 33.5t36.5 38t24.5 45.5q21 10 43 10q10 0 19.5 -4t18 -14t22.5 -34t25 -39t23 -26t22 -19q0 -5 -14.5 -9.5t-48.5 -4.5q-29 0 -53 4t-25 10q-3 16 -5.5 33.5t-8.5 42.5q-49 -37 -92 -73z" />
    <glyph glyph-name="Udieresis" unicode="&#xdc;" horiz-adv-x="668" 
d="M344 -19q-125 0 -185 24t-86 74.5t-26 138.5q0 20 5.5 53t35.5 117t38.5 124.5t8.5 74.5q-4 52 -18.5 76t-37.5 33q-7 3 -47 3q-9 0 -9 7q0 10 6 10l264 1q5 -1 20 -21.5t29 -45.5q32 -52 32 -142q0 -59 -18 -173.5t-18 -152.5q0 -89 64 -89q31 0 57.5 17t51 54.5t40 100
t15.5 115.5q0 44 -7.5 101t-19.5 103q-21 78 -59 105q-6 4 -13 6.5t-18 4t-15 2.5q-2 2 -2 11q0 4 21 4l129 -1l42 1q9 0 17.5 -4.5t8.5 -9.5l-1 -3l-44 -1q-13 0 -29 -13.5t-20 -38.5v-4q0 -3 1.5 -15.5t35.5 -131.5t34 -188q0 -63 -17 -115q-22 -69 -64.5 -116.5
t-93.5 -71.5t-108 -24zM372 810q0 23 18.5 41.5t40.5 18.5q24 0 44 -16t20 -40q0 -22 -16 -39.5t-41 -17.5h-4q-58 3 -62 53zM172 810q0 23 18.5 41.5t40.5 18.5q24 0 44 -16t20 -40q0 -22 -16 -39.5t-41 -17.5h-4q-58 3 -62 53z" />
    <glyph glyph-name="Yacute" unicode="&#xdd;" horiz-adv-x="777" 
d="M482 -11h-201q-4 0 -21 4t-20 6q-22 10 -37 30.5t-15 63.5q0 21 4 41t11 44t10 34q17 70 17 111q0 81 -38.5 177t-96.5 148q-2 2 -24.5 17t-32 24t-9.5 15q0 13 7 13h238q2 0 9.5 -3.5t37 -31.5t81 -97.5t76.5 -125.5q19 13 46.5 46.5t55.5 79.5t28 62q0 25 -16.5 38
t-48 15t-36 3.5t-4.5 4.5q0 9 4 9h230q12 0 12 -7q-1 -6 -9 -9q-2 -1 -22 -7t-39.5 -19.5t-31.5 -38.5l-140 -299q-15 -33 -15 -75q0 -49 27 -116q3 -8 11.5 -27t13.5 -34.5t5 -34.5q0 -10 -8 -24t-25.5 -25.5t-33.5 -11.5zM501 874q23 -5 43 -19.5t20 -32.5l-1 -8
q-4 -17 -13 -27.5t-22.5 -15t-62 -8t-75.5 -21.5q-3 -2 -16 -14.5t-19 -12.5l-5 4l-1 6q3 11 42 57q64 93 98 93z" />
    <glyph glyph-name="Thorn" unicode="&#xde;" horiz-adv-x="793" 
d="M181 710q55 0 105 -36t73 -90q41 3 80 3q182 0 274 -88q49 -48 49 -130v-6q-1 -50 -15.5 -82.5t-36.5 -54.5t-57 -37t-80 -20l-39 -2q-61 0 -175 24l-5 1q1 -6 9.5 -41.5t8.5 -54.5q0 -37 -13 -59.5t-41 -34.5t-109 -12h-5q-78 0 -110.5 9.5t-48.5 38.5t-16 88
q0 27 8.5 66t33 102.5t29.5 78.5q45 127 45 204q0 123 -110 123q-5 0 -6 8q1 7 6 7h41q29 0 50 -2.5t55 -2.5zM374 519q0 -26 -14 -124t-14 -115v-30q20 -3 41 -3q19 0 27 2q24 2 43.5 20t29 56t10.5 84v4q0 39 -21.5 74t-51.5 52t-56 21q5 -21 6 -41z" />
    <glyph glyph-name="germandbls" unicode="&#xdf;" horiz-adv-x="652" 
d="M292 396q0 36 14 70t40.5 74.5t31 52.5t4.5 20q0 18 -10.5 36.5t-37 30.5t-59.5 12q-32 0 -59 -11t-38 -29t-11 -35q0 -29 25 -69q35 -55 49 -118.5t14 -144.5q0 -40 5 -81t5 -59q0 -69 -13 -99.5t-45 -43t-94 -12.5q-91 0 -91 114q0 19 6 50.5t38 102.5t41 104.5t9 62.5
q0 32 -10 60q-6 18 -23 26.5t-38 8.5h-10q-15 0 -15 9q0 16 32 16h23q7 0 11 2q0 6 -12.5 35.5t-12.5 45.5q0 25 29 45t82 31.5t114 11.5q58 0 106.5 -11t75 -30t26.5 -45q0 -15 -8.5 -26.5t-36.5 -20.5t-37 -14t-15 -11t-12 -18t-6 -34q0 -24 12.5 -43t47.5 -45t102 -63
q38 -21 64.5 -69t26.5 -102q0 -33 -10 -69t-28 -64t-45 -45t-60 -17q-56 0 -82 5.5t-45 22.5t-39 53q-12 22 -12 46q0 18 9.5 30.5t29.5 12.5q13 0 23.5 -8t22.5 -38.5t20 -40.5t19 -16t28 -6q20 0 34 15.5t14 44.5q0 25 -13.5 45.5t-31.5 28.5l-89 39q-85 37 -85 174z" />
    <glyph glyph-name="agrave" unicode="&#xe0;" horiz-adv-x="565" 
d="M20 147q0 35 9 73.5t28.5 69.5t50 49.5t70.5 18.5q24 0 43.5 -6.5t35.5 -17.5t37 -31t27 -26q1 1 3 3.5t20 48.5l22 56q9 27 9 45q0 17 -8 39t-29.5 39t-47.5 17q-23 0 -44 -14.5t-43.5 -44.5t-28.5 -37q-21 -25 -66.5 -54.5t-73.5 -29.5q-5 0 -5 5t8 24q5 14 22 48
t22.5 55.5t5.5 40.5v7q0 17 14 19l267 2h5q22 0 35 -6q55 -26 83.5 -72.5t28.5 -102.5q0 -42 -22 -122q-15 -54 -16 -62t-1 -17q0 -8 4 -19.5t26 -29t28 -27.5t6 -22q0 -33 -22.5 -53t-57.5 -20l-56 -2q-47 0 -73.5 23t-45.5 60q-4 -4 -23.5 -21t-36 -29t-32.5 -19
t-29.5 -9.5t-23.5 -2.5q-30 3 -59 19.5t-47.5 54.5t-18.5 80zM196 203q0 -76 37 -76q24 0 40 22t26 80l1 10q0 21 -16.5 32.5t-38.5 13.5q-13 0 -25 -10t-18 -31.5t-6 -40.5zM190 738l13 2q36 0 69 -47.5t37 -51.5q41 -48 44 -63v-6l-6 -4q-7 0 -20 13t-18 16
q-12 8 -30.5 14.5t-52.5 9t-46.5 4t-23.5 7t-19.5 15t-12.5 28.5l-1 7q0 15 17 32t50 24z" />
    <glyph glyph-name="aacute" unicode="&#xe1;" horiz-adv-x="565" 
d="M20 147q0 35 9 73.5t28.5 69.5t50 49.5t70.5 18.5q24 0 43.5 -6.5t35.5 -17.5t37 -31t27 -26q1 1 3 3.5t20 48.5l22 56q9 27 9 45q0 17 -8 39t-29.5 39t-47.5 17q-23 0 -44 -14.5t-43.5 -44.5t-28.5 -37q-21 -25 -66.5 -54.5t-73.5 -29.5q-5 0 -5 5t8 24q5 14 22 48
t22.5 55.5t5.5 40.5v7q0 17 14 19l267 2h5q22 0 35 -6q55 -26 83.5 -72.5t28.5 -102.5q0 -42 -22 -122q-15 -54 -16 -62t-1 -17q0 -8 4 -19.5t26 -29t28 -27.5t6 -22q0 -33 -22.5 -53t-57.5 -20l-56 -2q-47 0 -73.5 23t-45.5 60q-4 -4 -23.5 -21t-36 -29t-32.5 -19
t-29.5 -9.5t-23.5 -2.5q-30 3 -59 19.5t-47.5 54.5t-18.5 80zM196 203q0 -76 37 -76q24 0 40 22t26 80l1 10q0 21 -16.5 32.5t-38.5 13.5q-13 0 -25 -10t-18 -31.5t-6 -40.5zM361 729q23 -5 43 -19.5t20 -32.5l-1 -8q-4 -17 -13 -27.5t-22.5 -15t-62 -8t-75.5 -21.5
q-3 -2 -16 -14.5t-19 -12.5l-5 4l-1 6q3 11 42 57q64 93 98 93z" />
    <glyph glyph-name="acircumflex" unicode="&#xe2;" horiz-adv-x="565" 
d="M20 147q0 35 9 73.5t28.5 69.5t50 49.5t70.5 18.5q24 0 43.5 -6.5t35.5 -17.5t37 -31t27 -26q1 1 3 3.5t20 48.5l22 56q9 27 9 45q0 17 -8 39t-29.5 39t-47.5 17q-23 0 -44 -14.5t-43.5 -44.5t-28.5 -37q-21 -25 -66.5 -54.5t-73.5 -29.5q-5 0 -5 5t8 24q5 14 22 48
t22.5 55.5t5.5 40.5v7q0 17 14 19l267 2h5q22 0 35 -6q55 -26 83.5 -72.5t28.5 -102.5q0 -42 -22 -122q-15 -54 -16 -62t-1 -17q0 -8 4 -19.5t26 -29t28 -27.5t6 -22q0 -33 -22.5 -53t-57.5 -20l-56 -2q-47 0 -73.5 23t-45.5 60q-4 -4 -23.5 -21t-36 -29t-32.5 -19
t-29.5 -9.5t-23.5 -2.5q-30 3 -59 19.5t-47.5 54.5t-18.5 80zM196 203q0 -76 37 -76q24 0 40 22t26 80l1 10q0 21 -16.5 32.5t-38.5 13.5q-13 0 -25 -10t-18 -31.5t-6 -40.5zM172 614q-13 -12 -21 -12q-6 0 -6 6t6 12q11 11 34 33.5t36.5 38t24.5 45.5q21 10 43 10
q10 0 19.5 -4t18 -14t22.5 -34t25 -39t23 -26t22 -19q0 -5 -14.5 -9.5t-48.5 -4.5q-29 0 -53 4t-25 10q-3 16 -5.5 33.5t-8.5 42.5q-49 -37 -92 -73z" />
    <glyph glyph-name="atilde" unicode="&#xe3;" horiz-adv-x="565" 
d="M20 147q0 35 9 73.5t28.5 69.5t50 49.5t70.5 18.5q24 0 43.5 -6.5t35.5 -17.5t37 -31t27 -26q1 1 3 3.5t20 48.5l22 56q9 27 9 45q0 17 -8 39t-29.5 39t-47.5 17q-23 0 -44 -14.5t-43.5 -44.5t-28.5 -37q-21 -25 -66.5 -54.5t-73.5 -29.5q-5 0 -5 5t8 24q5 14 22 48
t22.5 55.5t5.5 40.5v7q0 17 14 19l267 2h5q22 0 35 -6q55 -26 83.5 -72.5t28.5 -102.5q0 -42 -22 -122q-15 -54 -16 -62t-1 -17q0 -8 4 -19.5t26 -29t28 -27.5t6 -22q0 -33 -22.5 -53t-57.5 -20l-56 -2q-47 0 -73.5 23t-45.5 60q-4 -4 -23.5 -21t-36 -29t-32.5 -19
t-29.5 -9.5t-23.5 -2.5q-30 3 -59 19.5t-47.5 54.5t-18.5 80zM196 203q0 -76 37 -76q24 0 40 22t26 80l1 10q0 21 -16.5 32.5t-38.5 13.5q-13 0 -25 -10t-18 -31.5t-6 -40.5zM183 574l-6 -4q-40 23 -40 63q0 25 18.5 44.5t45.5 19.5q24 0 70.5 -16.5t70.5 -16.5
q26 0 45 12.5t25 30.5l4 1q12 -19 12 -47q0 -68 -63 -68q-6 0 -24.5 2t-62.5 15t-58 15h-6q-16 0 -25.5 -9t-9.5 -24q0 -6 4 -18z" />
    <glyph glyph-name="adieresis" unicode="&#xe4;" horiz-adv-x="565" 
d="M20 147q0 35 9 73.5t28.5 69.5t50 49.5t70.5 18.5q24 0 43.5 -6.5t35.5 -17.5t37 -31t27 -26q1 1 3 3.5t20 48.5l22 56q9 27 9 45q0 17 -8 39t-29.5 39t-47.5 17q-23 0 -44 -14.5t-43.5 -44.5t-28.5 -37q-21 -25 -66.5 -54.5t-73.5 -29.5q-5 0 -5 5t8 24q5 14 22 48
t22.5 55.5t5.5 40.5v7q0 17 14 19l267 2h5q22 0 35 -6q55 -26 83.5 -72.5t28.5 -102.5q0 -42 -22 -122q-15 -54 -16 -62t-1 -17q0 -8 4 -19.5t26 -29t28 -27.5t6 -22q0 -33 -22.5 -53t-57.5 -20l-56 -2q-47 0 -73.5 23t-45.5 60q-4 -4 -23.5 -21t-36 -29t-32.5 -19
t-29.5 -9.5t-23.5 -2.5q-30 3 -59 19.5t-47.5 54.5t-18.5 80zM196 203q0 -76 37 -76q24 0 40 22t26 80l1 10q0 21 -16.5 32.5t-38.5 13.5q-13 0 -25 -10t-18 -31.5t-6 -40.5zM321 640q0 23 18.5 41.5t40.5 18.5q24 0 44 -16t20 -40q0 -22 -16 -39.5t-41 -17.5h-4
q-58 3 -62 53zM121 640q0 23 18.5 41.5t40.5 18.5q24 0 44 -16t20 -40q0 -22 -16 -39.5t-41 -17.5h-4q-58 3 -62 53z" />
    <glyph glyph-name="aring" unicode="&#xe5;" horiz-adv-x="565" 
d="M20 147q0 35 9 73.5t28.5 69.5t50 49.5t70.5 18.5q24 0 43.5 -6.5t35.5 -17.5t37 -31t27 -26q1 1 3 3.5t20 48.5l22 56q9 27 9 45q0 17 -8 39t-29.5 39t-47.5 17q-23 0 -44 -14.5t-43.5 -44.5t-28.5 -37q-21 -25 -66.5 -54.5t-73.5 -29.5q-5 0 -5 5t8 24q5 14 22 48
t22.5 55.5t5.5 40.5v7q0 17 14 19l267 2h5q22 0 35 -6q55 -26 83.5 -72.5t28.5 -102.5q0 -42 -22 -122q-15 -54 -16 -62t-1 -17q0 -8 4 -19.5t26 -29t28 -27.5t6 -22q0 -33 -22.5 -53t-57.5 -20l-56 -2q-47 0 -73.5 23t-45.5 60q-4 -4 -23.5 -21t-36 -29t-32.5 -19
t-29.5 -9.5t-23.5 -2.5q-30 3 -59 19.5t-47.5 54.5t-18.5 80zM196 203q0 -76 37 -76q24 0 40 22t26 80l1 10q0 21 -16.5 32.5t-38.5 13.5q-13 0 -25 -10t-18 -31.5t-6 -40.5zM208 645q0 35 19.5 55.5t55.5 20.5q32 0 52.5 -22t20.5 -54q0 -33 -22 -51.5t-54 -18.5
q-31 0 -51.5 18.5t-20.5 51.5zM281 696q-14 0 -23 -11t-9 -29v-5q1 -19 10.5 -29.5t21.5 -10.5q30 0 30 47q0 13 -8 25.5t-22 12.5z" />
    <glyph glyph-name="ae" unicode="&#xe6;" horiz-adv-x="906" 
d="M20 147q0 35 9 73.5t28.5 69.5t50 49.5t70.5 18.5q24 0 43.5 -6.5t35.5 -17.5t37 -31t27 -26q1 1 3 3.5t20 48.5l22 56q9 27 9 45q0 17 -8 39t-29.5 39t-47.5 17q-23 0 -44 -14.5t-43.5 -44.5t-28.5 -37q-21 -25 -66.5 -54.5t-73.5 -29.5q-5 0 -5 5t8 24q5 14 22 48
t22.5 55.5t5.5 40.5v7q0 17 14 19l267 2h5q22 0 35 -6q36 -17 64 -46q81 56 188 56q17 0 41.5 -4.5t52.5 -17t56 -35t47.5 -57t19.5 -72.5q0 -24 -11.5 -38.5t-34.5 -14.5q-15 0 -45.5 9t-46.5 9q-40 0 -96 -37.5t-75 -73.5q-15 -28 -15 -58q0 -18 10.5 -41t35.5 -40.5
t53 -17.5q35 0 75.5 16t77.5 56t57 90q2 6 4.5 13t12.5 49l4 4q3 -1 3 -5q0 -77 -40 -145.5t-107 -106.5q-64 -37 -154 -37l-176 -4q-47 0 -73.5 23t-45.5 60q-4 -4 -23.5 -21t-36 -29t-32.5 -19t-29.5 -9.5t-23.5 -2.5q-30 3 -59 19.5t-47.5 54.5t-18.5 80zM543 383
q0 -12 1 -30.5t11 -109.5q22 23 53 48.5t32 25.5q26 23 47 63.5t21 73.5q0 13 -6.5 31t-23.5 32.5t-38 14.5q-12 0 -28.5 -6t-31.5 -25t-26 -51t-11 -67zM196 203q0 -76 37 -76q24 0 40 22t26 80l1 10q0 21 -16.5 32.5t-38.5 13.5q-13 0 -25 -10t-18 -31.5t-6 -40.5z" />
    <glyph glyph-name="ccedilla" unicode="&#xe7;" horiz-adv-x="566" 
d="M267 -92q-6 35 -6 68v20h-4h-5q-109 0 -170.5 67t-61.5 178q0 95 49.5 169t141.5 113q50 21 109 21q29 0 66.5 -9.5t65.5 -38.5t31 -77q0 -24 -8 -34q-9 -11 -26.5 -18l-22.5 -9q-12 -6 -28 -26.5t-26.5 -27.5t-23.5 -7q-12 0 -23 11t-11 23q0 17 6.5 45t7.5 34l2 22
q0 23 -7.5 44t-20 30t-23.5 9q-17 0 -39 -16q-24 -18 -38 -51.5t-14 -99.5q0 -50 13 -101t36 -89.5t54 -56.5t63 -18q33 0 75 30q55 39 78 108.5t23 149.5q12 0 14 -10q2 -9 2 -44q0 -68 -20.5 -125t-56.5 -97.5t-82.5 -65t-96.5 -30.5v-6q0 -15 3 -29q51 -14 70.5 -32
t19.5 -42q0 -20 -11 -37.5t-29.5 -25t-35.5 -7.5q-48 0 -75 6.5t-41 26.5q-9 9 -9 25q0 10 6.5 16t15.5 6l9 -1q11 -6 32.5 -33.5t44.5 -27.5q10 0 18.5 6.5t8.5 16.5q0 13 -11.5 27.5t-38.5 19.5z" />
    <glyph glyph-name="egrave" unicode="&#xe8;" horiz-adv-x="595" 
d="M49 106q-29 58 -29 125q0 53 19 103q39 100 120 158t190 58q17 0 41.5 -4.5t52.5 -17t56 -35t47.5 -57t19.5 -72.5q0 -24 -11.5 -38.5t-34.5 -14.5q-15 0 -45.5 9t-46.5 9q-40 0 -96 -37.5t-75 -73.5q-15 -28 -15 -58q0 -18 10.5 -41t35.5 -40.5t53 -17.5q35 0 75.5 16
t77.5 56t57 90q2 6 4.5 13t12.5 49l4 4q3 -1 3 -5q0 -77 -40 -145.5t-107 -106.5q-64 -37 -154 -37q-95 0 -145.5 26.5t-79.5 84.5zM232 392q0 -12 1 -30.5t11 -109.5q22 23 53 48.5t32 25.5q27 24 47.5 60t20.5 68q0 28 -20 49t-50 21q-25 0 -47 -15t-35 -49t-13 -68z
M213 738l13 2q36 0 69 -47.5t37 -51.5q41 -48 44 -63v-6l-6 -4q-7 0 -20 13t-18 16q-12 8 -30.5 14.5t-52.5 9t-46.5 4t-23.5 7t-19.5 15t-12.5 28.5l-1 7q0 15 17 32t50 24z" />
    <glyph glyph-name="eacute" unicode="&#xe9;" horiz-adv-x="595" 
d="M49 106q-29 58 -29 125q0 53 19 103q39 100 120 158t190 58q17 0 41.5 -4.5t52.5 -17t56 -35t47.5 -57t19.5 -72.5q0 -24 -11.5 -38.5t-34.5 -14.5q-15 0 -45.5 9t-46.5 9q-40 0 -96 -37.5t-75 -73.5q-15 -28 -15 -58q0 -18 10.5 -41t35.5 -40.5t53 -17.5q35 0 75.5 16
t77.5 56t57 90q2 6 4.5 13t12.5 49l4 4q3 -1 3 -5q0 -77 -40 -145.5t-107 -106.5q-64 -37 -154 -37q-95 0 -145.5 26.5t-79.5 84.5zM232 392q0 -12 1 -30.5t11 -109.5q22 23 53 48.5t32 25.5q27 24 47.5 60t20.5 68q0 28 -20 49t-50 21q-25 0 -47 -15t-35 -49t-13 -68z
M397 729q23 -5 43 -19.5t20 -32.5l-1 -8q-4 -17 -13 -27.5t-22.5 -15t-62 -8t-75.5 -21.5q-3 -2 -16 -14.5t-19 -12.5l-5 4l-1 6q3 11 42 57q64 93 98 93z" />
    <glyph glyph-name="ecircumflex" unicode="&#xea;" horiz-adv-x="595" 
d="M49 106q-29 58 -29 125q0 53 19 103q39 100 120 158t190 58q17 0 41.5 -4.5t52.5 -17t56 -35t47.5 -57t19.5 -72.5q0 -24 -11.5 -38.5t-34.5 -14.5q-15 0 -45.5 9t-46.5 9q-40 0 -96 -37.5t-75 -73.5q-15 -28 -15 -58q0 -18 10.5 -41t35.5 -40.5t53 -17.5q35 0 75.5 16
t77.5 56t57 90q2 6 4.5 13t12.5 49l4 4q3 -1 3 -5q0 -77 -40 -145.5t-107 -106.5q-64 -37 -154 -37q-95 0 -145.5 26.5t-79.5 84.5zM232 392q0 -12 1 -30.5t11 -109.5q22 23 53 48.5t32 25.5q27 24 47.5 60t20.5 68q0 28 -20 49t-50 21q-25 0 -47 -15t-35 -49t-13 -68z
M187 614q-13 -12 -21 -12q-6 0 -6 6t6 12q11 11 34 33.5t36.5 38t24.5 45.5q21 10 43 10q10 0 19.5 -4t18 -14t22.5 -34t25 -39t23 -26t22 -19q0 -5 -14.5 -9.5t-48.5 -4.5q-29 0 -53 4t-25 10q-3 16 -5.5 33.5t-8.5 42.5q-49 -37 -92 -73z" />
    <glyph glyph-name="edieresis" unicode="&#xeb;" horiz-adv-x="595" 
d="M49 106q-29 58 -29 125q0 53 19 103q39 100 120 158t190 58q17 0 41.5 -4.5t52.5 -17t56 -35t47.5 -57t19.5 -72.5q0 -24 -11.5 -38.5t-34.5 -14.5q-15 0 -45.5 9t-46.5 9q-40 0 -96 -37.5t-75 -73.5q-15 -28 -15 -58q0 -18 10.5 -41t35.5 -40.5t53 -17.5q35 0 75.5 16
t77.5 56t57 90q2 6 4.5 13t12.5 49l4 4q3 -1 3 -5q0 -77 -40 -145.5t-107 -106.5q-64 -37 -154 -37q-95 0 -145.5 26.5t-79.5 84.5zM232 392q0 -12 1 -30.5t11 -109.5q22 23 53 48.5t32 25.5q27 24 47.5 60t20.5 68q0 28 -20 49t-50 21q-25 0 -47 -15t-35 -49t-13 -68z
M336 640q0 23 18.5 41.5t40.5 18.5q24 0 44 -16t20 -40q0 -22 -16 -39.5t-41 -17.5h-4q-58 3 -62 53zM136 640q0 23 18.5 41.5t40.5 18.5q24 0 44 -16t20 -40q0 -22 -16 -39.5t-41 -17.5h-4q-58 3 -62 53z" />
    <glyph glyph-name="igrave" unicode="&#xec;" horiz-adv-x="289" 
d="M106 409q0 106 -75 121q-4 1 -5 2.5t-1 7.5q0 5 7 6h107q17 0 20 -3q46 -42 68.5 -88t22.5 -104v-53l-2 -104q0 -19 8.5 -55t8.5 -54q0 -27 -12 -49.5t-31.5 -31.5t-37.5 -9h-98q-13 0 -26.5 8.5t-21 29t-7.5 45.5q0 76 32 159.5t37 116t6 55.5zM-12 740l13 2
q36 0 69 -47.5t37 -51.5q41 -48 44 -63v-6l-6 -4q-7 0 -20 13t-18 16q-12 8 -30.5 14.5t-52.5 9t-46.5 4t-23.5 7t-19.5 15t-12.5 28.5l-1 7q0 15 17 32t50 24z" />
    <glyph glyph-name="iacute" unicode="&#xed;" horiz-adv-x="289" 
d="M106 409q0 106 -75 121q-4 1 -5 2.5t-1 7.5q0 5 7 6h107q17 0 20 -3q46 -42 68.5 -88t22.5 -104v-53l-2 -104q0 -19 8.5 -55t8.5 -54q0 -27 -12 -49.5t-31.5 -31.5t-37.5 -9h-98q-13 0 -26.5 8.5t-21 29t-7.5 45.5q0 76 32 159.5t37 116t6 55.5zM202 727q23 -5 43 -19.5
t20 -32.5l-1 -8q-4 -17 -13 -27.5t-22.5 -15t-62 -8t-75.5 -21.5q-3 -2 -16 -14.5t-19 -12.5l-5 4l-1 6q3 11 42 57q64 93 98 93z" />
    <glyph glyph-name="icircumflex" unicode="&#xee;" horiz-adv-x="289" 
d="M106 409q0 106 -75 121q-4 1 -5 2.5t-1 7.5q0 5 7 6h107q17 0 20 -3q46 -42 68.5 -88t22.5 -104v-53l-2 -104q0 -19 8.5 -55t8.5 -54q0 -27 -12 -49.5t-31.5 -31.5t-37.5 -9h-98q-13 0 -26.5 8.5t-21 29t-7.5 45.5q0 76 32 159.5t37 116t6 55.5zM34 594q-10 -10 -17 -10
q-5 0 -5 5q0 6 5 10q50 52 58.5 62t14 22t7.5 18q16 8 36 8q2 0 6 -0.5t13.5 -4.5t25 -30t22 -36.5t18.5 -23.5t24 -22q0 -5 -12.5 -9t-40.5 -4q-24 0 -44.5 4t-21.5 9q-7 48 -11 65z" />
    <glyph glyph-name="idieresis" unicode="&#xef;" horiz-adv-x="289" 
d="M106 409q0 106 -75 121q-4 1 -5 2.5t-1 7.5q0 5 7 6h107q17 0 20 -3q46 -42 68.5 -88t22.5 -104v-53l-2 -104q0 -19 8.5 -55t8.5 -54q0 -27 -12 -49.5t-31.5 -31.5t-37.5 -9h-98q-13 0 -26.5 8.5t-21 29t-7.5 45.5q0 76 32 159.5t37 116t6 55.5zM133 640q0 23 18.5 41.5
t40.5 18.5q24 0 44 -16t20 -40q0 -22 -16 -39.5t-41 -17.5h-4q-58 3 -62 53zM-10 640q0 23 18.5 41.5t40.5 18.5q24 0 44 -16t20 -40q0 -22 -16 -39.5t-41 -17.5h-4q-58 3 -62 53z" />
    <glyph glyph-name="eth" unicode="&#xf0;" horiz-adv-x="583" 
d="M124 582l93 56q-21 23 -70 23l-30 -4q-4 0 -26 -5t-28 -5l-5 2l-2 7l2 2l74 32q36 14 72 14q44 0 93 -18l44 26q5 5 16 5q5 -2 12.5 -8.5t7.5 -12.5q0 -5 -5 -8l-34 -20q46 -25 84 -64t55 -80q11 -27 23.5 -92.5t23.5 -92.5q24 -56 24 -113q0 -47 -19 -89.5t-53.5 -73.5
t-81 -48.5t-98.5 -17.5h-14q-51 0 -96.5 16t-80 47t-54 77.5t-19.5 104.5q0 62 17 117t49 96.5t79.5 64.5t104.5 23q-20 19 -45 64l-82 -48q-5 -4 -18 -7q-6 1 -11.5 8.5t-5.5 15.5zM214 151q0 -51 16.5 -74t41.5 -23q14 0 23 11t9 23q1 79 3.5 102t9.5 44l4 12
q38 107 38 148q-1 29 -13.5 60t-32.5 46t-41 15q-16 0 -32 -13.5t-16 -28.5v-4q13 -61 15 -75.5t3 -32.5t1 -35v-5q0 -29 -14.5 -85t-14.5 -85z" />
    <glyph glyph-name="ntilde" unicode="&#xf1;" horiz-adv-x="613" 
d="M181 524l29 -39q81 62 156 62q51 0 97.5 -29.5t71 -86.5t24.5 -120v-12l-6 -88v-4q0 -33 20 -79t20 -63q0 -32 -18.5 -50t-73.5 -18h-37q-60 0 -89.5 18.5t-45.5 74.5q-6 23 -6 50q0 45 29.5 147.5t29.5 144.5q0 24 -10.5 43.5t-28 27.5t-33.5 8q-14 0 -51 -18t-37 -27
q16 -28 24.5 -67.5t8.5 -74.5l-3 -88q0 -21 6.5 -58t6.5 -58q0 -29 -7.5 -59t-32.5 -48t-72 -18h-5q-56 0 -80.5 11.5t-33.5 34.5q-14 28 -14 61q0 44 32 134.5t39 127.5t9 59v15q0 19 -6.5 40.5t-25 38t-44.5 19.5q-3 0 -3 4q0 6 4 6h122q14 0 34 -22zM207 574l-6 -4
q-40 23 -40 63q0 25 18.5 44.5t45.5 19.5q24 0 70.5 -16.5t70.5 -16.5q26 0 45 12.5t25 30.5l4 1q12 -19 12 -47q0 -68 -63 -68q-6 0 -24.5 2t-62.5 15t-58 15h-6q-16 0 -25.5 -9t-9.5 -24q0 -6 4 -18z" />
    <glyph glyph-name="ograve" unicode="&#xf2;" horiz-adv-x="560" 
d="M20 242q0 60 17 115t51 97t83.5 66t111.5 24q27 0 61 -8.5t67 -30.5t62.5 -59t48 -90t18.5 -107v-6q-1 -43 -15 -86.5t-50 -83t-88 -58t-103 -18.5h-14q-51 0 -96.5 16t-80 47t-54 77.5t-19.5 104.5zM221 158q0 -51 16.5 -74t41.5 -23q14 0 23 11t9 23q1 79 3.5 102
t9.5 44l4 12q38 107 38 148q-1 29 -13.5 60t-32.5 46t-41 15q-8 0 -19.5 -5t-21 -17.5t-7.5 -23.5q13 -61 15 -75.5t3 -32.5t1 -35v-5q0 -29 -14.5 -85t-14.5 -85zM201 738l13 2q36 0 69 -47.5t37 -51.5q41 -48 44 -63v-6l-6 -4q-7 0 -20 13t-18 16q-12 8 -30.5 14.5
t-52.5 9t-46.5 4t-23.5 7t-19.5 15t-12.5 28.5l-1 7q0 15 17 32t50 24z" />
    <glyph glyph-name="oacute" unicode="&#xf3;" horiz-adv-x="560" 
d="M20 242q0 60 17 115t51 97t83.5 66t111.5 24q27 0 61 -8.5t67 -30.5t62.5 -59t48 -90t18.5 -107v-6q-1 -43 -15 -86.5t-50 -83t-88 -58t-103 -18.5h-14q-51 0 -96.5 16t-80 47t-54 77.5t-19.5 104.5zM221 158q0 -51 16.5 -74t41.5 -23q14 0 23 11t9 23q1 79 3.5 102
t9.5 44l4 12q38 107 38 148q-1 29 -13.5 60t-32.5 46t-41 15q-8 0 -19.5 -5t-21 -17.5t-7.5 -23.5q13 -61 15 -75.5t3 -32.5t1 -35v-5q0 -29 -14.5 -85t-14.5 -85zM376 736q23 -5 43 -19.5t20 -32.5l-1 -8q-4 -17 -13 -27.5t-22.5 -15t-62 -8t-75.5 -21.5q-3 -2 -16 -14.5
t-19 -12.5l-5 4l-1 6q3 11 42 57q64 93 98 93z" />
    <glyph glyph-name="ocircumflex" unicode="&#xf4;" horiz-adv-x="560" 
d="M20 242q0 60 17 115t51 97t83.5 66t111.5 24q27 0 61 -8.5t67 -30.5t62.5 -59t48 -90t18.5 -107v-6q-1 -43 -15 -86.5t-50 -83t-88 -58t-103 -18.5h-14q-51 0 -96.5 16t-80 47t-54 77.5t-19.5 104.5zM221 158q0 -51 16.5 -74t41.5 -23q14 0 23 11t9 23q1 79 3.5 102
t9.5 44l4 12q38 107 38 148q-1 29 -13.5 60t-32.5 46t-41 15q-8 0 -19.5 -5t-21 -17.5t-7.5 -23.5q13 -61 15 -75.5t3 -32.5t1 -35v-5q0 -29 -14.5 -85t-14.5 -85zM170 614q-13 -12 -21 -12q-6 0 -6 6t6 12q11 11 34 33.5t36.5 38t24.5 45.5q21 10 43 10q10 0 19.5 -4
t18 -14t22.5 -34t25 -39t23 -26t22 -19q0 -5 -14.5 -9.5t-48.5 -4.5q-29 0 -53 4t-25 10q-3 16 -5.5 33.5t-8.5 42.5q-49 -37 -92 -73z" />
    <glyph glyph-name="otilde" unicode="&#xf5;" horiz-adv-x="560" 
d="M20 242q0 60 17 115t51 97t83.5 66t111.5 24q27 0 61 -8.5t67 -30.5t62.5 -59t48 -90t18.5 -107v-6q-1 -43 -15 -86.5t-50 -83t-88 -58t-103 -18.5h-14q-51 0 -96.5 16t-80 47t-54 77.5t-19.5 104.5zM221 158q0 -51 16.5 -74t41.5 -23q14 0 23 11t9 23q1 79 3.5 102
t9.5 44l4 12q38 107 38 148q-1 29 -13.5 60t-32.5 46t-41 15q-8 0 -19.5 -5t-21 -17.5t-7.5 -23.5q13 -61 15 -75.5t3 -32.5t1 -35v-5q0 -29 -14.5 -85t-14.5 -85zM180 574l-6 -4q-40 23 -40 63q0 25 18.5 44.5t45.5 19.5q24 0 70.5 -16.5t70.5 -16.5q26 0 45 12.5t25 30.5
l4 1q12 -19 12 -47q0 -68 -63 -68q-6 0 -24.5 2t-62.5 15t-58 15h-6q-16 0 -25.5 -9t-9.5 -24q0 -6 4 -18z" />
    <glyph glyph-name="odieresis" unicode="&#xf6;" horiz-adv-x="560" 
d="M20 242q0 60 17 115t51 97t83.5 66t111.5 24q27 0 61 -8.5t67 -30.5t62.5 -59t48 -90t18.5 -107v-6q-1 -43 -15 -86.5t-50 -83t-88 -58t-103 -18.5h-14q-51 0 -96.5 16t-80 47t-54 77.5t-19.5 104.5zM221 158q0 -51 16.5 -74t41.5 -23q14 0 23 11t9 23q1 79 3.5 102
t9.5 44l4 12q38 107 38 148q-1 29 -13.5 60t-32.5 46t-41 15q-8 0 -19.5 -5t-21 -17.5t-7.5 -23.5q13 -61 15 -75.5t3 -32.5t1 -35v-5q0 -29 -14.5 -85t-14.5 -85zM318 640q0 23 18.5 41.5t40.5 18.5q24 0 44 -16t20 -40q0 -22 -16 -39.5t-41 -17.5h-4q-58 3 -62 53z
M118 640q0 23 18.5 41.5t40.5 18.5q24 0 44 -16t20 -40q0 -22 -16 -39.5t-41 -17.5h-4q-58 3 -62 53z" />
    <glyph glyph-name="divide" unicode="&#xf7;" horiz-adv-x="527" 
d="M351 425q66 0 91 -17.5t25 -52.5v-18q0 -37 -25 -55.5t-98 -18.5h-195q-40 0 -67 5.5t-39.5 23t-12.5 42.5v28q0 29 20 46t77 17h224zM188 154q0 23 18.5 41.5t40.5 18.5q24 0 44 -16t20 -40q0 -22 -16 -39.5t-41 -17.5h-4q-58 3 -62 53zM185 524q0 23 18.5 41.5
t40.5 18.5q24 0 44 -16t20 -40q0 -22 -16 -39.5t-41 -17.5h-4q-58 3 -62 53z" />
    <glyph glyph-name="oslash" unicode="&#xf8;" horiz-adv-x="560" 
d="M20 242q0 60 17 115t51 97t83.5 66t111.5 24q42 0 80 -14.5t69 -39.5l31 37q4 8 15 8q8 0 15 -5.5t7 -12.5q0 -6 -2 -8l-38 -46q37 -42 58.5 -99t21.5 -115v-6q-1 -43 -15 -86.5t-50 -83t-88 -58t-103 -18.5h-14q-93 0 -158 47l-37 -44q-4 -5 -16 -10q-7 0 -13.5 6.5
t-7.5 13.5l2 7l43 52q-63 66 -63 173zM250 328q0 -28 -11 -72l126 153q-2 29 -15 57.5t-32 42t-39 13.5q-8 0 -19.5 -5t-21 -17.5t-7.5 -23.5q13 -61 15 -75.5t3 -32.5t1 -35v-5zM221 158q0 -51 16.5 -74t41.5 -23q14 0 23 11t9 23q1 79 3.5 102t9.5 44l4 12q22 62 27 84
l-133 -161z" />
    <glyph glyph-name="ugrave" unicode="&#xf9;" horiz-adv-x="590" 
d="M21 89l-1 19q0 5 1.5 17t32 97t39.5 111q14 42 14 79t-14 62.5t-30 35t-23 12.5q-3 1 -11.5 2.5t-8.5 8.5q0 4 3 7.5t8 3.5h125q15 0 49 -44q26 -37 44 -92t18 -149q0 -51 -6 -203q34 11 63.5 50.5t50.5 99.5t21 114q0 56 -13 103t-39.5 74t-66.5 27h-22q-13 0 -14 13
q0 9 30 9h17q99 0 118 -1q31 -1 61 -27t56 -68.5t37 -84.5q9 -37 9 -65q0 -18 -9 -106l-1 -13q0 -13 5.5 -36.5t5.5 -46.5v-6q0 -19 -4.5 -37t-10.5 -26q-14 -20 -40 -29.5t-82 -9.5h-9q-25 0 -46.5 5t-34.5 15t-29 40q-55 -37 -90 -48.5t-67 -11.5q-72 0 -102 23t-34 76z
M175 742l13 2q36 0 69 -47.5t37 -51.5q41 -48 44 -63v-6l-6 -4q-7 0 -20 13t-18 16q-12 8 -30.5 14.5t-52.5 9t-46.5 4t-23.5 7t-19.5 15t-12.5 28.5l-1 7q0 15 17 32t50 24z" />
    <glyph glyph-name="uacute" unicode="&#xfa;" horiz-adv-x="590" 
d="M21 89l-1 19q0 5 1.5 17t32 97t39.5 111q14 42 14 79t-14 62.5t-30 35t-23 12.5q-3 1 -11.5 2.5t-8.5 8.5q0 4 3 7.5t8 3.5h125q15 0 49 -44q26 -37 44 -92t18 -149q0 -51 -6 -203q34 11 63.5 50.5t50.5 99.5t21 114q0 56 -13 103t-39.5 74t-66.5 27h-22q-13 0 -14 13
q0 9 30 9h17q99 0 118 -1q31 -1 61 -27t56 -68.5t37 -84.5q9 -37 9 -65q0 -18 -9 -106l-1 -13q0 -13 5.5 -36.5t5.5 -46.5v-6q0 -19 -4.5 -37t-10.5 -26q-14 -20 -40 -29.5t-82 -9.5h-9q-25 0 -46.5 5t-34.5 15t-29 40q-55 -37 -90 -48.5t-67 -11.5q-72 0 -102 23t-34 76z
M325 727q23 -5 43 -19.5t20 -32.5l-1 -8q-4 -17 -13 -27.5t-22.5 -15t-62 -8t-75.5 -21.5q-3 -2 -16 -14.5t-19 -12.5l-5 4l-1 6q3 11 42 57q64 93 98 93z" />
    <glyph glyph-name="ucircumflex" unicode="&#xfb;" horiz-adv-x="590" 
d="M21 89l-1 19q0 5 1.5 17t32 97t39.5 111q14 42 14 79t-14 62.5t-30 35t-23 12.5q-3 1 -11.5 2.5t-8.5 8.5q0 4 3 7.5t8 3.5h125q15 0 49 -44q26 -37 44 -92t18 -149q0 -51 -6 -203q34 11 63.5 50.5t50.5 99.5t21 114q0 56 -13 103t-39.5 74t-66.5 27h-22q-13 0 -14 13
q0 9 30 9h17q99 0 118 -1q31 -1 61 -27t56 -68.5t37 -84.5q9 -37 9 -65q0 -18 -9 -106l-1 -13q0 -13 5.5 -36.5t5.5 -46.5v-6q0 -19 -4.5 -37t-10.5 -26q-14 -20 -40 -29.5t-82 -9.5h-9q-25 0 -46.5 5t-34.5 15t-29 40q-55 -37 -90 -48.5t-67 -11.5q-72 0 -102 23t-34 76z
M150 614q-13 -12 -21 -12q-6 0 -6 6t6 12q11 11 34 33.5t36.5 38t24.5 45.5q21 10 43 10q10 0 19.5 -4t18 -14t22.5 -34t25 -39t23 -26t22 -19q0 -5 -14.5 -9.5t-48.5 -4.5q-29 0 -53 4t-25 10q-3 16 -5.5 33.5t-8.5 42.5q-49 -37 -92 -73z" />
    <glyph glyph-name="udieresis" unicode="&#xfc;" horiz-adv-x="590" 
d="M21 89l-1 19q0 5 1.5 17t32 97t39.5 111q14 42 14 79t-14 62.5t-30 35t-23 12.5q-3 1 -11.5 2.5t-8.5 8.5q0 4 3 7.5t8 3.5h125q15 0 49 -44q26 -37 44 -92t18 -149q0 -51 -6 -203q34 11 63.5 50.5t50.5 99.5t21 114q0 56 -13 103t-39.5 74t-66.5 27h-22q-13 0 -14 13
q0 9 30 9h17q99 0 118 -1q31 -1 61 -27t56 -68.5t37 -84.5q9 -37 9 -65q0 -18 -9 -106l-1 -13q0 -13 5.5 -36.5t5.5 -46.5v-6q0 -19 -4.5 -37t-10.5 -26q-14 -20 -40 -29.5t-82 -9.5h-9q-25 0 -46.5 5t-34.5 15t-29 40q-55 -37 -90 -48.5t-67 -11.5q-72 0 -102 23t-34 76z
M285 635q0 23 18.5 41.5t40.5 18.5q24 0 44 -16t20 -40q0 -22 -16 -39.5t-41 -17.5h-4q-58 3 -62 53zM85 635q0 23 18.5 41.5t40.5 18.5q24 0 44 -16t20 -40q0 -22 -16 -39.5t-41 -17.5h-4q-58 3 -62 53z" />
    <glyph glyph-name="yacute" unicode="&#xfd;" horiz-adv-x="576" 
d="M205 -149q-23 0 -51 10.5t-48.5 37t-20.5 57.5q0 18 5 34t18.5 26t41.5 24q11 5 20.5 25.5t14 56t4.5 70.5q0 52 -8 107t-23.5 96t-32.5 65q-15 22 -39 40t-49 26q-4 1 -16.5 3t-14 4t-1.5 3q0 9 5 9l89 1l54 -1q20 0 52.5 -23.5t70.5 -76.5t53 -96q34 62 42.5 84t8.5 43
t-14.5 34.5t-59.5 20.5q-6 0 -6 6q0 8 15 8h248q1 0 4.5 -1.5t3.5 -5.5q0 -3 -3 -6t-8 -3l-11 1q-20 0 -45.5 -11.5t-50 -39.5t-44.5 -64q-39 -69 -50 -106t-11 -72q0 -32 13.5 -98t13.5 -97q0 -45 -21.5 -91.5t-62.5 -73t-86 -26.5zM375 725q23 -5 43 -19.5t20 -32.5l-1 -8
q-4 -17 -13 -27.5t-22.5 -15t-62 -8t-75.5 -21.5q-3 -2 -16 -14.5t-19 -12.5l-5 4l-1 6q3 11 42 57q64 93 98 93z" />
    <glyph glyph-name="thorn" unicode="&#xfe;" horiz-adv-x="627" 
d="M39 -32q0 19 3 44t11.5 57.5t46 138t37.5 176.5q0 43 -6.5 118t-17.5 120.5t-24 57.5q-4 3 -13 8t-26 6.5t-19.5 4.5t-2.5 5q0 10 12 12l119 -4q22 -1 41.5 -37t39.5 -107.5t24 -85.5q55 39 80 50t48 11q40 0 79 -20.5t69 -65t47.5 -106t17.5 -128.5q0 -119 -47 -176.5
t-132 -57.5q-23 0 -70 18t-70 41q4 -19 4 -48q0 -43 -18 -81.5t-47 -54t-59 -15.5q-54 0 -90.5 31t-36.5 88zM279 150q0 -20 6 -38.5t18 -26.5t24 -8q14 0 26 6.5t16.5 20.5t7.5 38v4l7 64q3 22 18 72.5t15 81.5t-14.5 62.5t-36.5 46t-44 14.5q-12 0 -28.5 -7.5t-19.5 -19.5
q22 -53 22 -144q0 -27 -8.5 -83.5t-8.5 -82.5z" />
    <glyph glyph-name="ydieresis" unicode="&#xff;" horiz-adv-x="576" 
d="M205 -149q-23 0 -51 10.5t-48.5 37t-20.5 57.5q0 18 5 34t18.5 26t41.5 24q11 5 20.5 25.5t14 56t4.5 70.5q0 52 -8 107t-23.5 96t-32.5 65q-15 22 -39 40t-49 26q-4 1 -16.5 3t-14 4t-1.5 3q0 9 5 9l89 1l54 -1q20 0 52.5 -23.5t70.5 -76.5t53 -96q34 62 42.5 84t8.5 43
t-14.5 34.5t-59.5 20.5q-6 0 -6 6q0 8 15 8h248q1 0 4.5 -1.5t3.5 -5.5q0 -3 -3 -6t-8 -3l-11 1q-20 0 -45.5 -11.5t-50 -39.5t-44.5 -64q-39 -69 -50 -106t-11 -72q0 -32 13.5 -98t13.5 -97q0 -45 -21.5 -91.5t-62.5 -73t-86 -26.5zM326 640q0 23 18.5 41.5t40.5 18.5
q24 0 44 -16t20 -40q0 -22 -16 -39.5t-41 -17.5h-4q-58 3 -62 53zM126 640q0 23 18.5 41.5t40.5 18.5q24 0 44 -16t20 -40q0 -22 -16 -39.5t-41 -17.5h-4q-58 3 -62 53z" />
    <glyph glyph-name="Amacron" unicode="&#x100;" horiz-adv-x="812" 
d="M20 50q0 37 18.5 81.5t78.5 128t79.5 114t33.5 56.5t24.5 49.5t16.5 41.5q2 5 9 23.5t11 35t4 32.5v13q-2 30 -14 51t-29 23l-20 1q-7 1 -7 9q0 5 10 6l51 1h84q36 0 60 -3t41 -10t35.5 -26t53.5 -104q19 -45 55 -165t65.5 -175t56.5 -91q2 -2 24 -29.5t22 -62.5
q0 -58 -57 -58h-213q-49 0 -82 48.5t-50 154.5l-36 1l-70 -1q-40 0 -67 -7.5t-41.5 -25.5t-14.5 -49l3 -70q0 -24 -10 -38.5t-31 -14.5q-55 0 -70.5 7.5t-19.5 22t-4 30.5zM184 250l96 -1q78 0 95 3v21q0 37 -7.5 97t-24 120t-32.5 80q-12 -48 -23 -76.5t-44 -104.5
t-60 -139zM472 838q33 0 44.5 -8.5t11.5 -23.5v-12q0 -17 -12.5 -25.5t-46.5 -8.5h-238q-34 0 -45.5 8t-11.5 25v17q0 13 10 20.5t37 7.5h251z" />
    <glyph glyph-name="amacron" unicode="&#x101;" horiz-adv-x="565" 
d="M20 147q0 35 9 73.5t28.5 69.5t50 49.5t70.5 18.5q24 0 43.5 -6.5t35.5 -17.5t37 -31t27 -26q1 1 3 3.5t20 48.5l22 56q9 27 9 45q0 17 -8 39t-29.5 39t-47.5 17q-23 0 -44 -14.5t-43.5 -44.5t-28.5 -37q-21 -25 -66.5 -54.5t-73.5 -29.5q-5 0 -5 5t8 24q5 14 22 48
t22.5 55.5t5.5 40.5v7q0 17 14 19l267 2h5q22 0 35 -6q55 -26 83.5 -72.5t28.5 -102.5q0 -42 -22 -122q-15 -54 -16 -62t-1 -17q0 -8 4 -19.5t26 -29t28 -27.5t6 -22q0 -33 -22.5 -53t-57.5 -20l-56 -2q-47 0 -73.5 23t-45.5 60q-4 -4 -23.5 -21t-36 -29t-32.5 -19
t-29.5 -9.5t-23.5 -2.5q-30 3 -59 19.5t-47.5 54.5t-18.5 80zM403 672q33 0 44.5 -8.5t11.5 -23.5v-12q0 -17 -12.5 -25.5t-46.5 -8.5h-238q-34 0 -45.5 8t-11.5 25v17q0 13 10 20.5t37 7.5h251zM196 203q0 -76 37 -76q24 0 40 22t26 80l1 10q0 21 -16.5 32.5t-38.5 13.5
q-13 0 -25 -10t-18 -31.5t-6 -40.5z" />
    <glyph glyph-name="Abreve" unicode="&#x102;" horiz-adv-x="803" 
d="M20 50q0 37 18.5 81.5t78.5 128t79.5 114t33.5 56.5t24.5 49.5t16.5 41.5q2 5 9 23.5t11 35t4 32.5v13q-2 30 -14 51t-29 23l-20 1q-7 1 -7 9q0 5 10 6l51 1h84q36 0 60 -3t41 -10t35.5 -26t53.5 -104q19 -45 55 -165t65.5 -175t56.5 -91q2 -2 24 -29.5t22 -62.5
q0 -58 -57 -58h-213q-49 0 -82 48.5t-50 154.5l-36 1l-70 -1q-40 0 -67 -7.5t-41.5 -25.5t-14.5 -49l3 -70q0 -24 -10 -38.5t-31 -14.5q-55 0 -70.5 7.5t-19.5 22t-4 30.5zM184 250l96 -1q78 0 95 3v21q0 37 -7.5 97t-24 120t-32.5 80q-12 -48 -23 -76.5t-44 -104.5
t-60 -139zM341 750q-31 0 -59.5 16.5t-40 41.5t-11.5 47v16q0 2 2.5 4.5t4.5 2.5q11 0 11 -25v-6q0 -10 9.5 -19.5t31.5 -14.5t47 -5q16 0 36 5t30.5 15t10.5 22v9q0 8 7 14.5t16 6.5q37 0 37 -33q0 -32 -18.5 -53t-49.5 -32.5t-64 -11.5z" />
    <glyph glyph-name="abreve" unicode="&#x103;" horiz-adv-x="565" 
d="M20 147q0 35 9 73.5t28.5 69.5t50 49.5t70.5 18.5q24 0 43.5 -6.5t35.5 -17.5t37 -31t27 -26q1 1 3 3.5t20 48.5l22 56q9 27 9 45q0 17 -8 39t-29.5 39t-47.5 17q-23 0 -44 -14.5t-43.5 -44.5t-28.5 -37q-21 -25 -66.5 -54.5t-73.5 -29.5q-5 0 -5 5t8 24q5 14 22 48
t22.5 55.5t5.5 40.5v7q0 17 14 19l267 2h5q22 0 35 -6q55 -26 83.5 -72.5t28.5 -102.5q0 -42 -22 -122q-15 -54 -16 -62t-1 -17q0 -8 4 -19.5t26 -29t28 -27.5t6 -22q0 -33 -22.5 -53t-57.5 -20l-56 -2q-47 0 -73.5 23t-45.5 60q-4 -4 -23.5 -21t-36 -29t-32.5 -19
t-29.5 -9.5t-23.5 -2.5q-30 3 -59 19.5t-47.5 54.5t-18.5 80zM196 203q0 -76 37 -76q24 0 40 22t26 80l1 10q0 21 -16.5 32.5t-38.5 13.5q-13 0 -25 -10t-18 -31.5t-6 -40.5zM276 586q-31 0 -59.5 16.5t-40 41.5t-11.5 47v16q0 2 2.5 4.5t4.5 2.5q11 0 11 -25v-6
q0 -10 9.5 -19.5t31.5 -14.5t47 -5q16 0 36 5t30.5 15t10.5 22v9q0 8 7 14.5t16 6.5q37 0 37 -33q0 -32 -18.5 -53t-49.5 -32.5t-64 -11.5z" />
    <glyph glyph-name="Aogonek" unicode="&#x104;" horiz-adv-x="803" 
d="M763 -81q20 0 20 -16q0 -3 -3.5 -14t-13.5 -21q-27 -24 -65 -24q-29 0 -48 21t-19 50q0 18 9.5 39t30.5 38h-161q-49 0 -82 48.5t-50 154.5l-36 1l-70 -1q-40 0 -67 -7.5t-41.5 -25.5t-14.5 -49l3 -70q0 -24 -10 -38.5t-31 -14.5q-55 0 -70.5 7.5t-19.5 22t-4 30.5
q0 37 18.5 81.5t78.5 128t79.5 114t33.5 56.5t24.5 49.5t16.5 41.5q2 5 9 23.5t11 35t4 32.5v13q-2 30 -14 51t-29 23l-20 1q-7 1 -7 9q0 5 10 6l51 1h84q36 0 60 -3t41 -10t35.5 -26t53.5 -104q19 -45 55 -165t65.5 -175t56.5 -91q2 -2 24 -29.5t22 -62.5q0 -58 -57 -58
h-11q-16 -18 -28.5 -40t-12.5 -37q0 -19 18 -19q12 0 40 11.5t31 11.5zM184 250l96 -1q78 0 95 3v21q0 37 -7.5 97t-24 120t-32.5 80q-12 -48 -23 -76.5t-44 -104.5t-60 -139z" />
    <glyph glyph-name="aogonek" unicode="&#x105;" horiz-adv-x="565" 
d="M525 -81q20 0 20 -16q0 -3 -3.5 -14t-13.5 -21q-27 -24 -65 -24q-29 0 -48 21t-19 50q0 18 9.5 39.5t30.5 38.5l-27 -2q-47 0 -73.5 23t-45.5 60q-4 -4 -23.5 -21t-36 -29t-32.5 -19t-29.5 -9.5t-23.5 -2.5q-30 3 -59 19.5t-47.5 54.5t-18.5 80q0 35 9 73.5t28.5 69.5
t50 49.5t70.5 18.5q24 0 43.5 -6.5t35.5 -17.5t37 -31t27 -26q1 1 3 3.5t20 48.5l22 56q9 27 9 45q0 17 -8 39t-29.5 39t-47.5 17q-23 0 -44 -14.5t-43.5 -44.5t-28.5 -37q-21 -25 -66.5 -54.5t-73.5 -29.5q-5 0 -5 5t8 24q5 14 22 48t22.5 55.5t5.5 40.5v7q0 17 14 19
l267 2h5q22 0 35 -6q55 -26 83.5 -72.5t28.5 -102.5q0 -42 -22 -122q-15 -54 -16 -62t-1 -17q0 -8 4 -19.5t26 -29t28 -27.5t6 -22q0 -30 -18.5 -49t-48.5 -23q-16 -19 -29 -41.5t-13 -37.5q0 -19 18 -19q12 0 40 11.5t31 11.5zM196 203q0 -76 37 -76q24 0 40 22t26 80l1 10
q0 21 -16.5 32.5t-38.5 13.5q-13 0 -25 -10t-18 -31.5t-6 -40.5z" />
    <glyph glyph-name="Cacute" unicode="&#x106;" horiz-adv-x="727" 
d="M354 -9q-57 0 -123.5 21.5t-115 68t-65.5 104.5q-20 72 -20 136q0 34 7.5 72t20.5 69q31 73 80.5 129.5t107.5 89t122 36.5l18 1q58 0 118.5 -23t96 -55.5t51.5 -63.5q23 -42 23 -72q0 -19 -9 -39q-5 -10 -16 -16t-37.5 -11.5t-34.5 -9.5q-7 -4 -18 -16.5t-17.5 -16.5
t-12 -5.5t-10.5 -1.5q-35 0 -50 50q-2 7 -5 25.5t-3 33.5q0 18 6.5 55.5t6.5 55.5q0 25 -7 43q-8 17 -27 30.5t-37 13.5q-27 0 -44.5 -17.5t-23 -40t-5.5 -40.5q0 -29 4 -49q1 -6 5 -29t7 -36l1 -5q13 -52 13 -84q0 -34 -9 -92t-9 -82q0 -21 4 -40q16 -86 102 -86h6
q45 1 86 21.5t72.5 56.5t49 84.5t17.5 101.5l-1 29q0 10 9 10q2 0 5 -4t3 -14v-14q0 -83 -25.5 -153t-71.5 -119t-109.5 -75.5t-135.5 -26.5zM496 899q23 -5 43 -19.5t20 -32.5l-1 -8q-4 -17 -13 -27.5t-22.5 -15t-62 -8t-75.5 -21.5q-3 -2 -16 -14.5t-19 -12.5l-5 4l-1 6
q3 11 42 57q64 93 98 93z" />
    <glyph glyph-name="cacute" unicode="&#x107;" horiz-adv-x="566" 
d="M20 241q0 95 49.5 169t141.5 113q50 21 109 21q29 0 66.5 -9.5t65.5 -38.5t31 -77q0 -24 -8 -34q-9 -11 -26.5 -18l-22.5 -9q-12 -6 -28 -26.5t-26.5 -27.5t-23.5 -7q-12 0 -23 11t-11 23q0 17 6.5 45t7.5 34l2 22q0 23 -7.5 44t-20 30t-23.5 9q-17 0 -39 -16
q-24 -18 -38 -51.5t-14 -99.5q0 -50 13 -101t36 -89.5t54 -56.5t63 -18q33 0 75 30q55 39 78 108.5t23 149.5q12 0 14 -10q2 -9 2 -44q0 -73 -24 -133.5t-65 -102t-93.5 -63t-106.5 -22.5h-5q-109 0 -170.5 67t-61.5 178zM393 733q23 -5 43 -19.5t20 -32.5l-1 -8
q-4 -17 -13 -27.5t-22.5 -15t-62 -8t-75.5 -21.5q-3 -2 -16 -14.5t-19 -12.5l-5 4l-1 6q3 11 42 57q64 93 98 93z" />
    <glyph glyph-name="Ccaron" unicode="&#x10c;" horiz-adv-x="727" 
d="M354 -9q-57 0 -123.5 21.5t-115 68t-65.5 104.5q-20 72 -20 136q0 34 7.5 72t20.5 69q31 73 80.5 129.5t107.5 89t122 36.5l18 1q58 0 118.5 -23t96 -55.5t51.5 -63.5q23 -42 23 -72q0 -19 -9 -39q-5 -10 -16 -16t-37.5 -11.5t-34.5 -9.5q-7 -4 -18 -16.5t-17.5 -16.5
t-12 -5.5t-10.5 -1.5q-35 0 -50 50q-2 7 -5 25.5t-3 33.5q0 18 6.5 55.5t6.5 55.5q0 25 -7 43q-8 17 -27 30.5t-37 13.5q-27 0 -44.5 -17.5t-23 -40t-5.5 -40.5q0 -29 4 -49q1 -6 5 -29t7 -36l1 -5q13 -52 13 -84q0 -34 -9 -92t-9 -82q0 -21 4 -40q16 -86 102 -86h6
q45 1 86 21.5t72.5 56.5t49 84.5t17.5 101.5l-1 29q0 10 9 10q2 0 5 -4t3 -14v-14q0 -83 -25.5 -153t-71.5 -119t-109.5 -75.5t-135.5 -26.5zM253 876q43 -36 92 -73q6 25 8.5 42.5t5.5 33.5q1 6 25 10t53 4q26 0 44.5 -3.5t18.5 -10.5q-15 -11 -31.5 -28.5t-34.5 -48.5
t-25.5 -40t-17 -14t-21.5 -5q-22 0 -43 10q-11 30 -24.5 45.5t-36.5 38t-34 33.5q-6 6 -6 12t6 6q8 0 21 -12z" />
    <glyph glyph-name="ccaron" unicode="&#x10d;" horiz-adv-x="566" 
d="M20 241q0 95 49.5 169t141.5 113q50 21 109 21q29 0 66.5 -9.5t65.5 -38.5t31 -77q0 -24 -8 -34q-9 -11 -26.5 -18l-22.5 -9q-12 -6 -28 -26.5t-26.5 -27.5t-23.5 -7q-12 0 -23 11t-11 23q0 17 6.5 45t7.5 34l2 22q0 23 -7.5 44t-20 30t-23.5 9q-17 0 -39 -16
q-24 -18 -38 -51.5t-14 -99.5q0 -50 13 -101t36 -89.5t54 -56.5t63 -18q33 0 75 30q55 39 78 108.5t23 149.5q12 0 14 -10q2 -9 2 -44q0 -73 -24 -133.5t-65 -102t-93.5 -63t-106.5 -22.5h-5q-109 0 -170.5 67t-61.5 178zM175 711q43 -36 92 -73q6 25 8.5 42.5t5.5 33.5
q1 6 25 10t53 4q26 0 44.5 -3.5t18.5 -10.5q-15 -11 -31.5 -28.5t-34.5 -48.5t-25.5 -40t-17 -14t-21.5 -5q-22 0 -43 10q-11 30 -24.5 45.5t-36.5 38t-34 33.5q-6 6 -6 12t6 6q8 0 21 -12z" />
    <glyph glyph-name="Dcaron" unicode="&#x10e;" horiz-adv-x="787" 
d="M144 -12q-52 0 -88 30t-36 83q0 38 9.5 85t42 127t40.5 101.5t15.5 49t12 54.5t4.5 58q0 66 -40 110l-2 8q0 4 13.5 8t32.5 4l182 6q78 0 127 -13t94 -42.5t86.5 -76.5t72 -113.5t39 -119t8.5 -83.5q0 -55 -17 -111.5t-56.5 -97t-91.5 -55.5l-3 -1q-31 -9 -161 -9
q-23 0 -49.5 9t-46.5 23q-25 -34 -65 -34h-123zM382 532q0 -54 -18.5 -164t-18.5 -166q0 -33 4 -60q14 -44 44.5 -69.5t74.5 -25.5h9q-16 38 -25.5 87.5t-9.5 93.5q0 45 15 135t15 135q0 100 -40.5 149t-116.5 49q67 -67 67 -164zM217 879q43 -36 92 -73q6 25 8.5 42.5
t5.5 33.5q1 6 25 10t53 4q26 0 44.5 -3.5t18.5 -10.5q-15 -11 -31.5 -28.5t-34.5 -48.5t-25.5 -40t-17 -14t-21.5 -5q-22 0 -43 10q-11 30 -24.5 45.5t-36.5 38t-34 33.5q-6 6 -6 12t6 6q8 0 21 -12z" />
    <glyph glyph-name="dcaron" unicode="&#x10f;" horiz-adv-x="653" 
d="M317 54l-44 -41q-25 -23 -86 -23q-46 0 -79 21.5t-52.5 58t-27.5 82t-8 88.5q0 29 6.5 71t25.5 90t49 80t61 45t58 16l13 1q24 0 55 -11.5t80 -43.5q0 43 -21 100q-24 61 -55.5 86.5t-86.5 26.5q-6 0 -6 8q0 7 23 7h85q53 0 71 -7q7 -3 18 -10t39 -37q23 -24 45.5 -62.5
t36 -91t13.5 -106.5q0 -25 -6 -79t-6 -79q0 -46 27 -102q8 -17 8 -57q0 -54 -29 -75.5t-86 -21.5h-6q-28 0 -54 9t-41 25t-20 32zM212 255q6 -70 15 -90t21.5 -27.5t33.5 -7.5q4 0 25 8q0 7 0.5 28.5t2.5 36t5 26.5t6.5 19.5t5.5 11.5q15 29 27.5 69.5t12.5 74.5
q0 29 -11 50.5t-31.5 30t-42.5 8.5q-46 0 -71.5 -27.5t-25.5 -74.5q0 -10 1 -20t11 -47zM516 559q0 7 14 24.5t16 22.5q0 1 -13 11t-15 15q-5 14 -6 30q0 35 11 54.5t70 19.5q56 0 56 -53q0 -14 -2.5 -32.5t-9.5 -25.5q-5 -5 -18.5 -17t-44 -39.5t-39.5 -27.5t-14 5t-5 13z
" />
    <glyph glyph-name="Dcroat" unicode="&#x110;" horiz-adv-x="794" 
d="M151 -12q-52 0 -88 30t-36 83q0 40 10 88t40 122q-43 7 -43 45v30q0 22 17.5 34t72.5 12q27 76 27 144q0 66 -40 110l-2 8q0 4 13.5 8t32.5 4l182 6q78 0 127 -13t94 -42.5t86.5 -76.5t72 -113.5t39 -119t8.5 -83.5q0 -55 -17 -111.5t-56.5 -97t-91.5 -55.5l-3 -1
q-31 -9 -161 -9q-23 0 -49.5 9t-46.5 23q-25 -34 -65 -34h-123zM389 532q0 -47 -8 -100q58 -6 58 -46v-32q0 -20 -13 -32.5t-54 -12.5h-11q-9 -65 -9 -107q0 -33 4 -60q14 -44 44.5 -69.5t74.5 -25.5h9q-16 38 -25.5 87.5t-9.5 93.5q0 45 15 135t15 135q0 100 -40.5 149
t-116.5 49q67 -67 67 -164z" />
    <glyph glyph-name="dcroat" unicode="&#x111;" horiz-adv-x="573" 
d="M317 54l-44 -41q-25 -23 -86 -23q-46 0 -79 21.5t-52.5 58t-27.5 82t-8 88.5q0 29 6.5 71t25.5 90t49 80t61 45t58 16l13 1q24 0 55 -11.5t80 -43.5q0 39 -19 94h-99q-62 0 -83.5 8t-21.5 25v13q0 13 17.5 21t67.5 8h79q-35 43 -104 44q-6 0 -6 8q0 7 23 7h85q53 0 71 -7
q7 -3 18 -10t39 -37l4 -5q55 -1 74 -9.5t19 -22.5v-8q0 -25 -44 -32q42 -81 42 -183q0 -25 -6 -79t-6 -79q0 -46 27 -102q8 -17 8 -57q0 -54 -29 -75.5t-86 -21.5h-6q-28 0 -54 9t-41 25t-20 32zM212 255q6 -70 15 -90t21.5 -27.5t33.5 -7.5q4 0 25 8q0 7 0.5 28.5t2.5 36
t5 26.5t6.5 19.5t5.5 11.5q15 29 27.5 69.5t12.5 74.5q0 29 -11 50.5t-31.5 30t-42.5 8.5q-46 0 -71.5 -27.5t-25.5 -74.5q0 -10 1 -20t11 -47z" />
    <glyph glyph-name="Emacron" unicode="&#x112;" horiz-adv-x="712" 
d="M20 97q0 28 3.5 63t14.5 76.5t35 101.5t32.5 83.5t14 45t9.5 48.5t4 60q0 25 -6 52t-19 45q-4 8 -10.5 13.5t-16.5 11t-10 9.5q0 11 48 11h220l230 1q26 0 49 -11t38 -38t23 -66l2 -22q0 -19 -7 -58t-7 -57q0 -11 4 -33t4 -32t-9 -10t-26.5 9.5t-26.5 16.5
q-55 38 -84 129q-11 33 -35.5 69t-65.5 59.5t-85 23.5l-40 -2q55 -75 55 -178l-5 -100q0 -2 15.5 -4t33.5 -2q26 0 38.5 16.5t12.5 42.5q0 19 -6.5 37.5t-31.5 50.5l-1 5q0 8 5.5 14t11.5 6l3 -1q12 -5 25 -22.5t21 -48.5t8 -55q0 -16 -5 -35.5t-5 -26.5q0 -14 4 -53.5
t4 -53.5q0 -23 -14 -46.5t-36 -23.5q-6 0 -11.5 2.5t-5.5 7.5q0 6 6 19.5t6 19.5q0 13 -10 31t-33.5 33t-46.5 17q-8 -40 -8 -102q0 -44 13.5 -81.5t38 -60.5t61.5 -28q0 31 12 68t42 72.5t69 60.5q15 9 35 14.5t37 5.5q20 0 35.5 -16.5t15.5 -50.5q0 -16 -6.5 -50t-6.5 -50
v-5l1 -4q12 -41 12 -73q0 -29 -20 -44.5t-52 -15.5h-171q-8 0 -18 1.5t-22 6.5t-23 12.5t-22 16t-13 10.5q-16 -17 -39 -31.5t-47 -14.5l-110 -1q-43 0 -69 9t-46 40t-20 60zM477 842q33 0 44.5 -8.5t11.5 -23.5v-12q0 -17 -12.5 -25.5t-46.5 -8.5h-238q-34 0 -45.5 8
t-11.5 25v17q0 13 10 20.5t37 7.5h251z" />
    <glyph glyph-name="emacron" unicode="&#x113;" horiz-adv-x="595" 
d="M49 106q-29 58 -29 125q0 53 19 103q39 100 120 158t190 58q17 0 41.5 -4.5t52.5 -17t56 -35t47.5 -57t19.5 -72.5q0 -24 -11.5 -38.5t-34.5 -14.5q-15 0 -45.5 9t-46.5 9q-40 0 -96 -37.5t-75 -73.5q-15 -28 -15 -58q0 -18 10.5 -41t35.5 -40.5t53 -17.5q35 0 75.5 16
t77.5 56t57 90q2 6 4.5 13t12.5 49l4 4q3 -1 3 -5q0 -77 -40 -145.5t-107 -106.5q-64 -37 -154 -37q-95 0 -145.5 26.5t-79.5 84.5zM232 392q0 -12 1 -30.5t11 -109.5q22 23 53 48.5t32 25.5q27 24 47.5 60t20.5 68q0 28 -20 49t-50 21q-25 0 -47 -15t-35 -49t-13 -68z
M418 672q33 0 44.5 -8.5t11.5 -23.5v-12q0 -17 -12.5 -25.5t-46.5 -8.5h-238q-34 0 -45.5 8t-11.5 25v17q0 13 10 20.5t37 7.5h251z" />
    <glyph glyph-name="Edotaccent" unicode="&#x116;" horiz-adv-x="712" 
d="M20 97q0 28 3.5 63t14.5 76.5t35 101.5t32.5 83.5t14 45t9.5 48.5t4 60q0 25 -6 52t-19 45q-4 8 -10.5 13.5t-16.5 11t-10 9.5q0 11 48 11h220l230 1q26 0 49 -11t38 -38t23 -66l2 -22q0 -19 -7 -58t-7 -57q0 -11 4 -33t4 -32t-9 -10t-26.5 9.5t-26.5 16.5
q-55 38 -84 129q-11 33 -35.5 69t-65.5 59.5t-85 23.5l-40 -2q55 -75 55 -178l-5 -100q0 -2 15.5 -4t33.5 -2q26 0 38.5 16.5t12.5 42.5q0 19 -6.5 37.5t-31.5 50.5l-1 5q0 8 5.5 14t11.5 6l3 -1q12 -5 25 -22.5t21 -48.5t8 -55q0 -16 -5 -35.5t-5 -26.5q0 -14 4 -53.5
t4 -53.5q0 -23 -14 -46.5t-36 -23.5q-6 0 -11.5 2.5t-5.5 7.5q0 6 6 19.5t6 19.5q0 13 -10 31t-33.5 33t-46.5 17q-8 -40 -8 -102q0 -44 13.5 -81.5t38 -60.5t61.5 -28q0 31 12 68t42 72.5t69 60.5q15 9 35 14.5t37 5.5q20 0 35.5 -16.5t15.5 -50.5q0 -16 -6.5 -50t-6.5 -50
v-5l1 -4q12 -41 12 -73q0 -29 -20 -44.5t-52 -15.5h-171q-8 0 -18 1.5t-22 6.5t-23 12.5t-22 16t-13 10.5q-16 -17 -39 -31.5t-47 -14.5l-110 -1q-43 0 -69 9t-46 40t-20 60zM294 810q0 23 18.5 41.5t40.5 18.5q24 0 44 -16t20 -40q0 -22 -16 -39.5t-41 -17.5h-4
q-58 3 -62 53z" />
    <glyph glyph-name="edotaccent" unicode="&#x117;" horiz-adv-x="595" 
d="M49 106q-29 58 -29 125q0 53 19 103q39 100 120 158t190 58q17 0 41.5 -4.5t52.5 -17t56 -35t47.5 -57t19.5 -72.5q0 -24 -11.5 -38.5t-34.5 -14.5q-15 0 -45.5 9t-46.5 9q-40 0 -96 -37.5t-75 -73.5q-15 -28 -15 -58q0 -18 10.5 -41t35.5 -40.5t53 -17.5q35 0 75.5 16
t77.5 56t57 90q2 6 4.5 13t12.5 49l4 4q3 -1 3 -5q0 -77 -40 -145.5t-107 -106.5q-64 -37 -154 -37q-95 0 -145.5 26.5t-79.5 84.5zM232 392q0 -12 1 -30.5t11 -109.5q22 23 53 48.5t32 25.5q27 24 47.5 60t20.5 68q0 28 -20 49t-50 21q-25 0 -47 -15t-35 -49t-13 -68z
M236 640q0 23 18.5 41.5t40.5 18.5q24 0 44 -16t20 -40q0 -22 -16 -39.5t-41 -17.5h-4q-58 3 -62 53z" />
    <glyph glyph-name="Eogonek" unicode="&#x118;" horiz-adv-x="712" 
d="M359 -74q20 0 20 -16q0 -3 -3.5 -14t-13.5 -21q-27 -24 -65 -24q-29 0 -48 21t-19 50q0 17 7.5 34.5t21.5 32.5l-104 -1q-43 0 -69 9t-46 40t-20 60q0 28 3.5 63t14.5 76.5t35 101.5t32.5 83.5t14 45t9.5 48.5t4 60q0 25 -6 52t-19 45q-4 8 -10.5 13.5t-16.5 11t-10 9.5
q0 11 48 11h220l230 1q26 0 49 -11t38 -38t23 -66l2 -22q0 -19 -7 -58t-7 -57q0 -11 4 -33t4 -32t-9 -10t-26.5 9.5t-26.5 16.5q-55 38 -84 129q-11 33 -35.5 69t-65.5 59.5t-85 23.5l-40 -2q55 -75 55 -178l-5 -100q0 -2 15.5 -4t33.5 -2q26 0 38.5 16.5t12.5 42.5
q0 19 -6.5 37.5t-31.5 50.5l-1 5q0 8 5.5 14t11.5 6l3 -1q12 -5 25 -22.5t21 -48.5t8 -55q0 -16 -5 -35.5t-5 -26.5q0 -14 4 -53.5t4 -53.5q0 -23 -14 -46.5t-36 -23.5q-6 0 -11.5 2.5t-5.5 7.5q0 6 6 19.5t6 19.5q0 13 -10 31t-33.5 33t-46.5 17q-8 -40 -8 -102
q0 -44 13.5 -81.5t38 -60.5t61.5 -28q0 31 12 68t42 72.5t69 60.5q15 9 35 14.5t37 5.5q20 0 35.5 -16.5t15.5 -50.5q0 -16 -6.5 -50t-6.5 -50v-5l1 -4q12 -41 12 -73q0 -29 -20 -44.5t-52 -15.5h-171q-8 0 -18 1.5t-22 6.5t-23 12.5t-22 16t-13 10.5q-21 -21 -34 -29
q-17 -18 -32 -43t-15 -41q0 -19 18 -19q12 0 40 11.5t31 11.5z" />
    <glyph glyph-name="eogonek" unicode="&#x119;" horiz-adv-x="595" 
d="M342 -79q20 0 20 -16q0 -3 -3.5 -14t-13.5 -21q-27 -24 -65 -24q-29 0 -48 21t-19 50q0 45 41 78q-74 2 -124.5 26t-80.5 85q-29 58 -29 125q0 53 19 103q39 100 120 158t190 58q17 0 41.5 -4.5t52.5 -17t56 -35t47.5 -57t19.5 -72.5q0 -24 -11.5 -38.5t-34.5 -14.5
q-15 0 -45.5 9t-46.5 9q-40 0 -96 -37.5t-75 -73.5q-15 -28 -15 -58q0 -18 10.5 -41t35.5 -40.5t53 -17.5q35 0 75.5 16t77.5 56t57 90q2 6 4.5 13t12.5 49l4 4q3 -1 3 -5q0 -77 -40 -145.5t-107 -106.5q-56 -33 -133 -36q-16 -18 -29 -41t-13 -38q0 -19 18 -19
q12 0 40 11.5t31 11.5zM232 392q0 -12 1 -30.5t11 -109.5q22 23 53 48.5t32 25.5q27 24 47.5 60t20.5 68q0 28 -20 49t-50 21q-25 0 -47 -15t-35 -49t-13 -68z" />
    <glyph glyph-name="Ecaron" unicode="&#x11a;" horiz-adv-x="712" 
d="M20 97q0 28 3.5 63t14.5 76.5t35 101.5t32.5 83.5t14 45t9.5 48.5t4 60q0 25 -6 52t-19 45q-4 8 -10.5 13.5t-16.5 11t-10 9.5q0 11 48 11h220l230 1q26 0 49 -11t38 -38t23 -66l2 -22q0 -19 -7 -58t-7 -57q0 -11 4 -33t4 -32t-9 -10t-26.5 9.5t-26.5 16.5
q-55 38 -84 129q-11 33 -35.5 69t-65.5 59.5t-85 23.5l-40 -2q55 -75 55 -178l-5 -100q0 -2 15.5 -4t33.5 -2q26 0 38.5 16.5t12.5 42.5q0 19 -6.5 37.5t-31.5 50.5l-1 5q0 8 5.5 14t11.5 6l3 -1q12 -5 25 -22.5t21 -48.5t8 -55q0 -16 -5 -35.5t-5 -26.5q0 -14 4 -53.5
t4 -53.5q0 -23 -14 -46.5t-36 -23.5q-6 0 -11.5 2.5t-5.5 7.5q0 6 6 19.5t6 19.5q0 13 -10 31t-33.5 33t-46.5 17q-8 -40 -8 -102q0 -44 13.5 -81.5t38 -60.5t61.5 -28q0 31 12 68t42 72.5t69 60.5q15 9 35 14.5t37 5.5q20 0 35.5 -16.5t15.5 -50.5q0 -16 -6.5 -50t-6.5 -50
v-5l1 -4q12 -41 12 -73q0 -29 -20 -44.5t-52 -15.5h-171q-8 0 -18 1.5t-22 6.5t-23 12.5t-22 16t-13 10.5q-16 -17 -39 -31.5t-47 -14.5l-110 -1q-43 0 -69 9t-46 40t-20 60zM235 878q43 -36 92 -73q6 25 8.5 42.5t5.5 33.5q1 6 25 10t53 4q26 0 44.5 -3.5t18.5 -10.5
q-15 -11 -31.5 -28.5t-34.5 -48.5t-25.5 -40t-17 -14t-21.5 -5q-22 0 -43 10q-11 30 -24.5 45.5t-36.5 38t-34 33.5q-6 6 -6 12t6 6q8 0 21 -12z" />
    <glyph glyph-name="ecaron" unicode="&#x11b;" horiz-adv-x="595" 
d="M49 106q-29 58 -29 125q0 53 19 103q39 100 120 158t190 58q17 0 41.5 -4.5t52.5 -17t56 -35t47.5 -57t19.5 -72.5q0 -24 -11.5 -38.5t-34.5 -14.5q-15 0 -45.5 9t-46.5 9q-40 0 -96 -37.5t-75 -73.5q-15 -28 -15 -58q0 -18 10.5 -41t35.5 -40.5t53 -17.5q35 0 75.5 16
t77.5 56t57 90q2 6 4.5 13t12.5 49l4 4q3 -1 3 -5q0 -77 -40 -145.5t-107 -106.5q-64 -37 -154 -37q-95 0 -145.5 26.5t-79.5 84.5zM232 392q0 -12 1 -30.5t11 -109.5q22 23 53 48.5t32 25.5q27 24 47.5 60t20.5 68q0 28 -20 49t-50 21q-25 0 -47 -15t-35 -49t-13 -68z
M205 707q43 -36 92 -73q6 25 8.5 42.5t5.5 33.5q1 6 25 10t53 4q26 0 44.5 -3.5t18.5 -10.5q-15 -11 -31.5 -28.5t-34.5 -48.5t-25.5 -40t-17 -14t-21.5 -5q-22 0 -43 10q-11 30 -24.5 45.5t-36.5 38t-34 33.5q-6 6 -6 12t6 6q8 0 21 -12z" />
    <glyph glyph-name="Gbreve" unicode="&#x11e;" horiz-adv-x="826" 
d="M558 -7q-8 1 -25.5 12.5t-42.5 36.5q-27 -25 -75 -38t-105 -13q-59 0 -113 13.5t-81 39.5q-48 46 -67.5 102.5t-19.5 130.5q0 46 8 96t24 91q32 83 93 147t140 88q62 19 137 19q59 0 115.5 -13t102.5 -41t73.5 -73t27.5 -104q0 -22 -12 -33.5t-26 -11.5q-10 0 -28.5 5
t-28.5 5l-38 -6q-21 0 -34.5 10t-23.5 29.5t-23 72.5t-27 79.5t-37.5 41.5t-59.5 15q-21 0 -44 -7t-34 -21t-11 -28q0 -18 8 -93t8 -127v-8l1 -19q0 -23 -9.5 -83.5t-9.5 -100.5v-11q2 -75 22 -107t60 -32q20 0 40.5 12.5t35 51t14.5 94.5l-1 33q-7 55 -34.5 81.5
t-82.5 28.5q-3 1 -3 7q0 9 3 9l320 1q26 0 46.5 -24.5t30 -76t9.5 -101.5q0 -14 8 -50.5t8 -62.5q0 -17 -3 -37q-2 -15 -30.5 -25.5t-97.5 -10.5q-22 0 -102 5zM406 749q-31 0 -59.5 16.5t-40 41.5t-11.5 47v16q0 2 2.5 4.5t4.5 2.5q11 0 11 -25v-6q0 -10 9.5 -19.5
t31.5 -14.5t47 -5q16 0 36 5t30.5 15t10.5 22v9q0 8 7 14.5t16 6.5q37 0 37 -33q0 -32 -18.5 -53t-49.5 -32.5t-64 -11.5z" />
    <glyph glyph-name="gbreve" unicode="&#x11f;" horiz-adv-x="700" 
d="M66 165q-46 65 -46 146q0 45 16 87.5t46.5 76t76.5 53t103 19.5h11q65 -2 124 -25.5t101 -67.5q5 6 25.5 32.5t40 37.5t45.5 11q17 0 35.5 -11t29.5 -36t11 -51q0 -29 -14 -55.5t-35.5 -37.5t-40.5 -11q-12 0 -23 4t-19.5 12t-16.5 19t-9 12q0 -39 -6 -75t-23 -82
q-17 -44 -51.5 -74.5t-84 -46.5t-106.5 -16q-44 0 -89.5 14.5t-75.5 37.5q-10 0 -10 -26q0 -36 46 -61t87 -25h4q61 0 150 32.5t119 37t48 4.5q144 0 144 -119q0 -32 -14.5 -61.5t-38.5 -45.5t-48 -21q-13 16 -31.5 26t-36.5 10q-37 0 -114 -18.5t-121 -18.5
q-74 0 -130 20.5t-88.5 61t-32.5 101.5q0 39 11.5 73t30.5 57zM223 186q0 -12 11 -18t22 -6q32 0 51 63.5t19 192.5v23q0 21 -7 39.5t-20 26.5t-27 8q-11 0 -23 -8t-18.5 -25.5t-6.5 -34.5l1 -14q10 -51 12.5 -73.5t2.5 -49.5q0 -52 -10 -89q-7 -28 -7 -35zM256 581
q-31 0 -59.5 16.5t-40 41.5t-11.5 47v16q0 2 2.5 4.5t4.5 2.5q11 0 11 -25v-6q0 -10 9.5 -19.5t31.5 -14.5t47 -5q16 0 36 5t30.5 15t10.5 22v9q0 8 7 14.5t16 6.5q37 0 37 -33q0 -32 -18.5 -53t-49.5 -32.5t-64 -11.5z" />
    <glyph glyph-name="Gcommaaccent" unicode="&#x122;" horiz-adv-x="826" 
d="M360 -186q0 7 14 24t16 22q0 1 -13 11t-15 15q-5 12 -6 29q0 35 11 54t68 19q56 0 56 -53q0 -12 -3 -31t-9 -25q-89 -82 -101 -82q-8 0 -13 4.5t-5 12.5zM558 -7q-8 1 -25.5 12.5t-42.5 36.5q-27 -25 -75 -38t-105 -13q-59 0 -113 13.5t-81 39.5q-48 46 -67.5 102.5
t-19.5 130.5q0 46 8 96t24 91q32 83 93 147t140 88q62 19 137 19q59 0 115.5 -13t102.5 -41t73.5 -73t27.5 -104q0 -22 -12 -33.5t-26 -11.5q-10 0 -28.5 5t-28.5 5l-38 -6q-21 0 -34.5 10t-23.5 29.5t-23 72.5t-27 79.5t-37.5 41.5t-59.5 15q-21 0 -44 -7t-34 -21t-11 -28
q0 -18 8 -93t8 -127v-8l1 -19q0 -23 -9.5 -83.5t-9.5 -100.5v-11q2 -75 22 -107t60 -32q20 0 40.5 12.5t35 51t14.5 94.5l-1 33q-7 55 -34.5 81.5t-82.5 28.5q-3 1 -3 7q0 9 3 9l320 1q26 0 46.5 -24.5t30 -76t9.5 -101.5q0 -14 8 -50.5t8 -62.5q0 -17 -3 -37
q-2 -15 -30.5 -25.5t-97.5 -10.5q-22 0 -102 5z" />
    <glyph glyph-name="gcommaaccent" unicode="&#x123;" horiz-adv-x="700" 
d="M349 748q0 -7 -14 -24t-16 -22q0 -1 13 -11t15 -15q5 -12 6 -29q0 -35 -11 -54t-68 -19q-56 0 -56 53q0 12 3 31t9 25q89 82 101 82q8 0 13 -4.5t5 -12.5zM66 165q-46 65 -46 146q0 45 16 87.5t46.5 76t76.5 53t103 19.5h11q65 -2 124 -25.5t101 -67.5q5 6 25.5 32.5
t40 37.5t45.5 11q17 0 35.5 -11t29.5 -36t11 -51q0 -29 -14 -55.5t-35.5 -37.5t-40.5 -11q-12 0 -23 4t-19.5 12t-16.5 19t-9 12q0 -39 -6 -75t-23 -82q-17 -44 -51.5 -74.5t-84 -46.5t-106.5 -16q-44 0 -89.5 14.5t-75.5 37.5q-10 0 -10 -26q0 -36 46 -61t87 -25h4
q61 0 150 32.5t119 37t48 4.5q144 0 144 -119q0 -32 -14.5 -61.5t-38.5 -45.5t-48 -21q-13 16 -31.5 26t-36.5 10q-37 0 -114 -18.5t-121 -18.5q-74 0 -130 20.5t-88.5 61t-32.5 101.5q0 39 11.5 73t30.5 57zM223 186q0 -12 11 -18t22 -6q32 0 51 63.5t19 192.5v23
q0 21 -7 39.5t-20 26.5t-27 8q-11 0 -23 -8t-18.5 -25.5t-6.5 -34.5l1 -14q10 -51 12.5 -73.5t2.5 -49.5q0 -52 -10 -89q-7 -28 -7 -35z" />
    <glyph glyph-name="Imacron" unicode="&#x12a;" horiz-adv-x="395" 
d="M179 -12q-39 0 -75.5 18t-56.5 59.5t-20 95.5q3 34 12.5 83t41 125t41 111.5t11.5 64.5t2 40q0 44 -15.5 64.5t-38.5 20.5l-37 -5q-7 0 -7 12q0 8 22.5 16.5t45.5 8.5l56 -5q12 0 32.5 10t30.5 10q17 0 35.5 -18.5t40.5 -65t33 -96.5q6 -27 6 -57l-3 -88v-8
q0 -45 16 -114t16 -106q0 -80 -49 -128t-140 -48zM318 842q33 0 44.5 -8.5t11.5 -23.5v-12q0 -17 -12.5 -25.5t-46.5 -8.5h-238q-34 0 -45.5 8t-11.5 25v17q0 13 10 20.5t37 7.5h251z" />
    <glyph glyph-name="imacron" unicode="&#x12b;" horiz-adv-x="289" 
d="M106 409q0 106 -75 121q-4 1 -5 2.5t-1 7.5q0 5 7 6h107q17 0 20 -3q46 -42 68.5 -88t22.5 -104v-53l-2 -104q0 -19 8.5 -55t8.5 -54q0 -27 -12 -49.5t-31.5 -31.5t-37.5 -9h-98q-13 0 -26.5 8.5t-21 29t-7.5 45.5q0 76 32 159.5t37 116t6 55.5zM228 653q19 0 30.5 -4.5
t11.5 -19.5v-9q0 -12 -9 -18.5t-35 -6.5h-178q-25 0 -34 6t-9 19v12q0 21 35 21h188z" />
    <glyph glyph-name="Iogonek" unicode="&#x12e;" horiz-adv-x="395" 
d="M257 -86q20 0 20 -16q0 -3 -3.5 -14t-13.5 -21q-27 -24 -65 -24q-29 0 -48 21t-19 50q0 20 10.5 41.5t30.5 37.5q-21 1 -45 8.5t-45 26t-36.5 52t-15.5 85.5q3 34 12.5 83t41 125t41 111.5t11.5 64.5t2 40q0 44 -15.5 64.5t-38.5 20.5l-37 -5q-7 0 -7 12q0 8 22.5 16.5
t45.5 8.5l56 -5q12 0 32.5 10t30.5 10q17 0 35.5 -18.5t40.5 -65t33 -96.5q6 -27 6 -57l-3 -88v-8q0 -45 16 -114t16 -106q0 -73 -40.5 -119.5t-116.5 -54.5q-16 -18 -29.5 -41.5t-13.5 -38.5q0 -19 18 -19q12 0 40 11.5t31 11.5z" />
    <glyph glyph-name="iogonek" unicode="&#x12f;" horiz-adv-x="280" 
d="M194 -81q20 0 20 -16q0 -3 -3.5 -14t-13.5 -21q-27 -24 -65 -24q-29 0 -48 21t-19 50q0 21 11 42.5t33 37.5h-28q-13 0 -26.5 8.5t-21 29t-7.5 45.5q0 76 32 159.5t37 116t6 55.5q0 106 -75 121q-4 1 -5 2.5t-1 7.5q0 5 7 6h107q17 0 20 -3q46 -42 68.5 -88t22.5 -104
v-53l-2 -104q0 -19 8.5 -55t8.5 -54q0 -27 -12 -49.5t-31.5 -31.5t-37.5 -9h-31q-16 -18 -29.5 -41.5t-13.5 -38.5q0 -19 18 -19q12 0 40 11.5t31 11.5zM37 647q0 36 24 54t62 18q30 0 50.5 -23t20.5 -53q0 -17 -9 -28.5t-25 -11.5l-34 5q-9 0 -26 -8.5t-25 -8.5
q-17 1 -27.5 19.5t-10.5 36.5z" />
    <glyph glyph-name="Idotaccent" unicode="&#x130;" horiz-adv-x="395" 
d="M179 -12q-39 0 -75.5 18t-56.5 59.5t-20 95.5q3 34 12.5 83t41 125t41 111.5t11.5 64.5t2 40q0 44 -15.5 64.5t-38.5 20.5l-37 -5q-7 0 -7 12q0 8 22.5 16.5t45.5 8.5l56 -5q12 0 32.5 10t30.5 10q17 0 35.5 -18.5t40.5 -65t33 -96.5q6 -27 6 -57l-3 -88v-8
q0 -45 16 -114t16 -106q0 -80 -49 -128t-140 -48zM84 798q0 23 18.5 41.5t40.5 18.5q24 0 44 -16t20 -40q0 -22 -16 -39.5t-41 -17.5h-4q-58 3 -62 53z" />
    <glyph glyph-name="dotlessi" unicode="&#x131;" horiz-adv-x="289" 
d="M106 409q0 106 -75 121q-4 1 -5 2.5t-1 7.5q0 5 7 6h107q17 0 20 -3q46 -42 68.5 -88t22.5 -104v-53l-2 -104q0 -19 8.5 -55t8.5 -54q0 -27 -12 -49.5t-31.5 -31.5t-37.5 -9h-98q-13 0 -26.5 8.5t-21 29t-7.5 45.5q0 76 32 159.5t37 116t6 55.5z" />
    <glyph glyph-name="Kcommaaccent" unicode="&#x136;" horiz-adv-x="833" 
d="M361 -186q0 7 14 24t16 22q0 1 -13 11t-15 15q-5 12 -6 29q0 35 11 54t68 19q56 0 56 -53q0 -12 -3 -31t-9 -25q-89 -82 -101 -82q-8 0 -13 4.5t-5 12.5zM114 -6q-27 0 -49.5 12.5t-33.5 42.5t-11 67q0 43 14 106l2 8q6 26 28.5 77t25.5 60q45 117 45 192v6q0 67 -13 96
q-2 5 -13.5 18.5t-11.5 17.5q0 23 45 23l70 1q50 0 75.5 -6t44 -26t30.5 -62q19 -67 19 -135l-2 -88q138 98 189.5 147t51.5 87q0 16 -7.5 30.5t-22.5 21.5q-10 5 -26 5q-30 0 -48.5 1t-18.5 8q0 10 7 10h126l94 1q22 0 22 -5q0 -10 -13 -12q-16 0 -39 -19t-32 -42
q-2 -5 -7 -18t-17.5 -40.5t-29 -56t-31.5 -48.5t-68 -80q99 -21 150 -46t65 -58q13 -32 40.5 -96t41.5 -101t14 -59q0 -42 -92 -42h-174q-32 0 -65.5 36t-33.5 69l3 123q0 22 -10 42.5t-25.5 29.5t-29.5 9q-36 0 -36 -52q0 -21 17.5 -73t17.5 -80q0 -32 -19 -59.5t-50 -39.5
q-12 -6 -71 -6z" />
    <glyph glyph-name="kcommaaccent" unicode="&#x137;" horiz-adv-x="626" 
d="M25 115q1 41 8.5 78t30.5 96t34.5 100t19 89t10.5 92v13q0 26 -7.5 51t-22 39.5t-29.5 19.5q-5 2 -21.5 4.5t-22.5 2.5q-2 0 -3.5 3t-1.5 5t2 5.5t5 3.5h152q6 0 14.5 -5.5t12.5 -11.5q48 -61 69.5 -122t21.5 -136l-5 -91q0 -9 3 -14q28 28 52 57.5t60 77.5q3 3 5.5 10.5
t2.5 11.5q0 9 -6.5 19.5t-20.5 10.5h-29q-25 0 -25 8q0 12 7 12l216 1q12 0 12 -7q0 -2 -2 -6t-17 -5.5t-19 -2.5q-15 -3 -29.5 -15.5t-28 -31t-48 -74.5t-52.5 -80q53 -21 96 -52q10 -7 19.5 -19.5t23.5 -39.5t18 -34q2 -4 35 -42t37 -55t4 -24q0 -27 -16 -46t-43 -19h-135
q-20 0 -36.5 13t-23 29.5t-6.5 28.5v88q0 23 -12.5 43.5t-32.5 20.5q-13 0 -21 -3v-3l5 -81q0 -69 -32 -102.5t-102 -33.5q-66 0 -96 28.5t-30 94.5zM240 -189q0 7 14 24t16 22q0 1 -13 11t-15 15q-5 12 -6 29q0 35 11 54t68 19q56 0 56 -53q0 -12 -3 -31t-9 -25
q-89 -82 -101 -82q-8 0 -13 4.5t-5 12.5z" />
    <glyph glyph-name="Lacute" unicode="&#x139;" horiz-adv-x="684" 
d="M143 -12q-49 0 -76.5 29.5t-34.5 74.5q-3 18 -3 36q0 39 12.5 82.5t34 101t29.5 78.5l24 68q16 43 16 120q0 18 -2 36.5t-8 33.5t-19.5 29.5t-13.5 24.5q0 16 40 16h147q16 0 39 -30q55 -70 55 -178q0 -33 -4 -60q-5 -40 -20 -119.5t-15 -110.5q0 -53 25 -93.5t74 -54.5
q-5 25 -5 42q0 25 8 57q7 29 28.5 63.5t53 58.5t62.5 28l14 1q16 0 31.5 -8t23 -27t7.5 -41q0 -19 -6 -41q-14 -44 -14 -78q0 -25 8 -54q1 -3 4 -11t3 -12q0 -19 -12 -33.5t-37 -21.5t-55 -7h-161q-10 2 -22.5 8t-25.5 16t-14 10q-2 0 -28 -17t-39 -17h-124zM358 895
q23 -5 43 -19.5t20 -32.5l-1 -8q-4 -17 -13 -27.5t-22.5 -15t-62 -8t-75.5 -21.5q-3 -2 -16 -14.5t-19 -12.5l-5 4l-1 6q3 11 42 57q64 93 98 93z" />
    <glyph glyph-name="lacute" unicode="&#x13a;" horiz-adv-x="303" 
d="M106 -5q-15 0 -33.5 12.5t-33 39t-14.5 46.5q0 44 18 119.5t67 233.5q16 51 16 112q0 72 -25 105t-76 41q-2 0 -3.5 2.5t-1.5 4.5q0 5 5 5h153q2 0 8.5 -3.5t14.5 -11.5q20 -18 39 -48t29.5 -71t10.5 -85q-3 -44 -15 -106.5t-12 -86.5q0 -25 13 -77t14 -58
q2 -8 2.5 -33.5t0.5 -27.5v-4q0 -30 -14.5 -57.5t-36.5 -39.5t-42 -12h-84zM253 892q23 -5 43 -19.5t20 -32.5l-1 -8q-4 -17 -13 -27.5t-22.5 -15t-62 -8t-75.5 -21.5q-3 -2 -16 -14.5t-19 -12.5l-5 4l-1 6q3 11 42 57q64 93 98 93z" />
    <glyph glyph-name="Lcommaaccent" unicode="&#x13b;" horiz-adv-x="680" 
d="M139 -12q-49 0 -76.5 29.5t-34.5 74.5q-3 18 -3 36q0 39 12.5 82.5t34 101t29.5 78.5l24 68q16 43 16 120q0 18 -2 36.5t-8 33.5t-19.5 29.5t-13.5 24.5q0 16 40 16h147q16 0 39 -30q55 -70 55 -178q0 -33 -4 -60q-5 -40 -20 -119.5t-15 -110.5q0 -53 25 -93.5t74 -54.5
q-5 25 -5 42q0 25 8 57q7 29 28.5 63.5t53 58.5t62.5 28l14 1q16 0 31.5 -8t23 -27t7.5 -41q0 -19 -6 -41q-14 -44 -14 -78q0 -25 8 -54q1 -3 4 -11t3 -12q0 -19 -12 -33.5t-37 -21.5t-55 -7h-161q-10 2 -22.5 8t-25.5 16t-14 10q-2 0 -28 -17t-39 -17h-124zM249 -193
q0 7 14 24t16 22q0 1 -13 11t-15 15q-5 12 -6 29q0 35 11 54t68 19q56 0 56 -53q0 -12 -3 -31t-9 -25q-89 -82 -101 -82q-8 0 -13 4.5t-5 12.5z" />
    <glyph glyph-name="lcommaaccent" unicode="&#x13c;" horiz-adv-x="303" 
d="M93 -193q0 7 14 24t16 22q0 1 -13 11t-15 15q-5 12 -6 29q0 35 11 54t68 19q56 0 56 -53q0 -12 -3 -31t-9 -25q-89 -82 -101 -82q-8 0 -13 4.5t-5 12.5zM106 -5q-15 0 -33.5 12.5t-33 39t-14.5 46.5q0 44 18 119.5t67 233.5q16 51 16 112q0 72 -25 105t-76 41
q-2 0 -3.5 2.5t-1.5 4.5q0 5 5 5h153q2 0 8.5 -3.5t14.5 -11.5q20 -18 39 -48t29.5 -71t10.5 -85q-3 -44 -15 -106.5t-12 -86.5q0 -25 13 -77t14 -58q2 -8 2.5 -33.5t0.5 -27.5v-4q0 -30 -14.5 -57.5t-36.5 -39.5t-42 -12h-84z" />
    <glyph glyph-name="Lcaron" unicode="&#x13d;" horiz-adv-x="684" 
d="M143 -12q-49 0 -76.5 29.5t-34.5 74.5q-3 18 -3 36q0 39 12.5 82.5t34 101t29.5 78.5l24 68q16 43 16 120q0 18 -2 36.5t-8 33.5t-19.5 29.5t-13.5 24.5q0 16 40 16h147q16 0 39 -30q55 -70 55 -178q0 -33 -4 -60q-5 -40 -20 -119.5t-15 -110.5q0 -53 25 -93.5t74 -54.5
q-5 25 -5 42q0 25 8 57q7 29 28.5 63.5t53 58.5t62.5 28l14 1q16 0 31.5 -8t23 -27t7.5 -41q0 -19 -6 -41q-14 -44 -14 -78q0 -25 8 -54q1 -3 4 -11t3 -12q0 -19 -12 -33.5t-37 -21.5t-55 -7h-161q-10 2 -22.5 8t-25.5 16t-14 10q-2 0 -28 -17t-39 -17h-124zM420 396
q0 11 25.5 43t28.5 41q0 2 -23.5 20t-27.5 28q-8 25 -11 54q0 43 7.5 72.5t34 45.5t104.5 16q102 0 102 -97q0 -38 -6.5 -67t-15.5 -37q-85 -79 -128.5 -115.5t-56.5 -36.5q-33 0 -33 33z" />
    <glyph glyph-name="lcaron" unicode="&#x13e;" horiz-adv-x="450" 
d="M106 -5q-15 0 -33.5 12.5t-33 39t-14.5 46.5q0 44 18 119.5t67 233.5q16 51 16 112q0 72 -25 105t-76 41q-2 0 -3.5 2.5t-1.5 4.5q0 5 5 5h153q2 0 8.5 -3.5t14.5 -11.5q20 -18 39 -48t29.5 -71t10.5 -85q-3 -44 -15 -106.5t-12 -86.5q0 -25 13 -77t14 -58
q2 -8 2.5 -33.5t0.5 -27.5v-4q0 -30 -14.5 -57.5t-36.5 -39.5t-42 -12h-84zM299 539q0 7 16.5 27.5t18.5 26.5q0 1 -15 13t-18 18q-6 20 -7 35q0 28 5 47t22 29t67 10q66 0 66 -62q0 -15 -3.5 -37.5t-10.5 -29.5q-6 -6 -21.5 -20t-51.5 -46.5t-47 -32.5q-9 0 -15 6t-6 16z
" />
    <glyph glyph-name="Lslash" unicode="&#x141;" horiz-adv-x="684" 
d="M143 -12q-49 0 -76.5 29.5t-34.5 74.5q-3 18 -3 36q0 26 8 65t34.5 107t32.5 86l-37 -21l-1 -1q-10 -6 -14 -6l-4 1q-7 2 -11.5 10t-4.5 15v4l5 8l88 52l4 10q16 43 16 120q0 18 -2 36.5t-8 33.5t-19.5 29.5t-13.5 24.5q0 16 40 16h147q16 0 39 -30q33 -43 45 -95l68 40
q1 2 4.5 3.5t6.5 1.5l5 -1q7 -2 13 -8.5t6 -13.5l-1 -5q-2 -7 -5 -9l-89 -52l2 -39q0 -33 -4 -60q-5 -40 -20 -119.5t-15 -110.5q0 -53 25 -93.5t74 -54.5q-5 25 -5 42q0 25 8 57q7 29 28.5 63.5t53 58.5t62.5 28l14 1q16 0 31.5 -8t23 -27t7.5 -41q0 -19 -6 -41
q-14 -44 -14 -78q0 -25 8 -54q1 -3 4 -11t3 -12q0 -19 -12 -33.5t-37 -21.5t-55 -7h-161q-10 2 -22.5 8t-25.5 16t-14 10q-2 0 -28 -17t-39 -17h-124z" />
    <glyph glyph-name="lslash" unicode="&#x142;" horiz-adv-x="314" 
d="M106 -5q-15 0 -33.5 12.5t-33 39t-14.5 46.5q0 40 15.5 106.5t55.5 199.5l-38 -44q-10 -6 -14 -6l-4 1q-7 2 -11.5 10t-4.5 15v4l5 8l92 108q5 35 5 63q0 72 -25 105t-76 41q-2 0 -3.5 2.5t-1.5 4.5q0 5 5 5h153q2 0 8.5 -3.5t14.5 -11.5q27 -25 46 -59l32 37
q1 2 4.5 3.5t6.5 1.5l5 -1q7 -2 13 -8.5t6 -13.5l-1 -5q-2 -7 -5 -9l-43 -49q15 -48 15 -101q-3 -44 -15 -106.5t-12 -86.5q0 -25 13 -77t14 -58q2 -8 2.5 -33.5t0.5 -27.5v-4q0 -30 -14.5 -57.5t-36.5 -39.5t-42 -12h-84z" />
    <glyph glyph-name="Nacute" unicode="&#x143;" horiz-adv-x="686" 
d="M213 304q-2 13 -7 86t-12 112.5t-15.5 63.5t-19.5 38l-5 -5q-6 -38 -22 -173.5t-22 -195.5q0 -50 17 -104q15 -50 17.5 -64.5t2.5 -24.5q0 -18 -19.5 -29.5t-43.5 -11.5q-28 0 -43.5 20t-15.5 78q0 53 9 120.5t21 109.5q1 4 35.5 112t34.5 161q0 26 -7.5 48.5t-22 35
t-29.5 16.5q-2 1 -11 1.5t-12.5 3.5t-3.5 7q0 5 17 5l159 2h74q18 0 37 -14t35 -39t33 -60q18 -44 44.5 -128t43.5 -126q12 -30 25 -40q4 40 28 94.5t30.5 73t9.5 38.5t3 36q0 74 -39 116q-10 11 -25.5 21t-15.5 13q0 15 16 15h53q36 0 55 -2q5 -1 5 -13q0 -2 -1 -5.5
t-8 -10.5l-8 -8q-15 -16 -15 -47q20 -83 20 -151q0 -30 -12.5 -95t-12.5 -97l1 -17q3 -70 24 -113l27 -51q11 -22 11 -51t-11 -47q-4 -6 -15 -11t-20 -6q-54 -6 -108 -6q-64 0 -115 8q-5 1 -19.5 7t-29.5 23q-28 29 -54 70t-41.5 92t-26.5 119zM490 879q23 -5 43 -19.5
t20 -32.5l-1 -8q-4 -17 -13 -27.5t-22.5 -15t-62 -8t-75.5 -21.5q-3 -2 -16 -14.5t-19 -12.5l-5 4l-1 6q3 11 42 57q64 93 98 93z" />
    <glyph glyph-name="nacute" unicode="&#x144;" horiz-adv-x="613" 
d="M181 524l29 -39q81 62 156 62q51 0 97.5 -29.5t71 -86.5t24.5 -120v-12l-6 -88v-4q0 -33 20 -79t20 -63q0 -32 -18.5 -50t-73.5 -18h-37q-60 0 -89.5 18.5t-45.5 74.5q-6 23 -6 50q0 45 29.5 147.5t29.5 144.5q0 24 -10.5 43.5t-28 27.5t-33.5 8q-14 0 -51 -18t-37 -27
q16 -28 24.5 -67.5t8.5 -74.5l-3 -88q0 -21 6.5 -58t6.5 -58q0 -29 -7.5 -59t-32.5 -48t-72 -18h-5q-56 0 -80.5 11.5t-33.5 34.5q-14 28 -14 61q0 44 32 134.5t39 127.5t9 59v15q0 19 -6.5 40.5t-25 38t-44.5 19.5q-3 0 -3 4q0 6 4 6h122q14 0 34 -22zM365 728
q23 -5 43 -19.5t20 -32.5l-1 -8q-4 -17 -13 -27.5t-22.5 -15t-62 -8t-75.5 -21.5q-3 -2 -16 -14.5t-19 -12.5l-5 4l-1 6q3 11 42 57q64 93 98 93z" />
    <glyph glyph-name="Ncommaaccent" unicode="&#x145;" horiz-adv-x="678" 
d="M210 -173q0 7 14 24t16 22q0 1 -13 11t-15 15q-5 12 -6 29q0 35 11 54t68 19q56 0 56 -53q0 -12 -3 -31t-9 -25q-89 -82 -101 -82q-8 0 -13 4.5t-5 12.5zM213 304q-4 25 -9 58.5t-12.5 86.5t-9.5 69t-5 31t-5 25.5t-5 19.5t-7 9l-6 -4q-17 -21 -29 -126t-15 -239v-4
q0 -50 17 -104q15 -50 17.5 -64.5t2.5 -24.5q0 -18 -19.5 -29.5t-43.5 -11.5q-28 0 -43.5 20t-15.5 78q0 53 9 120.5t21 109.5q1 4 35.5 112t34.5 161q0 26 -7.5 48.5t-22 35t-29.5 16.5q-2 1 -11 1.5t-12.5 3.5t-3.5 7q0 5 17 5l159 2h74q18 0 37 -14t35 -39t33 -60
q18 -44 44.5 -128t43.5 -126q12 -30 25 -40q8 33 31.5 89t31.5 89t8 64q0 74 -39 116q-10 11 -25.5 21t-15.5 13q0 15 16 15h53q36 0 55 -2q5 -1 5 -13q0 -2 -1 -5.5t-8 -10.5l-8 -8q-15 -16 -15 -47q20 -83 20 -151q0 -30 -12.5 -95t-12.5 -97l1 -17q3 -70 24 -113l27 -51
q11 -22 11 -51t-11 -47q-4 -6 -15 -11t-20 -6q-54 -6 -108 -6q-64 0 -115 8q-5 1 -19.5 7t-29.5 23q-28 29 -54 70t-41.5 92t-26.5 119z" />
    <glyph glyph-name="ncommaaccent" unicode="&#x146;" horiz-adv-x="608" 
d="M237 -180q0 7 14 24t16 22q0 1 -13 11t-15 15q-5 12 -6 29q0 35 11 54t68 19q56 0 56 -53q0 -12 -3 -31t-9 -25q-89 -82 -101 -82q-8 0 -13 4.5t-5 12.5zM181 524l29 -39q81 62 156 62q51 0 97.5 -29.5t71 -86.5t24.5 -120v-12l-6 -88v-4q0 -33 20 -79t20 -63
q0 -32 -18.5 -50t-73.5 -18h-37q-60 0 -89.5 18.5t-45.5 74.5q-6 23 -6 50q0 45 29.5 147.5t29.5 144.5q0 24 -11 45.5t-29 30.5t-34 9q-31 0 -85 -42l-3 -3q16 -29 25.5 -71t9.5 -77l-3 -88q0 -21 6.5 -58t6.5 -58q0 -29 -7.5 -59t-32.5 -48t-72 -18h-5q-56 0 -80.5 11.5
t-33.5 34.5q-14 28 -14 61q0 44 32 134.5t39 127.5t9 59v15q0 19 -6.5 40.5t-25 38t-44.5 19.5q-3 0 -3 4q0 6 4 6h122q14 0 34 -22z" />
    <glyph glyph-name="Ncaron" unicode="&#x147;" horiz-adv-x="686" 
d="M213 304q-2 13 -7 86t-12 112.5t-15.5 63.5t-19.5 38l-5 -5q-6 -38 -22 -173.5t-22 -195.5q0 -50 17 -104q15 -50 17.5 -64.5t2.5 -24.5q0 -18 -19.5 -29.5t-43.5 -11.5q-28 0 -43.5 20t-15.5 78q0 53 9 120.5t21 109.5q1 4 35.5 112t34.5 161q0 26 -7.5 48.5t-22 35
t-29.5 16.5q-2 1 -11 1.5t-12.5 3.5t-3.5 7q0 5 17 5l159 2h74q18 0 37 -14t35 -39t33 -60q18 -44 44.5 -128t43.5 -126q12 -30 25 -40q4 40 28 94.5t30.5 73t9.5 38.5t3 36q0 74 -39 116q-10 11 -25.5 21t-15.5 13q0 15 16 15h53q36 0 55 -2q5 -1 5 -13q0 -2 -1 -5.5
t-8 -10.5l-8 -8q-15 -16 -15 -47q20 -83 20 -151q0 -30 -12.5 -95t-12.5 -97l1 -17q3 -70 24 -113l27 -51q11 -22 11 -51t-11 -47q-4 -6 -15 -11t-20 -6q-54 -6 -108 -6q-64 0 -115 8q-5 1 -19.5 7t-29.5 23q-28 29 -54 70t-41.5 92t-26.5 119zM257 872q43 -36 92 -73
q6 25 8.5 42.5t5.5 33.5q1 6 25 10t53 4q26 0 44.5 -3.5t18.5 -10.5q-15 -11 -31.5 -28.5t-34.5 -48.5t-25.5 -40t-17 -14t-21.5 -5q-22 0 -43 10q-11 30 -24.5 45.5t-36.5 38t-34 33.5q-6 6 -6 12t6 6q8 0 21 -12z" />
    <glyph glyph-name="ncaron" unicode="&#x148;" horiz-adv-x="613" 
d="M181 524l29 -39q81 62 156 62q51 0 97.5 -29.5t71 -86.5t24.5 -120v-12l-6 -88v-4q0 -33 20 -79t20 -63q0 -32 -18.5 -50t-73.5 -18h-37q-60 0 -89.5 18.5t-45.5 74.5q-6 23 -6 50q0 45 29.5 147.5t29.5 144.5q0 24 -10.5 43.5t-28 27.5t-33.5 8q-14 0 -51 -18t-37 -27
q16 -28 24.5 -67.5t8.5 -74.5l-3 -88q0 -21 6.5 -58t6.5 -58q0 -29 -7.5 -59t-32.5 -48t-72 -18h-5q-56 0 -80.5 11.5t-33.5 34.5q-14 28 -14 61q0 44 32 134.5t39 127.5t9 59v15q0 19 -6.5 40.5t-25 38t-44.5 19.5q-3 0 -3 4q0 6 4 6h122q14 0 34 -22zM150 705
q43 -36 92 -73q6 25 8.5 42.5t5.5 33.5q1 6 25 10t53 4q26 0 44.5 -3.5t18.5 -10.5q-15 -11 -31.5 -28.5t-34.5 -48.5t-25.5 -40t-17 -14t-21.5 -5q-22 0 -43 10q-11 30 -24.5 45.5t-36.5 38t-34 33.5q-6 6 -6 12t6 6q8 0 21 -12z" />
    <glyph glyph-name="Omacron" unicode="&#x14c;" 
d="M449 -6q-37 -4 -79 -4q-44 0 -94 7.5t-92.5 28t-71.5 51t-51 80.5t-29 136v12q0 38 15.5 88.5t44 102t67 97t81 74.5t76 38.5t58.5 9.5h6q109 0 191.5 -55t129.5 -153q21 -44 31 -91t10 -89q0 -61 -20 -119t-58.5 -104t-93.5 -75t-121 -35zM304 189q0 -69 24 -112.5
t70 -43.5q13 0 26 7.5t21.5 25.5t8.5 36q0 3 -1.5 25t-2.5 47t-1 44v26q0 10 4 48t17 137.5t13 100.5l1 15q0 51 -17.5 89.5t-42 51t-47.5 12.5q-16 0 -32.5 -13t-16.5 -31l1 -15q19 -74 19 -131q0 -4 -0.5 -14t-19 -116.5t-19.5 -113.5q-5 -30 -5 -75zM532 839
q33 0 44.5 -8.5t11.5 -23.5v-12q0 -17 -12.5 -25.5t-46.5 -8.5h-238q-34 0 -45.5 8t-11.5 25v17q0 13 10 20.5t37 7.5h251z" />
    <glyph glyph-name="omacron" unicode="&#x14d;" horiz-adv-x="560" 
d="M20 242q0 60 17 115t51 97t83.5 66t111.5 24q27 0 61 -8.5t67 -30.5t62.5 -59t48 -90t18.5 -107v-6q-1 -43 -15 -86.5t-50 -83t-88 -58t-103 -18.5h-14q-51 0 -96.5 16t-80 47t-54 77.5t-19.5 104.5zM221 158q0 -51 16.5 -74t41.5 -23q14 0 23 11t9 23q1 79 3.5 102
t9.5 44l4 12q38 107 38 148q-1 29 -13.5 60t-32.5 46t-41 15q-8 0 -19.5 -5t-21 -17.5t-7.5 -23.5q13 -61 15 -75.5t3 -32.5t1 -35v-5q0 -29 -14.5 -85t-14.5 -85zM401 672q33 0 44.5 -8.5t11.5 -23.5v-12q0 -17 -12.5 -25.5t-46.5 -8.5h-238q-34 0 -45.5 8t-11.5 25v17
q0 13 10 20.5t37 7.5h251z" />
    <glyph glyph-name="Ohungarumlaut" unicode="&#x150;" 
d="M449 -6q-37 -4 -79 -4q-44 0 -94 7.5t-92.5 28t-71.5 51t-51 80.5t-29 136v12q0 38 15.5 88.5t44 102t67 97t81 74.5t76 38.5t58.5 9.5h6q109 0 191.5 -55t129.5 -153q21 -44 31 -91t10 -89q0 -61 -20 -119t-58.5 -104t-93.5 -75t-121 -35zM304 189q0 -69 24 -112.5
t70 -43.5q13 0 26 7.5t21.5 25.5t8.5 36q0 3 -1.5 25t-2.5 47t-1 44v26q0 10 4 48t17 137.5t13 100.5l1 15q0 51 -17.5 89.5t-42 51t-47.5 12.5q-16 0 -32.5 -13t-16.5 -31l1 -15q19 -74 19 -131q0 -4 -0.5 -14t-19 -116.5t-19.5 -113.5q-5 -30 -5 -75zM294 767q18 26 20 39
l8 49q10 64 84 64h8q25 -1 25 -16l-3 -24l-2 -5q-2 -12 -8 -29.5t-12 -21.5q-1 -1 -3.5 -3t-30.5 -23.5t-47.5 -34t-26.5 -12.5q-14 0 -14 10zM439 763q15 26 17 30.5t3 8.5l8 49q8 38 30 51t54 13h7q26 -1 26 -16l-3 -24l-2 -5q-2 -12 -8 -29.5t-13 -21.5q-95 -73 -107 -73
q-14 0 -14 10z" />
    <glyph glyph-name="ohungarumlaut" unicode="&#x151;" horiz-adv-x="560" 
d="M20 242q0 60 17 115t51 97t83.5 66t111.5 24q27 0 61 -8.5t67 -30.5t62.5 -59t48 -90t18.5 -107v-6q-1 -43 -15 -86.5t-50 -83t-88 -58t-103 -18.5h-14q-51 0 -96.5 16t-80 47t-54 77.5t-19.5 104.5zM221 158q0 -51 16.5 -74t41.5 -23q14 0 23 11t9 23q1 79 3.5 102
t9.5 44l4 12q38 107 38 148q-1 29 -13.5 60t-32.5 46t-41 15q-8 0 -19.5 -5t-21 -17.5t-7.5 -23.5q13 -61 15 -75.5t3 -32.5t1 -35v-5q0 -29 -14.5 -85t-14.5 -85zM171 606q18 26 20 39l8 49q10 64 84 64h8q25 -1 25 -16l-3 -24l-2 -5q-2 -12 -8 -29.5t-12 -21.5
q-1 -1 -3.5 -3t-30.5 -23.5t-47.5 -34t-26.5 -12.5q-14 0 -14 10zM316 602q15 26 17 30.5t3 8.5l8 49q8 38 30 51t54 13h7q26 -1 26 -16l-3 -24l-2 -5q-2 -12 -8 -29.5t-13 -21.5q-95 -73 -107 -73q-14 0 -14 10z" />
    <glyph glyph-name="OE" unicode="&#x152;" horiz-adv-x="1101" 
d="M449 -5q-37 -4 -79 -4q-44 0 -94 7.5t-92.5 28t-71.5 51t-51 80.5t-29 136v12q0 38 15.5 88.5t44 102t67 97t81 74.5t76 38.5t58.5 9.5q38 0 74 -6q8 7 46 7h220l230 1q26 0 49 -11t38 -38t23 -66l2 -22q0 -19 -7 -58t-7 -57q0 -11 4 -33t4 -32t-9 -10t-26.5 9.5
t-26.5 16.5q-55 38 -84 129q-11 33 -35.5 69t-65.5 59.5t-85 23.5l-25 -2q55 -75 55 -178l-5 -100q0 -2 10.5 -4t23.5 -2q26 0 38.5 16.5t12.5 42.5q0 19 -6.5 37.5t-31.5 50.5l-1 5q0 8 5.5 14t11.5 6l3 -1q12 -5 25 -22.5t21 -48.5t8 -55q0 -16 -5 -35.5t-5 -26.5
q0 -14 4 -53.5t4 -53.5q0 -23 -14 -46.5t-36 -23.5q-6 0 -11.5 2.5t-5.5 7.5q0 6 6 19.5t6 19.5q0 29 -22.5 54t-52.5 27q-8 -40 -8 -102q0 -44 13.5 -81.5t38 -60.5t61.5 -28q0 65 29 116.5t79 84.5q15 9 35 14.5t37 5.5q20 0 35.5 -16.5t15.5 -50.5q0 -16 -6.5 -50
t-6.5 -50v-5l1 -4q12 -41 12 -73q0 -29 -20 -44.5t-52 -15.5h-171q-8 0 -18 1.5t-22 6.5t-23 12.5t-22 16t-13 10.5q-16 -17 -39 -31.5t-47 -14.5l-110 -1q-42 0 -68 9zM304 190q0 -69 24 -112.5t70 -43.5q13 0 26 7.5t21.5 25.5t8.5 36q0 3 -1.5 25t-2.5 47t-1 44v26
q0 10 4 48t17 137.5t13 100.5l1 15q0 36 -13 77.5t-39 61.5t-57 20q-15 0 -31 -16t-16 -34l1 -15q19 -74 19 -131q0 -4 -0.5 -14t-19 -116.5t-19.5 -113.5q-5 -30 -5 -75z" />
    <glyph glyph-name="oe" unicode="&#x153;" horiz-adv-x="919" 
d="M32 242q0 60 17 115t51 97t83.5 66t111.5 24q51 0 96 -21t79 -58q75 85 196 85q17 0 41.5 -4.5t52.5 -17t56 -35t47.5 -57t19.5 -72.5q0 -24 -11.5 -38.5t-34.5 -14.5q-15 0 -45.5 9t-46.5 9q-40 0 -96 -37.5t-75 -73.5q-15 -28 -15 -58q0 -18 10.5 -41t35.5 -40.5
t53 -17.5q35 0 75.5 16t77.5 56t57 90q2 6 4.5 13t12.5 49l4 4q3 -1 3 -5q0 -77 -40 -145.5t-107 -106.5q-64 -37 -154 -37q-52 0 -91.5 7.5t-69.5 26.5q-27 -15 -63.5 -23.5t-70.5 -8.5h-14q-51 0 -96.5 16t-80 47t-54 77.5t-19.5 104.5zM233 158q0 -51 16.5 -74t41.5 -23
q14 0 23 11t9 23q1 79 3.5 102t9.5 44l4 12q38 107 38 148q-1 29 -13.5 60t-32.5 46t-41 15q-8 0 -19.5 -5t-21 -17.5t-7.5 -23.5q13 -61 15 -75.5t3 -32.5t1 -35v-5q0 -29 -14.5 -85t-14.5 -85zM549 383q0 -12 1 -30.5t11 -109.5q22 23 53 48.5t32 25.5q26 23 47 63.5
t21 73.5q0 13 -6.5 31t-23.5 32.5t-38 14.5q-12 0 -28.5 -6t-31.5 -25t-26 -51t-11 -67z" />
    <glyph glyph-name="Racute" unicode="&#x154;" horiz-adv-x="802" 
d="M35 60q-14 28 -14 81q0 29 9 68.5t39.5 111t39 93.5t15.5 46t11.5 47t4.5 47q0 112 -55 138q-2 1 -33.5 3.5t-30.5 11.5q0 8 16 8l364 2q59 0 85 -2q37 -2 79 -15t80.5 -38.5t64 -68t28.5 -98.5v-7q0 -32 -16.5 -54t-41.5 -36t-57.5 -26.5t-39.5 -15.5q43 -19 77 -44.5
t54 -55t22 -63.5q1 -22 11 -42t21 -31q24 -24 24 -63q0 -17 -9.5 -33t-39 -25t-97.5 -9q-40 0 -120 10l-7 1q-38 5 -58 43.5t-20 84.5q0 18 6.5 60t6.5 61q0 34 -18.5 59.5t-41.5 35t-38 9.5q-8 0 -13 -2q-16 -45 -16 -120q0 -28 12.5 -85t12.5 -85q0 -33 -7.5 -47.5
t-30.5 -19.5t-94 -5l-55 -1q-25 0 -51 3q-25 2 -47 22t-32 46zM351 401q4 -2 19 -5.5t34 -3.5q21 0 36.5 13t21.5 37t6 56q0 45 -17 87t-43 65.5t-61 23.5h-4q-17 0 -17 -9q30 -76 30 -139zM433 897q23 -5 43 -19.5t20 -32.5l-1 -8q-4 -17 -13 -27.5t-22.5 -15t-62 -8
t-75.5 -21.5q-3 -2 -16 -14.5t-19 -12.5l-5 4l-1 6q3 11 42 57q64 93 98 93z" />
    <glyph glyph-name="racute" unicode="&#x155;" horiz-adv-x="510" 
d="M151 -9q-46 0 -73.5 8.5t-42.5 28.5t-15 61q0 24 2 38q2 15 8 33.5t22.5 48.5t20.5 39q16 35 26.5 76t10.5 76q0 42 -9 66.5t-24 41.5q-6 7 -28.5 16t-22.5 19q0 1 0.5 2.5t10.5 1.5l17 -1h83q54 0 101 -63q28 23 68 40t75 17q28 0 57 -13t45.5 -38.5t16.5 -54.5
q0 -38 -11 -55.5t-29 -17.5q-11 0 -33.5 8.5t-33.5 8.5l-39 -5q-15 0 -25 8.5t-10 35.5l2 31q0 12 -9.5 24t-24.5 12q-5 0 -17.5 -6t-26.5 -19q11 -25 17.5 -57t6.5 -59q0 -21 -6 -67t-6 -69q0 -19 8.5 -58.5t8.5 -58.5q0 -37 -31.5 -68t-89.5 -31zM382 720q23 -5 43 -19.5
t20 -32.5l-1 -8q-4 -17 -13 -27.5t-22.5 -15t-62 -8t-75.5 -21.5q-3 -2 -16 -14.5t-19 -12.5l-5 4l-1 6q3 11 42 57q64 93 98 93z" />
    <glyph glyph-name="Rcommaaccent" unicode="&#x156;" horiz-adv-x="802" 
d="M360 -186q0 7 14 24t16 22q0 1 -13 11t-15 15q-5 12 -6 29q0 35 11 54t68 19q56 0 56 -53q0 -12 -3 -31t-9 -25q-89 -82 -101 -82q-8 0 -13 4.5t-5 12.5zM35 60q-14 28 -14 81q0 29 9 68.5t39.5 111t39 93.5t15.5 46t11.5 47t4.5 47q0 112 -55 138q-2 1 -33.5 3.5
t-30.5 11.5q0 8 16 8l364 2q59 0 85 -2q37 -2 79 -15t80.5 -38.5t64 -68t28.5 -98.5v-7q0 -32 -16.5 -54t-41.5 -36t-57.5 -26.5t-39.5 -15.5q43 -19 77 -44.5t54 -55t22 -63.5q1 -22 11 -42t21 -31q24 -24 24 -63q0 -17 -9.5 -33t-39 -25t-97.5 -9q-40 0 -120 10l-7 1
q-38 5 -58 43.5t-20 84.5q0 18 6.5 60t6.5 61q0 34 -18.5 59.5t-41.5 35t-38 9.5q-8 0 -13 -2q-16 -45 -16 -120q0 -28 12.5 -85t12.5 -85q0 -33 -7.5 -47.5t-30.5 -19.5t-94 -5l-55 -1q-25 0 -51 3q-25 2 -47 22t-32 46zM351 401q4 -2 19 -5.5t34 -3.5q21 0 36.5 13
t21.5 37t6 56q0 45 -17 87t-43 65.5t-61 23.5h-4q-17 0 -17 -9q30 -76 30 -139z" />
    <glyph glyph-name="rcommaaccent" unicode="&#x157;" horiz-adv-x="510" 
d="M91 -193q0 7 14 24t16 22q0 1 -13 11t-15 15q-5 12 -6 29q0 35 11 54t68 19q56 0 56 -53q0 -12 -3 -31t-9 -25q-89 -82 -101 -82q-8 0 -13 4.5t-5 12.5zM151 -9q-46 0 -73.5 8.5t-42.5 28.5t-15 61q0 24 2 38q2 15 8 33.5t22.5 48.5t20.5 39q16 35 26.5 76t10.5 76
q0 42 -9 66.5t-24 41.5q-6 7 -28.5 16t-22.5 19q0 1 0.5 2.5t10.5 1.5l17 -1h83q54 0 101 -63q28 23 68 40t75 17q28 0 57 -13t45.5 -38.5t16.5 -54.5q0 -38 -11 -55.5t-29 -17.5q-11 0 -33.5 8.5t-33.5 8.5l-39 -5q-15 0 -25 8.5t-10 35.5l2 31q0 12 -9.5 24t-24.5 12
q-5 0 -17.5 -6t-26.5 -19q11 -25 17.5 -57t6.5 -59q0 -21 -6 -67t-6 -69q0 -19 8.5 -58.5t8.5 -58.5q0 -37 -31.5 -68t-89.5 -31z" />
    <glyph glyph-name="Rcaron" unicode="&#x158;" horiz-adv-x="802" 
d="M35 60q-14 28 -14 81q0 29 9 68.5t39.5 111t39 93.5t15.5 46t11.5 47t4.5 47q0 112 -55 138q-2 1 -33.5 3.5t-30.5 11.5q0 8 16 8l364 2q59 0 85 -2q37 -2 79 -15t80.5 -38.5t64 -68t28.5 -98.5v-7q0 -32 -16.5 -54t-41.5 -36t-57.5 -26.5t-39.5 -15.5q43 -19 77 -44.5
t54 -55t22 -63.5q1 -22 11 -42t21 -31q24 -24 24 -63q0 -17 -9.5 -33t-39 -25t-97.5 -9q-40 0 -120 10l-7 1q-38 5 -58 43.5t-20 84.5q0 18 6.5 60t6.5 61q0 34 -18.5 59.5t-41.5 35t-38 9.5q-8 0 -13 -2q-16 -45 -16 -120q0 -28 12.5 -85t12.5 -85q0 -33 -7.5 -47.5
t-30.5 -19.5t-94 -5l-55 -1q-25 0 -51 3q-25 2 -47 22t-32 46zM351 401q4 -2 19 -5.5t34 -3.5q21 0 36.5 13t21.5 37t6 56q0 45 -17 87t-43 65.5t-61 23.5h-4q-17 0 -17 -9q30 -76 30 -139zM252 886q43 -36 92 -73q6 25 8.5 42.5t5.5 33.5q1 6 25 10t53 4q26 0 44.5 -3.5
t18.5 -10.5q-15 -11 -31.5 -28.5t-34.5 -48.5t-25.5 -40t-17 -14t-21.5 -5q-22 0 -43 10q-11 30 -24.5 45.5t-36.5 38t-34 33.5q-6 6 -6 12t6 6q8 0 21 -12z" />
    <glyph glyph-name="rcaron" unicode="&#x159;" horiz-adv-x="510" 
d="M151 -9q-46 0 -73.5 8.5t-42.5 28.5t-15 61q0 24 2 38q2 15 8 33.5t22.5 48.5t20.5 39q16 35 26.5 76t10.5 76q0 42 -9 66.5t-24 41.5q-6 7 -28.5 16t-22.5 19q0 1 0.5 2.5t10.5 1.5l17 -1h83q54 0 101 -63q28 23 68 40t75 17q28 0 57 -13t45.5 -38.5t16.5 -54.5
q0 -38 -11 -55.5t-29 -17.5q-11 0 -33.5 8.5t-33.5 8.5l-39 -5q-15 0 -25 8.5t-10 35.5l2 31q0 12 -9.5 24t-24.5 12q-5 0 -17.5 -6t-26.5 -19q11 -25 17.5 -57t6.5 -59q0 -21 -6 -67t-6 -69q0 -19 8.5 -58.5t8.5 -58.5q0 -37 -31.5 -68t-89.5 -31zM147 709q43 -36 92 -73
q6 25 8.5 42.5t5.5 33.5q1 6 25 10t53 4q26 0 44.5 -3.5t18.5 -10.5q-15 -11 -31.5 -28.5t-34.5 -48.5t-25.5 -40t-17 -14t-21.5 -5q-22 0 -43 10q-11 30 -24.5 45.5t-36.5 38t-34 33.5q-6 6 -6 12t6 6q8 0 21 -12z" />
    <glyph glyph-name="Sacute" unicode="&#x15a;" horiz-adv-x="652" 
d="M37 180q0 15 7 34t25.5 34t42.5 15q30 0 61 -24t56 -82q32 -93 64 -124.5t76 -31.5q15 0 35 7t35 26.5t15 44.5q0 37 -22.5 69.5t-58.5 53.5q-6 4 -24 14.5t-98.5 55t-83 46.5t-23.5 15.5t-36.5 26.5t-33 32.5t-31.5 51.5t-14 76q0 46 27 93.5t76 75t99 27.5h107
q38 0 68.5 -14t65.5 -38t50 -33q19 -11 37 -15q5 -1 15.5 -2t15 -5t4.5 -18q0 -18 -11 -40t-37.5 -37t-55.5 -15q-37 0 -69 24.5t-53 60.5q-1 2 -4.5 8.5t-20 38t-31.5 45.5t-31.5 20t-37.5 6q-34 0 -56.5 -21t-22.5 -55q0 -21 16.5 -44.5t54.5 -43.5l238 -128
q80 -43 116 -100.5t36 -116.5q0 -26 -7 -52t-17 -44q-28 -48 -87.5 -78t-144.5 -30q-130 0 -194 23t-99 68q-39 48 -39 100zM358 897q23 -5 43 -19.5t20 -32.5l-1 -8q-4 -17 -13 -27.5t-22.5 -15t-62 -8t-75.5 -21.5q-3 -2 -16 -14.5t-19 -12.5l-5 4l-1 6q3 11 42 57
q64 93 98 93z" />
    <glyph glyph-name="sacute" unicode="&#x15b;" horiz-adv-x="542" 
d="M22 117q-2 8 -2 23q0 28 15 43t36 15q11 0 27 -7q13 -7 28 -20t40.5 -46.5t38 -45.5t24.5 -20.5t27 -13t33 -4.5q27 0 47 15t20 42q0 23 -19 43.5t-43 27.5l-122 37q-30 9 -64 29.5t-54 46.5q-12 16 -18.5 41t-6.5 48q0 52 26 90.5t73 61t108 22.5q54 0 91 -13t55 -30
l35 -34q9 -10 22 -21.5t54 -30.5q4 -3 4 -12q-1 -14 -22 -25.5t-35 -11.5q-13 0 -27 4.5t-26.5 13.5t-21 18.5t-52.5 66.5t-94 57q-25 0 -43.5 -19.5t-18.5 -45.5q0 -22 17.5 -39t41.5 -26l179 -66q36 -13 74 -46.5t46 -66.5q7 -22 7 -49q0 -50 -25.5 -90t-67.5 -62t-98 -22
h-58q-98 0 -150.5 21.5t-80.5 61.5q-5 7 -12 19.5t-8 19.5zM355 727q23 -5 43 -19.5t20 -32.5l-1 -8q-4 -17 -13 -27.5t-22.5 -15t-62 -8t-75.5 -21.5q-3 -2 -16 -14.5t-19 -12.5l-5 4l-1 6q3 11 42 57q64 93 98 93z" />
    <glyph glyph-name="Scedilla" unicode="&#x15e;" horiz-adv-x="652" 
d="M269 -194q0 7 14 24t16 22q0 1 -13 11t-15 15q-5 12 -6 29q0 35 11 54t68 19q56 0 56 -53q0 -12 -3 -31t-9 -25q-89 -82 -101 -82q-8 0 -13 4.5t-5 12.5zM37 180q0 15 7 34t25.5 34t42.5 15q30 0 61 -24t56 -82q32 -93 64 -124.5t76 -31.5q15 0 35 7t35 26.5t15 44.5
q0 37 -22.5 69.5t-58.5 53.5q-6 4 -24 14.5t-98.5 55t-83 46.5t-23.5 15.5t-36.5 26.5t-33 32.5t-31.5 51.5t-14 76q0 46 27 93.5t76 75t99 27.5h107q38 0 68.5 -14t65.5 -38t50 -33q19 -11 37 -15q5 -1 15.5 -2t15 -5t4.5 -18q0 -18 -11 -40t-37.5 -37t-55.5 -15
q-37 0 -69 24.5t-53 60.5q-1 2 -4.5 8.5t-20 38t-31.5 45.5t-31.5 20t-37.5 6q-34 0 -56.5 -21t-22.5 -55q0 -21 16.5 -44.5t54.5 -43.5l238 -128q80 -43 116 -100.5t36 -116.5q0 -26 -7 -52t-17 -44q-28 -48 -87.5 -78t-144.5 -30q-130 0 -194 23t-99 68q-39 48 -39 100z
" />
    <glyph glyph-name="scedilla" unicode="&#x15f;" horiz-adv-x="542" 
d="M217 -195q0 7 14 24t16 22q0 1 -13 11t-15 15q-5 12 -6 29q0 35 11 54t68 19q56 0 56 -53q0 -12 -3 -31t-9 -25q-89 -82 -101 -82q-8 0 -13 4.5t-5 12.5zM22 117q-2 8 -2 23q0 28 15 43t36 15q11 0 27 -7q13 -7 28 -20t40.5 -46.5t38 -45.5t24.5 -20.5t27 -13t33 -4.5
q27 0 47 15t20 42q0 23 -19 43.5t-43 27.5l-122 37q-30 9 -64 29.5t-54 46.5q-12 16 -18.5 41t-6.5 48q0 52 26 90.5t73 61t108 22.5q54 0 91 -13t55 -30l35 -34q9 -10 22 -21.5t54 -30.5q4 -3 4 -12q-1 -14 -22 -25.5t-35 -11.5q-13 0 -27 4.5t-26.5 13.5t-21 18.5
t-52.5 66.5t-94 57q-25 0 -43.5 -19.5t-18.5 -45.5q0 -22 17.5 -39t41.5 -26l179 -66q36 -13 74 -46.5t46 -66.5q7 -22 7 -49q0 -50 -25.5 -90t-67.5 -62t-98 -22h-58q-98 0 -150.5 21.5t-80.5 61.5q-5 7 -12 19.5t-8 19.5z" />
    <glyph glyph-name="Scaron" unicode="&#x160;" horiz-adv-x="646" 
d="M33 180q0 15 7 34t25.5 34t42.5 15q30 0 61 -24t56 -82q32 -93 64 -124.5t76 -31.5q15 0 35 7t35 26.5t15 44.5q0 37 -22.5 69.5t-58.5 53.5q-6 4 -24 14.5t-98.5 55t-83 46.5t-23.5 15.5t-36.5 26.5t-33 32.5t-31.5 51.5t-14 76q0 46 27 93.5t76 75t99 27.5h107
q38 0 68.5 -14t65.5 -38t50 -33q19 -11 37 -15q5 -1 15.5 -2t15 -5t4.5 -18q0 -18 -11 -40t-37.5 -37t-55.5 -15q-37 0 -69 24.5t-53 60.5q-1 2 -4.5 8.5t-20 38t-31.5 45.5t-31.5 20t-37.5 6q-34 0 -56.5 -21t-22.5 -55q0 -21 16.5 -44.5t54.5 -43.5l238 -128
q80 -43 116 -100.5t36 -116.5q0 -26 -7 -52t-17 -44q-28 -48 -87.5 -78t-144.5 -30q-130 0 -194 23t-99 68q-39 48 -39 100zM199 884q43 -36 92 -73q6 25 8.5 42.5t5.5 33.5q1 6 25 10t53 4q26 0 44.5 -3.5t18.5 -10.5q-15 -11 -31.5 -28.5t-34.5 -48.5t-25.5 -40t-17 -14
t-21.5 -5q-22 0 -43 10q-11 30 -24.5 45.5t-36.5 38t-34 33.5q-6 6 -6 12t6 6q8 0 21 -12z" />
    <glyph glyph-name="scaron" unicode="&#x161;" horiz-adv-x="542" 
d="M22 117q-2 8 -2 23q0 28 15 43t36 15q11 0 27 -7q13 -7 28 -20t40.5 -46.5t38 -45.5t24.5 -20.5t27 -13t33 -4.5q27 0 47 15t20 42q0 23 -19 43.5t-43 27.5l-122 37q-30 9 -64 29.5t-54 46.5q-12 16 -18.5 41t-6.5 48q0 52 26 90.5t73 61t108 22.5q54 0 91 -13t55 -30
l35 -34q9 -10 22 -21.5t54 -30.5q4 -3 4 -12q-1 -14 -22 -25.5t-35 -11.5q-13 0 -27 4.5t-26.5 13.5t-21 18.5t-52.5 66.5t-94 57q-25 0 -43.5 -19.5t-18.5 -45.5q0 -22 17.5 -39t41.5 -26l179 -66q36 -13 74 -46.5t46 -66.5q7 -22 7 -49q0 -50 -25.5 -90t-67.5 -62t-98 -22
h-58q-98 0 -150.5 21.5t-80.5 61.5q-5 7 -12 19.5t-8 19.5zM150 715q43 -36 92 -73q6 25 8.5 42.5t5.5 33.5q1 6 25 10t53 4q26 0 44.5 -3.5t18.5 -10.5q-15 -11 -31.5 -28.5t-34.5 -48.5t-25.5 -40t-17 -14t-21.5 -5q-22 0 -43 10q-11 30 -24.5 45.5t-36.5 38t-34 33.5
q-6 6 -6 12t6 6q8 0 21 -12z" />
    <glyph glyph-name="Tcommaaccent" unicode="&#x162;" horiz-adv-x="814" 
d="M336 -198q0 7 14 24t16 22q0 1 -13 11t-15 15q-5 12 -6 29q0 35 11 54t68 19q56 0 56 -53q0 -12 -3 -31t-9 -25q-89 -82 -101 -82q-8 0 -13 4.5t-5 12.5zM215 112q0 44 12 92t40 116t35 88q28 75 28 177q0 30 -10 57t-27.5 43t-42.5 16q-45 0 -84 -76q-32 -62 -49 -91
q-9 -17 -32 -39t-38 -22q-8 0 -13.5 8.5t-5.5 27.5q0 18 9 63.5t9 81.5q0 8 -6.5 24t-6.5 24q0 10 13 13l148 1l295 -1h240q23 0 35.5 -21t16 -48.5t3.5 -49.5q0 -21 -2.5 -47.5t-2.5 -42.5t7 -49l-3 -3q-16 0 -30 9t-27 27t-30.5 54.5t-24.5 45.5q-21 29 -49 53.5
t-55.5 35.5t-49.5 12q42 -70 42 -162q0 -59 -12 -143q-2 -11 -7 -38t-7 -43t-2 -29q0 -51 29 -148q6 -32 6 -56q0 -15 -9 -34t-30.5 -34t-44.5 -15h-171q-51 0 -73.5 34t-22.5 89z" />
    <glyph glyph-name="tcommaaccent" unicode="&#x163;" horiz-adv-x="339" 
d="M93 -195q0 7 14 24t16 22q0 1 -13 11t-15 15q-5 12 -6 29q0 35 11 54t68 19q56 0 56 -53q0 -12 -3 -31t-9 -25q-89 -82 -101 -82q-8 0 -13 4.5t-5 12.5zM19 129q0 21 21.5 105.5t47.5 154.5q23 61 23 113v10l-92 1q-4 4 -4 11t5 14h93q0 17 -4.5 41t-11.5 40
q-21 47 -35 70q-7 14 -7 21q0 6 6 6l33 1q18 0 34 -4q19 -6 40.5 -22t34.5 -40q21 -37 48 -113h77q6 -2 6 -10q0 -12 -6 -16h-72l2 -54l-3 -149q0 -73 10 -103q16 -48 16 -90q0 -39 -14 -66.5t-39 -41.5t-65 -14h-27q-50 0 -67 12q-24 16 -37 47.5t-13 75.5z" />
    <glyph glyph-name="Tcaron" unicode="&#x164;" horiz-adv-x="814" 
d="M215 112q0 44 12 92t40 116t35 88q28 75 28 177q0 30 -10 57t-27.5 43t-42.5 16q-45 0 -84 -76q-32 -62 -49 -91q-9 -17 -32 -39t-38 -22q-8 0 -13.5 8.5t-5.5 27.5q0 18 9 63.5t9 81.5q0 8 -6.5 24t-6.5 24q0 10 13 13l148 1l295 -1h240q23 0 35.5 -21t16 -48.5
t3.5 -49.5q0 -21 -2.5 -47.5t-2.5 -42.5t7 -49l-3 -3q-16 0 -30 9t-27 27t-30.5 54.5t-24.5 45.5q-21 29 -49 53.5t-55.5 35.5t-49.5 12q42 -70 42 -162q0 -59 -12 -143q-2 -11 -7 -38t-7 -43t-2 -29q0 -51 29 -148q6 -32 6 -56q0 -15 -9 -34t-30.5 -34t-44.5 -15h-171
q-51 0 -73.5 34t-22.5 89zM294 884q43 -36 92 -73q6 25 8.5 42.5t5.5 33.5q1 6 25 10t53 4q26 0 44.5 -3.5t18.5 -10.5q-15 -11 -31.5 -28.5t-34.5 -48.5t-25.5 -40t-17 -14t-21.5 -5q-22 0 -43 10q-11 30 -24.5 45.5t-36.5 38t-34 33.5q-6 6 -6 12t6 6q8 0 21 -12z" />
    <glyph glyph-name="tcaron" unicode="&#x165;" horiz-adv-x="422" 
d="M19 129q0 21 21.5 105.5t47.5 154.5q23 61 23 113v10l-92 1q-4 4 -4 11t5 14h93q0 17 -4.5 41t-11.5 40q-21 47 -35 70q-7 14 -7 21q0 6 6 6l33 1q18 0 34 -4q19 -6 40.5 -22t34.5 -40q21 -37 48 -113h77q6 -2 6 -10q0 -12 -6 -16h-72l2 -54l-3 -149q0 -73 10 -103
q16 -48 16 -90q0 -39 -14 -66.5t-39 -41.5t-65 -14h-27q-50 0 -67 12q-24 16 -37 47.5t-13 75.5zM277 583q0 7 15.5 26.5t17.5 25.5q0 1 -14.5 12t-16.5 17q-6 18 -7 33q0 38 10 55.5t31.5 21.5t47.5 4q62 0 62 -59q0 -14 -3 -35t-10 -28q-54 -49 -80 -71t-33 -22
q-9 0 -14.5 5.5t-5.5 14.5z" />
    <glyph glyph-name="Umacron" unicode="&#x16a;" horiz-adv-x="668" 
d="M344 -19q-125 0 -185 24t-86 74.5t-26 138.5q0 20 5.5 53t35.5 117t38.5 124.5t8.5 74.5q-4 52 -18.5 76t-37.5 33q-7 3 -47 3q-9 0 -9 7q0 10 6 10l264 1q5 -1 20 -21.5t29 -45.5q32 -52 32 -142q0 -59 -18 -173.5t-18 -152.5q0 -89 64 -89q31 0 57.5 17t51 54.5t40 100
t15.5 115.5q0 44 -7.5 101t-19.5 103q-21 78 -59 105q-6 4 -13 6.5t-18 4t-15 2.5q-2 2 -2 11q0 4 21 4l129 -1l42 1q9 0 17.5 -4.5t8.5 -9.5l-1 -3l-44 -1q-13 0 -29 -13.5t-20 -38.5v-4q0 -3 1.5 -15.5t35.5 -131.5t34 -188q0 -63 -17 -115q-22 -69 -64.5 -116.5
t-93.5 -71.5t-108 -24zM455 842q33 0 44.5 -8.5t11.5 -23.5v-12q0 -17 -12.5 -25.5t-46.5 -8.5h-238q-34 0 -45.5 8t-11.5 25v17q0 13 10 20.5t37 7.5h251z" />
    <glyph glyph-name="umacron" unicode="&#x16b;" horiz-adv-x="590" 
d="M21 89l-1 19q0 5 1.5 17t32 97t39.5 111q14 42 14 79t-14 62.5t-30 35t-23 12.5q-3 1 -11.5 2.5t-8.5 8.5q0 4 3 7.5t8 3.5h125q15 0 49 -44q26 -37 44 -92t18 -149q0 -51 -6 -203q34 11 63.5 50.5t50.5 99.5t21 114q0 56 -13 103t-39.5 74t-66.5 27h-22q-13 0 -14 13
q0 9 30 9h17q99 0 118 -1q31 -1 61 -27t56 -68.5t37 -84.5q9 -37 9 -65q0 -18 -9 -106l-1 -13q0 -13 5.5 -36.5t5.5 -46.5v-6q0 -19 -4.5 -37t-10.5 -26q-14 -20 -40 -29.5t-82 -9.5h-9q-25 0 -46.5 5t-34.5 15t-29 40q-55 -37 -90 -48.5t-67 -11.5q-72 0 -102 23t-34 76z
M364 676q33 0 44.5 -8.5t11.5 -23.5v-12q0 -17 -12.5 -25.5t-46.5 -8.5h-238q-34 0 -45.5 8t-11.5 25v17q0 13 10 20.5t37 7.5h251z" />
    <glyph glyph-name="Uring" unicode="&#x16e;" horiz-adv-x="668" 
d="M344 -19q-125 0 -185 24t-86 74.5t-26 138.5q0 20 5.5 53t35.5 117t38.5 124.5t8.5 74.5q-4 52 -18.5 76t-37.5 33q-7 3 -47 3q-9 0 -9 7q0 10 6 10l264 1q5 -1 20 -21.5t29 -45.5q32 -52 32 -142q0 -59 -18 -173.5t-18 -152.5q0 -89 64 -89q31 0 57.5 17t51 54.5t40 100
t15.5 115.5q0 44 -7.5 101t-19.5 103q-21 78 -59 105q-6 4 -13 6.5t-18 4t-15 2.5q-2 2 -2 11q0 4 21 4l129 -1l42 1q9 0 17.5 -4.5t8.5 -9.5l-1 -3l-44 -1q-13 0 -29 -13.5t-20 -38.5v-4q0 -3 1.5 -15.5t35.5 -131.5t34 -188q0 -63 -17 -115q-22 -69 -64.5 -116.5
t-93.5 -71.5t-108 -24zM272 816q0 35 19.5 55.5t55.5 20.5q32 0 52.5 -22t20.5 -54q0 -33 -22 -51.5t-54 -18.5q-31 0 -51.5 18.5t-20.5 51.5zM345 867q-14 0 -23 -11t-9 -29v-5q1 -19 10.5 -29.5t21.5 -10.5q30 0 30 47q0 13 -8 25.5t-22 12.5z" />
    <glyph glyph-name="uring" unicode="&#x16f;" horiz-adv-x="590" 
d="M21 89l-1 19q0 5 1.5 17t32 97t39.5 111q14 42 14 79t-14 62.5t-30 35t-23 12.5q-3 1 -11.5 2.5t-8.5 8.5q0 4 3 7.5t8 3.5h125q15 0 49 -44q26 -37 44 -92t18 -149q0 -51 -6 -203q34 11 63.5 50.5t50.5 99.5t21 114q0 56 -13 103t-39.5 74t-66.5 27h-22q-13 0 -14 13
q0 9 30 9h17q99 0 118 -1q31 -1 61 -27t56 -68.5t37 -84.5q9 -37 9 -65q0 -18 -9 -106l-1 -13q0 -13 5.5 -36.5t5.5 -46.5v-6q0 -19 -4.5 -37t-10.5 -26q-14 -20 -40 -29.5t-82 -9.5h-9q-25 0 -46.5 5t-34.5 15t-29 40q-55 -37 -90 -48.5t-67 -11.5q-72 0 -102 23t-34 76z
M162 651q0 35 19.5 55.5t55.5 20.5q32 0 52.5 -22t20.5 -54q0 -33 -22 -51.5t-54 -18.5q-31 0 -51.5 18.5t-20.5 51.5zM235 702q-14 0 -23 -11t-9 -29v-5q1 -19 10.5 -29.5t21.5 -10.5q30 0 30 47q0 13 -8 25.5t-22 12.5z" />
    <glyph glyph-name="Uhungarumlaut" unicode="&#x170;" horiz-adv-x="668" 
d="M344 -19q-125 0 -185 24t-86 74.5t-26 138.5q0 20 5.5 53t35.5 117t38.5 124.5t8.5 74.5q-4 52 -18.5 76t-37.5 33q-7 3 -47 3q-9 0 -9 7q0 10 6 10l264 1q5 -1 20 -21.5t29 -45.5q32 -52 32 -142q0 -59 -18 -173.5t-18 -152.5q0 -89 64 -89q31 0 57.5 17t51 54.5t40 100
t15.5 115.5q0 44 -7.5 101t-19.5 103q-21 78 -59 105q-6 4 -13 6.5t-18 4t-15 2.5q-2 2 -2 11q0 4 21 4l129 -1l42 1q9 0 17.5 -4.5t8.5 -9.5l-1 -3l-44 -1q-13 0 -29 -13.5t-20 -38.5v-4q0 -3 1.5 -15.5t35.5 -131.5t34 -188q0 -63 -17 -115q-22 -69 -64.5 -116.5
t-93.5 -71.5t-108 -24zM262 779q18 26 20 39l8 49q10 64 84 64h8q25 -1 25 -16l-3 -24l-2 -5q-2 -12 -8 -29.5t-12 -21.5q-1 -1 -3.5 -3t-30.5 -23.5t-47.5 -34t-26.5 -12.5q-14 0 -14 10zM407 775q15 26 17 30.5t3 8.5l8 49q8 38 30 51t54 13h7q26 -1 26 -16l-3 -24l-2 -5
q-2 -12 -8 -29.5t-13 -21.5q-95 -73 -107 -73q-14 0 -14 10z" />
    <glyph glyph-name="uhungarumlaut" unicode="&#x171;" horiz-adv-x="590" 
d="M21 89l-1 19q0 5 1.5 17t32 97t39.5 111q14 42 14 79t-14 62.5t-30 35t-23 12.5q-3 1 -11.5 2.5t-8.5 8.5q0 4 3 7.5t8 3.5h125q15 0 49 -44q26 -37 44 -92t18 -149q0 -51 -6 -203q34 11 63.5 50.5t50.5 99.5t21 114q0 56 -13 103t-39.5 74t-66.5 27h-22q-13 0 -14 13
q0 9 30 9h17q99 0 118 -1q31 -1 61 -27t56 -68.5t37 -84.5q9 -37 9 -65q0 -18 -9 -106l-1 -13q0 -13 5.5 -36.5t5.5 -46.5v-6q0 -19 -4.5 -37t-10.5 -26q-14 -20 -40 -29.5t-82 -9.5h-9q-25 0 -46.5 5t-34.5 15t-29 40q-55 -37 -90 -48.5t-67 -11.5q-72 0 -102 23t-34 76z
M147 606q18 26 20 39l8 49q10 64 84 64h8q25 -1 25 -16l-3 -24l-2 -5q-2 -12 -8 -29.5t-12 -21.5q-1 -1 -3.5 -3t-30.5 -23.5t-47.5 -34t-26.5 -12.5q-14 0 -14 10zM292 602q15 26 17 30.5t3 8.5l8 49q8 38 30 51t54 13h7q26 -1 26 -16l-3 -24l-2 -5q-2 -12 -8 -29.5
t-13 -21.5q-95 -73 -107 -73q-14 0 -14 10z" />
    <glyph glyph-name="Uogonek" unicode="&#x172;" horiz-adv-x="668" 
d="M364 -97q20 0 20 -16q0 -3 -3.5 -14t-13.5 -21q-27 -24 -65 -24q-29 0 -48 21t-19 50q0 22 12 44.5t36 39.5q-97 5 -146 32t-69.5 75.5t-20.5 127.5q0 20 5.5 53t35.5 117t38.5 124.5t8.5 74.5q-4 52 -18.5 76t-37.5 33q-7 3 -47 3q-9 0 -9 7q0 10 6 10l264 1
q5 -1 20 -21.5t29 -45.5q32 -52 32 -142q0 -59 -18 -173.5t-18 -152.5q0 -89 64 -89q31 0 57.5 17t51 54.5t40 100t15.5 115.5q0 44 -7.5 101t-19.5 103q-21 78 -59 105q-6 4 -13 6.5t-18 4t-15 2.5q-2 2 -2 11q0 4 21 4l129 -1l42 1q9 0 17.5 -4.5t8.5 -9.5l-1 -3l-44 -1
q-13 0 -29 -13.5t-20 -38.5v-4q0 -3 1.5 -15.5t35.5 -131.5t34 -188q0 -63 -17 -115q-22 -69 -64.5 -116.5t-93.5 -71.5t-108 -24h-24q-17 -18 -31 -42t-14 -40q0 -19 18 -19q12 0 40 11.5t31 11.5z" />
    <glyph glyph-name="uogonek" unicode="&#x173;" horiz-adv-x="590" 
d="M538 -83q20 0 20 -16q0 -3 -3.5 -14t-13.5 -21q-27 -24 -65 -24q-29 0 -48 21t-19 50q0 18 9.5 39t30.5 38h-16h-9q-25 0 -46.5 5t-34.5 15t-29 40q-55 -37 -90 -48.5t-67 -11.5q-72 0 -102 23t-34 76l-1 19q0 5 1.5 17t32 97t39.5 111q14 42 14 79t-14 62.5t-30 35
t-23 12.5q-3 1 -11.5 2.5t-8.5 8.5q0 4 3 7.5t8 3.5h125q15 0 49 -44q26 -37 44 -92t18 -149q0 -51 -6 -203q34 11 63.5 50.5t50.5 99.5t21 114q0 56 -13 103t-39.5 74t-66.5 27h-22q-13 0 -14 13q0 9 30 9h17q99 0 118 -1q31 -1 61 -27t56 -68.5t37 -84.5q9 -37 9 -65
q0 -18 -9 -106l-1 -13q0 -13 5.5 -36.5t5.5 -46.5v-6q0 -19 -4.5 -37t-10.5 -26q-20 -28 -62 -35q-17 -19 -30.5 -42.5t-13.5 -38.5q0 -19 18 -19q12 0 40 11.5t31 11.5z" />
    <glyph glyph-name="Ydieresis" unicode="&#x178;" horiz-adv-x="777" 
d="M482 -11h-201q-4 0 -21 4t-20 6q-22 10 -37 30.5t-15 63.5q0 21 4 41t11 44t10 34q17 70 17 111q0 81 -38.5 177t-96.5 148q-2 2 -24.5 17t-32 24t-9.5 15q0 13 7 13h238q2 0 9.5 -3.5t37 -31.5t81 -97.5t76.5 -125.5q19 13 46.5 46.5t55.5 79.5t28 62q0 25 -16.5 38
t-48 15t-36 3.5t-4.5 4.5q0 9 4 9h230q12 0 12 -7q-1 -6 -9 -9q-2 -1 -22 -7t-39.5 -19.5t-31.5 -38.5l-140 -299q-15 -33 -15 -75q0 -49 27 -116q3 -8 11.5 -27t13.5 -34.5t5 -34.5q0 -10 -8 -24t-25.5 -25.5t-33.5 -11.5zM427 810q0 23 18.5 41.5t40.5 18.5q24 0 44 -16
t20 -40q0 -22 -16 -39.5t-41 -17.5h-4q-58 3 -62 53zM227 810q0 23 18.5 41.5t40.5 18.5q24 0 44 -16t20 -40q0 -22 -16 -39.5t-41 -17.5h-4q-58 3 -62 53z" />
    <glyph glyph-name="Zacute" unicode="&#x179;" horiz-adv-x="721" 
d="M473 650q0 25 -16.5 41t-62.5 16q-44 0 -87 -23t-73 -53t-48 -54q-3 -4 -23 -32.5t-39 -49t-43 -34.5q-16 -8 -19 -8q-10 0 -10 22q0 24 12 73t12 73q0 39 -22 83q0 14 33 14l411 1h117q13 0 25.5 -9t19 -30t6.5 -44q0 -41 -19.5 -84.5t-78.5 -117t-198 -218.5
q-29 -29 -45 -58t-16 -47q0 -22 17.5 -39t40.5 -17q35 0 61 19.5t55 77.5t49.5 78t41.5 26.5t40 6.5q31 0 51.5 -11.5t20.5 -47.5q0 -12 -3.5 -43.5t-3.5 -48.5l5 -68q0 -21 -14 -38.5t-35 -17.5h-164q-104 0 -132.5 6.5t-61.5 33.5q-7 -3 -27.5 -19.5t-32 -18.5t-16.5 -2
h-98q-14 1 -28.5 10.5t-23.5 23t-12 20.5q-12 30 -12 63q0 43 18 89.5t46 85.5q34 56 234 207l13 9q3 2 34.5 24.5t55.5 44.5t34.5 44t10.5 41zM444 897q23 -5 43 -19.5t20 -32.5l-1 -8q-4 -17 -13 -27.5t-22.5 -15t-62 -8t-75.5 -21.5q-3 -2 -16 -14.5t-19 -12.5l-5 4l-1 6
q3 11 42 57q64 93 98 93z" />
    <glyph glyph-name="zacute" unicode="&#x17a;" horiz-adv-x="540" 
d="M227 24q-42 -29 -75 -29q-52 1 -82.5 23t-40 52t-9.5 54q0 34 12.5 68t31.5 53q27 35 111 81q12 7 71 36.5t93 56.5q21 18 21 47q0 23 -15 40.5t-40 17.5q-24 0 -48.5 -14.5t-42.5 -31.5q-9 -7 -33 -27t-57.5 -53.5t-38.5 -37.5q-32 -30 -45 -30t-13 27l1 15q1 8 17 70.5
t16 73.5l-1 17q0 12 14 12l139 1l261 -1q19 0 30.5 -25t11.5 -74q0 -19 -10.5 -48.5t-34.5 -63.5t-49 -52q-85 -62 -133 -109t-48 -70q0 -18 10.5 -27.5t28.5 -9.5q13 0 27 10t22 22l74 120q8 13 25.5 28.5t32.5 15.5q32 0 45.5 -17t13.5 -49l-7 -59l7 -77
q0 -22 -11.5 -39.5t-40.5 -25.5t-66 -8l-80 3q-10 1 -26 4.5t-26 7.5q-1 0 -19.5 11t-23.5 11zM391 730q23 -5 43 -19.5t20 -32.5l-1 -8q-4 -17 -13 -27.5t-22.5 -15t-62 -8t-75.5 -21.5q-3 -2 -16 -14.5t-19 -12.5l-5 4l-1 6q3 11 42 57q64 93 98 93z" />
    <glyph glyph-name="Zdotaccent" unicode="&#x17b;" horiz-adv-x="721" 
d="M473 650q0 25 -16.5 41t-62.5 16q-44 0 -87 -23t-73 -53t-48 -54q-3 -4 -23 -32.5t-39 -49t-43 -34.5q-16 -8 -19 -8q-10 0 -10 22q0 24 12 73t12 73q0 39 -22 83q0 14 33 14l411 1h117q13 0 25.5 -9t19 -30t6.5 -44q0 -41 -19.5 -84.5t-78.5 -117t-198 -218.5
q-29 -29 -45 -58t-16 -47q0 -22 17.5 -39t40.5 -17q35 0 61 19.5t55 77.5t49.5 78t41.5 26.5t40 6.5q31 0 51.5 -11.5t20.5 -47.5q0 -12 -3.5 -43.5t-3.5 -48.5l5 -68q0 -21 -14 -38.5t-35 -17.5h-164q-104 0 -132.5 6.5t-61.5 33.5q-7 -3 -27.5 -19.5t-32 -18.5t-16.5 -2
h-98q-14 1 -28.5 10.5t-23.5 23t-12 20.5q-12 30 -12 63q0 43 18 89.5t46 85.5q34 56 234 207l13 9q3 2 34.5 24.5t55.5 44.5t34.5 44t10.5 41zM299 810q0 23 18.5 41.5t40.5 18.5q24 0 44 -16t20 -40q0 -22 -16 -39.5t-41 -17.5h-4q-58 3 -62 53z" />
    <glyph glyph-name="zdotaccent" unicode="&#x17c;" horiz-adv-x="540" 
d="M227 24q-42 -29 -75 -29q-52 1 -82.5 23t-40 52t-9.5 54q0 34 12.5 68t31.5 53q27 35 111 81q12 7 71 36.5t93 56.5q21 18 21 47q0 23 -15 40.5t-40 17.5q-24 0 -48.5 -14.5t-42.5 -31.5q-9 -7 -33 -27t-57.5 -53.5t-38.5 -37.5q-32 -30 -45 -30t-13 27l1 15q1 8 17 70.5
t16 73.5l-1 17q0 12 14 12l139 1l261 -1q19 0 30.5 -25t11.5 -74q0 -19 -10.5 -48.5t-34.5 -63.5t-49 -52q-85 -62 -133 -109t-48 -70q0 -18 10.5 -27.5t28.5 -9.5q13 0 27 10t22 22l74 120q8 13 25.5 28.5t32.5 15.5q32 0 45.5 -17t13.5 -49l-7 -59l7 -77
q0 -22 -11.5 -39.5t-40.5 -25.5t-66 -8l-80 3q-10 1 -26 4.5t-26 7.5q-1 0 -19.5 11t-23.5 11zM208 640q0 23 18.5 41.5t40.5 18.5q24 0 44 -16t20 -40q0 -22 -16 -39.5t-41 -17.5h-4q-58 3 -62 53z" />
    <glyph glyph-name="Zcaron" unicode="&#x17d;" horiz-adv-x="721" 
d="M473 650q0 25 -16.5 41t-62.5 16q-44 0 -87 -23t-73 -53t-48 -54q-3 -4 -23 -32.5t-39 -49t-43 -34.5q-16 -8 -19 -8q-10 0 -10 22q0 24 12 73t12 73q0 39 -22 83q0 14 33 14l411 1h117q13 0 25.5 -9t19 -30t6.5 -44q0 -41 -19.5 -84.5t-78.5 -117t-198 -218.5
q-29 -29 -45 -58t-16 -47q0 -22 17.5 -39t40.5 -17q35 0 61 19.5t55 77.5t49.5 78t41.5 26.5t40 6.5q31 0 51.5 -11.5t20.5 -47.5q0 -12 -3.5 -43.5t-3.5 -48.5l5 -68q0 -21 -14 -38.5t-35 -17.5h-164q-104 0 -132.5 6.5t-61.5 33.5q-7 -3 -27.5 -19.5t-32 -18.5t-16.5 -2
h-98q-14 1 -28.5 10.5t-23.5 23t-12 20.5q-12 30 -12 63q0 43 18 89.5t46 85.5q34 56 234 207l13 9q3 2 34.5 24.5t55.5 44.5t34.5 44t10.5 41zM253 888q43 -36 92 -73q6 25 8.5 42.5t5.5 33.5q1 6 25 10t53 4q26 0 44.5 -3.5t18.5 -10.5q-15 -11 -31.5 -28.5t-34.5 -48.5
t-25.5 -40t-17 -14t-21.5 -5q-22 0 -43 10q-11 30 -24.5 45.5t-36.5 38t-34 33.5q-6 6 -6 12t6 6q8 0 21 -12z" />
    <glyph glyph-name="zcaron" unicode="&#x17e;" horiz-adv-x="540" 
d="M227 24q-42 -29 -75 -29q-52 1 -82.5 23t-40 52t-9.5 54q0 34 12.5 68t31.5 53q27 35 111 81q12 7 71 36.5t93 56.5q21 18 21 47q0 23 -15 40.5t-40 17.5q-24 0 -48.5 -14.5t-42.5 -31.5q-9 -7 -33 -27t-57.5 -53.5t-38.5 -37.5q-32 -30 -45 -30t-13 27l1 15q1 8 17 70.5
t16 73.5l-1 17q0 12 14 12l139 1l261 -1q19 0 30.5 -25t11.5 -74q0 -19 -10.5 -48.5t-34.5 -63.5t-49 -52q-85 -62 -133 -109t-48 -70q0 -18 10.5 -27.5t28.5 -9.5q13 0 27 10t22 22l74 120q8 13 25.5 28.5t32.5 15.5q32 0 45.5 -17t13.5 -49l-7 -59l7 -77
q0 -22 -11.5 -39.5t-40.5 -25.5t-66 -8l-80 3q-10 1 -26 4.5t-26 7.5q-1 0 -19.5 11t-23.5 11zM163 719q43 -36 92 -73q6 25 8.5 42.5t5.5 33.5q1 6 25 10t53 4q26 0 44.5 -3.5t18.5 -10.5q-15 -11 -31.5 -28.5t-34.5 -48.5t-25.5 -40t-17 -14t-21.5 -5q-22 0 -43 10
q-11 30 -24.5 45.5t-36.5 38t-34 33.5q-6 6 -6 12t6 6q8 0 21 -12z" />
    <glyph glyph-name="Scommaaccent" unicode="&#x218;" horiz-adv-x="646" 
d="M33 180q0 15 7 34t25.5 34t42.5 15q30 0 61 -24t56 -82q32 -93 64 -124.5t76 -31.5q15 0 35 7t35 26.5t15 44.5q0 37 -22.5 69.5t-58.5 53.5q-6 4 -24 14.5t-98.5 55t-83 46.5t-23.5 15.5t-36.5 26.5t-33 32.5t-31.5 51.5t-14 76q0 46 27 93.5t76 75t99 27.5h107
q38 0 68.5 -14t65.5 -38t50 -33q19 -11 37 -15q5 -1 15.5 -2t15 -5t4.5 -18q0 -18 -11 -40t-37.5 -37t-55.5 -15q-37 0 -69 24.5t-53 60.5q-1 2 -4.5 8.5t-20 38t-31.5 45.5t-31.5 20t-37.5 6q-34 0 -56.5 -21t-22.5 -55q0 -21 16.5 -44.5t54.5 -43.5l238 -128
q80 -43 116 -100.5t36 -116.5q0 -26 -7 -52t-17 -44q-28 -48 -87.5 -78t-144.5 -30q-130 0 -194 23t-99 68q-39 48 -39 100zM278 -208q0 7 14 24t16 22q0 1 -13 11t-15 15q-5 12 -6 29q0 35 11 54t68 19q56 0 56 -53q0 -12 -3 -31t-9 -25q-89 -82 -101 -82q-8 0 -13 4.5
t-5 12.5z" />
    <glyph glyph-name="scommaaccent" unicode="&#x219;" horiz-adv-x="542" 
d="M22 117q-2 8 -2 23q0 28 15 43t36 15q11 0 27 -7q13 -7 28 -20t40.5 -46.5t38 -45.5t24.5 -20.5t27 -13t33 -4.5q27 0 47 15t20 42q0 23 -19 43.5t-43 27.5l-122 37q-30 9 -64 29.5t-54 46.5q-12 16 -18.5 41t-6.5 48q0 52 26 90.5t73 61t108 22.5q54 0 91 -13t55 -30
l35 -34q9 -10 22 -21.5t54 -30.5q4 -3 4 -12q-1 -14 -22 -25.5t-35 -11.5q-13 0 -27 4.5t-26.5 13.5t-21 18.5t-52.5 66.5t-94 57q-25 0 -43.5 -19.5t-18.5 -45.5q0 -22 17.5 -39t41.5 -26l179 -66q36 -13 74 -46.5t46 -66.5q7 -22 7 -49q0 -50 -25.5 -90t-67.5 -62t-98 -22
h-58q-98 0 -150.5 21.5t-80.5 61.5q-5 7 -12 19.5t-8 19.5zM217 -195q0 7 14 24t16 22q0 1 -13 11t-15 15q-5 12 -6 29q0 35 11 54t68 19q56 0 56 -53q0 -12 -3 -31t-9 -25q-89 -82 -101 -82q-8 0 -13 4.5t-5 12.5z" />
    <glyph glyph-name="uni021A" unicode="&#x21a;" horiz-adv-x="814" 
d="M336 -198q0 7 14 24t16 22q0 1 -13 11t-15 15q-5 12 -6 29q0 35 11 54t68 19q56 0 56 -53q0 -12 -3 -31t-9 -25q-89 -82 -101 -82q-8 0 -13 4.5t-5 12.5zM215 112q0 44 12 92t40 116t35 88q28 75 28 177q0 30 -10 57t-27.5 43t-42.5 16q-45 0 -84 -76q-32 -62 -49 -91
q-9 -17 -32 -39t-38 -22q-8 0 -13.5 8.5t-5.5 27.5q0 18 9 63.5t9 81.5q0 8 -6.5 24t-6.5 24q0 10 13 13l148 1l295 -1h240q23 0 35.5 -21t16 -48.5t3.5 -49.5q0 -21 -2.5 -47.5t-2.5 -42.5t7 -49l-3 -3q-16 0 -30 9t-27 27t-30.5 54.5t-24.5 45.5q-21 29 -49 53.5
t-55.5 35.5t-49.5 12q42 -70 42 -162q0 -59 -12 -143q-2 -11 -7 -38t-7 -43t-2 -29q0 -51 29 -148q6 -32 6 -56q0 -15 -9 -34t-30.5 -34t-44.5 -15h-171q-51 0 -73.5 34t-22.5 89z" />
    <glyph glyph-name="uni021B" unicode="&#x21b;" horiz-adv-x="339" 
d="M93 -195q0 7 14 24t16 22q0 1 -13 11t-15 15q-5 12 -6 29q0 35 11 54t68 19q56 0 56 -53q0 -12 -3 -31t-9 -25q-89 -82 -101 -82q-8 0 -13 4.5t-5 12.5zM19 129q0 21 21.5 105.5t47.5 154.5q23 61 23 113v10l-92 1q-4 4 -4 11t5 14h93q0 17 -4.5 41t-11.5 40
q-21 47 -35 70q-7 14 -7 21q0 6 6 6l33 1q18 0 34 -4q19 -6 40.5 -22t34.5 -40q21 -37 48 -113h77q6 -2 6 -10q0 -12 -6 -16h-72l2 -54l-3 -149q0 -73 10 -103q16 -48 16 -90q0 -39 -14 -66.5t-39 -41.5t-65 -14h-27q-50 0 -67 12q-24 16 -37 47.5t-13 75.5z" />
    <glyph glyph-name="circumflex" unicode="&#x2c6;" horiz-adv-x="314" 
d="M47 614q-13 -12 -21 -12q-6 0 -6 6t6 12q11 11 34 33.5t36.5 38t24.5 45.5q21 10 43 10q10 0 19.5 -4t18 -14t22.5 -34t25 -39t23 -26t22 -19q0 -5 -14.5 -9.5t-48.5 -4.5q-29 0 -53 4t-25 10q-3 16 -5.5 33.5t-8.5 42.5q-49 -37 -92 -73z" />
    <glyph glyph-name="caron" unicode="&#x2c7;" horiz-adv-x="314" 
d="M47 730q43 -36 92 -73q6 25 8.5 42.5t5.5 33.5q1 6 25 10t53 4q26 0 44.5 -3.5t18.5 -10.5q-15 -11 -31.5 -28.5t-34.5 -48.5t-25.5 -40t-17 -14t-21.5 -5q-22 0 -43 10q-11 30 -24.5 45.5t-36.5 38t-34 33.5q-6 6 -6 12t6 6q8 0 21 -12z" />
    <glyph glyph-name="breve" unicode="&#x2d8;" horiz-adv-x="283" 
d="M131 589q-31 0 -59.5 16.5t-40 41.5t-11.5 47v16q0 2 2.5 4.5t4.5 2.5q11 0 11 -25v-6q0 -10 9.5 -19.5t31.5 -14.5t47 -5q16 0 36 5t30.5 15t10.5 22v9q0 8 7 14.5t16 6.5q37 0 37 -33q0 -32 -18.5 -53t-49.5 -32.5t-64 -11.5z" />
    <glyph glyph-name="dotaccent" unicode="&#x2d9;" horiz-adv-x="163" 
d="M20 640q0 23 18.5 41.5t40.5 18.5q24 0 44 -16t20 -40q0 -22 -16 -39.5t-41 -17.5h-4q-58 3 -62 53z" />
    <glyph glyph-name="ring" unicode="&#x2da;" horiz-adv-x="188" 
d="M20 645q0 35 19.5 55.5t55.5 20.5q32 0 52.5 -22t20.5 -54q0 -33 -22 -51.5t-54 -18.5q-31 0 -51.5 18.5t-20.5 51.5zM93 696q-14 0 -23 -11t-9 -29v-5q1 -19 10.5 -29.5t21.5 -10.5q30 0 30 47q0 13 -8 25.5t-22 12.5z" />
    <glyph glyph-name="ogonek" unicode="&#x2db;" horiz-adv-x="189" 
d="M149 -81q20 0 20 -16q0 -3 -3.5 -14t-13.5 -21q-27 -24 -65 -24q-29 0 -48 21t-19 50q0 25 15.5 49.5t45.5 41.5h33q-19 -19 -36.5 -46.5t-17.5 -44.5q0 -19 18 -19q12 0 40 11.5t31 11.5z" />
    <glyph glyph-name="tilde" unicode="&#x2dc;" horiz-adv-x="341" 
d="M71 574l-6 -4q-40 23 -40 63q0 25 18.5 44.5t45.5 19.5q24 0 70.5 -16.5t70.5 -16.5q26 0 45 12.5t25 30.5l4 1q12 -19 12 -47q0 -68 -63 -68q-6 0 -24.5 2t-62.5 15t-58 15h-6q-16 0 -25.5 -9t-9.5 -24q0 -6 4 -18z" />
    <glyph glyph-name="hungarumlaut" unicode="&#x2dd;" horiz-adv-x="332" 
d="M22 606q18 26 20 39l8 49q10 64 84 64h8q25 -1 25 -16l-3 -24l-2 -5q-2 -12 -8 -29.5t-12 -21.5q-1 -1 -3.5 -3t-30.5 -23.5t-47.5 -34t-26.5 -12.5q-14 0 -14 10zM167 602q15 26 17 30.5t3 8.5l8 49q8 38 30 51t54 13h7q26 -1 26 -16l-3 -24l-2 -5q-2 -12 -8 -29.5
t-13 -21.5q-95 -73 -107 -73q-14 0 -14 10z" />
    <glyph glyph-name="endash" unicode="&#x2013;" horiz-adv-x="797" 
d="M651 455q66 0 91 -17.5t25 -52.5v-28q0 -37 -25 -55.5t-98 -18.5h-495q-40 0 -67 5.5t-39.5 23t-12.5 42.5v38q0 29 20 46t77 17h524z" />
    <glyph glyph-name="emdash" unicode="&#x2014;" horiz-adv-x="890" 
d="M751 449q66 0 91 -17.5t25 -52.5v-12q0 -37 -25 -55.5t-98 -18.5h-625q-40 0 -67 5.5t-39.5 23t-12.5 42.5v22q0 29 20 46t77 17h654z" />
    <glyph glyph-name="quoteleft" unicode="&#x2018;" horiz-adv-x="288" 
d="M260 782q0 -11 -25.5 -43t-28.5 -41q0 -2 23.5 -20t27.5 -28q8 -25 11 -54q0 -43 -7.5 -72.5t-34 -45.5t-104.5 -16q-102 0 -102 97q0 38 6.5 67t15.5 37q85 79 128.5 115.5t56.5 36.5q33 0 33 -33z" />
    <glyph glyph-name="quoteright" unicode="&#x2019;" horiz-adv-x="288" 
d="M28 495q0 11 25.5 43t28.5 41q0 2 -23.5 20t-27.5 28q-8 25 -11 54q0 43 7.5 72.5t34 45.5t104.5 16q102 0 102 -97q0 -38 -6.5 -67t-15.5 -37q-85 -79 -128.5 -115.5t-56.5 -36.5q-33 0 -33 33z" />
    <glyph glyph-name="quotesinglbase" unicode="&#x201a;" horiz-adv-x="288" 
d="M28 -115q0 11 25.5 43t28.5 41q0 2 -23.5 20t-27.5 28q-8 25 -11 54q0 43 7.5 72.5t34 45.5t104.5 16q102 0 102 -97q0 -38 -6.5 -67t-15.5 -37q-85 -79 -128.5 -115.5t-56.5 -36.5q-33 0 -33 33z" />
    <glyph glyph-name="quotedblleft" unicode="&#x201c;" horiz-adv-x="558" 
d="M530 782q0 -11 -25.5 -43t-28.5 -41q0 -2 23.5 -20t27.5 -28q8 -25 11 -54q0 -43 -7.5 -72.5t-34 -45.5t-104.5 -16q-102 0 -102 97q0 38 6.5 67t15.5 37q85 79 128.5 115.5t56.5 36.5q33 0 33 -33zM260 782q0 -11 -25.5 -43t-28.5 -41q0 -2 23.5 -20t27.5 -28
q8 -25 11 -54q0 -43 -7.5 -72.5t-34 -45.5t-104.5 -16q-102 0 -102 97q0 38 6.5 67t15.5 37q85 79 128.5 115.5t56.5 36.5q33 0 33 -33z" />
    <glyph glyph-name="quotedblright" unicode="&#x201d;" horiz-adv-x="558" 
d="M28 495q0 11 25.5 43t28.5 41q0 2 -23.5 20t-27.5 28q-8 25 -11 54q0 43 7.5 72.5t34 45.5t104.5 16q102 0 102 -97q0 -38 -6.5 -67t-15.5 -37q-85 -79 -128.5 -115.5t-56.5 -36.5q-33 0 -33 33zM298 495q0 11 25.5 43t28.5 41q0 2 -23.5 20t-27.5 28q-8 25 -11 54
q0 43 7.5 72.5t34 45.5t104.5 16q102 0 102 -97q0 -38 -6.5 -67t-15.5 -37q-85 -79 -128.5 -115.5t-56.5 -36.5q-33 0 -33 33z" />
    <glyph glyph-name="quotedblbase" unicode="&#x201e;" horiz-adv-x="558" 
d="M28 -105q0 11 25.5 43t28.5 41q0 2 -23.5 20t-27.5 28q-8 25 -11 54q0 43 7.5 72.5t34 45.5t104.5 16q102 0 102 -97q0 -38 -6.5 -67t-15.5 -37q-85 -79 -128.5 -115.5t-56.5 -36.5q-33 0 -33 33zM298 -105q0 11 25.5 43t28.5 41q0 2 -23.5 20t-27.5 28q-8 25 -11 54
q0 43 7.5 72.5t34 45.5t104.5 16q102 0 102 -97q0 -38 -6.5 -67t-15.5 -37q-85 -79 -128.5 -115.5t-56.5 -36.5q-33 0 -33 33z" />
    <glyph glyph-name="dagger" unicode="&#x2020;" horiz-adv-x="381" 
d="M171 11v431h-104q-28 0 -37.5 7t-9.5 22v8q0 25 38 25h113v189q0 5 6 11t15 6q7 0 12.5 -4.5t5.5 -11.5v-190h105q20 0 33 -5.5t13 -21.5v-6q0 -14 -10 -21.5t-39 -7.5h-102v-429q-1 -4 -5.5 -11.5t-11.5 -7.5q-8 0 -15 5t-7 12z" />
    <glyph glyph-name="daggerdbl" unicode="&#x2021;" horiz-adv-x="381" 
d="M210 692l-1 -188h105q20 0 33 -5.5t13 -21.5v-6q0 -14 -10 -21.5t-39 -7.5h-102v-181h104q28 0 37.5 -7t9.5 -22v-8q0 -25 -38 -25h-113v-189q0 -5 -6 -11t-15 -6q-7 0 -12.5 4.5t-5.5 11.5v190h-105q-20 0 -33 5.5t-13 21.5v6q0 14 10 21.5t39 7.5h102v181h-104
q-28 0 -37.5 7t-9.5 22v8q0 25 38 25h113v189q0 5 6 11t15 6q6 0 11 -3.5t6 -9.5z" />
    <glyph glyph-name="bullet" unicode="&#x2022;" horiz-adv-x="340" 
d="M182 517q24 0 55 -10.5t57 -39.5t26 -72v-72q0 -30 -16 -58.5t-53.5 -45t-78.5 -16.5q-40 0 -71.5 12t-47.5 27t-24.5 34t-8.5 43v84q0 30 18 57t60 42t84 15z" />
    <glyph glyph-name="ellipsis" unicode="&#x2026;" horiz-adv-x="870" 
d="M155 265q44 0 79.5 -28.5t35.5 -73.5v-70q0 -25 -13 -48.5t-45 -37.5t-65 -14t-62.5 11t-47 32t-17.5 54v80q0 31 18.5 52t50 32t66.5 11zM445 265q44 0 79.5 -28.5t35.5 -73.5v-70q0 -25 -13 -48.5t-45 -37.5t-65 -14t-62.5 11t-47 32t-17.5 54v80q0 31 18.5 52t50 32
t66.5 11zM735 265q44 0 79.5 -28.5t35.5 -73.5v-70q0 -25 -13 -48.5t-45 -37.5t-65 -14t-62.5 11t-47 32t-17.5 54v80q0 31 18.5 52t50 32t66.5 11z" />
    <glyph glyph-name="guilsinglleft" unicode="&#x2039;" horiz-adv-x="240" 
d="M190 430q-43 -50 -88 -110q3 -1 7 -2t85 -15q6 -1 11 -30t5 -63q0 -32 -4 -54t-12 -22q-32 42 -83 73t-61 39.5t-15 20.5t-5 23q0 25 12 52q19 7 35 16t32 24t38.5 38t35.5 36q9 7 14 7q2 0 4.5 -2.5t2.5 -4.5q0 -11 -14 -26z" />
    <glyph glyph-name="guilsinglright" unicode="&#x203a;" horiz-adv-x="240" 
d="M51 430q-15 16 -15 26q0 3 3 5t5 2q5 0 14 -7q15 -15 41.5 -42t42.5 -41t32 -21t24 -10q12 -24 12 -52q0 -11 -5 -23t-15 -20.5t-51 -33.5t-60.5 -44t-31.5 -35q-6 0 -11.5 17.5t-5.5 58.5q0 34 5 63t12 30q21 4 42 7t49 10q-44 60 -87 110z" />
    <glyph glyph-name="fraction" unicode="&#x2044;" horiz-adv-x="391" 
d="M2 4l385 703q4 8 15 8q8 0 15 -5.5t7 -12.5q0 -6 -2 -8l-385 -702q-4 -5 -16 -10q-7 0 -13.5 6.5t-7.5 13.5z" />
    <glyph glyph-name="Euro" unicode="&#x20ac;" 
d="M20 523h69q22 36 61 80.5t96.5 77t121.5 36.5l18 1q43 0 88 -12.5t83 -34.5l3 -4q0 -7 -39 -30t-49 -23q-3 0 -3 11q0 30 -21.5 50t-43.5 20q-28 0 -60.5 -18t-47.5 -40t-15 -40q0 -29 4 -49l4 -26h202q7 0 12 -6.5t5 -14.5q0 -5 -4.5 -11t-11.5 -6h-196l1 -1l1 -5
l10 -46h133q7 0 12 -6.5t5 -14.5q0 -5 -4.5 -11t-11.5 -6h-131q0 -34 -9 -92t-9 -82q0 -21 4 -40q6 -30 35.5 -51t62 -28t54.5 -7h6q24 1 54.5 9.5t62.5 30.5t54 53q5 1 12 -12.5t7 -18.5l-1 -3q-39 -78 -116.5 -120t-173.5 -42q-57 0 -123.5 21.5t-115 68t-65.5 104.5
q-20 72 -20 136q0 39 7 73h-15q-7 1 -13 6t-6 12q0 13 17 21h27l11 29l9 22h-45q-7 1 -13 6t-6 12q0 13 17 21z" />
    <glyph glyph-name="uni2117" unicode="&#x2117;" 
d="M449 -5q-37 -4 -79 -4q-44 0 -94 7.5t-92.5 28t-71.5 51t-51 80.5t-29 136v12q0 75 27.5 148t69.5 123t86.5 79.5t87 40.5t75.5 11h6q110 0 190 -51.5t127 -148.5q21 -44 31 -91t10 -89q0 -61 -20 -119t-58.5 -104t-93.5 -75t-121 -35zM661 372q0 65 -22.5 119t-61.5 91
t-88.5 56t-100.5 19q-45 0 -88 -16.5t-77 -41.5t-60.5 -61.5t-42.5 -85.5t-16 -106v-15q0 -55 18.5 -101.5t54 -79.5t86 -50.5t111.5 -17.5h4q49 1 98.5 18t91 52.5t67 91.5t26.5 128zM217 236q0 14 4.5 34t17 53.5t15.5 41.5l4 10q20 63 20 97q0 28 -13 42t-45 14l-3 8l3 9
h128q101 0 151.5 -16.5t80.5 -48.5q26 -29 26 -74q0 -26 -10 -47.5t-34 -32t-53 -10.5q-39 0 -115 24l-8 3q-3 -7 -3 -26v-4q0 -26 6.5 -53.5t6.5 -39.5q0 -20 -9 -33.5t-28 -17.5t-51 -4q-40 0 -57.5 5t-25.5 20t-8 46zM393 373q8 -7 32 -7q42 0 42 80q0 16 -9 35
t-31.5 32.5t-50.5 13.5q-5 0 -8 -3q13 -17 21 -35.5t8 -46.5q0 -17 -4 -69z" />
    <glyph glyph-name="trademark" unicode="&#x2122;" horiz-adv-x="592" 
d="M385 447q-18 0 -32.5 12t-21.5 36.5t-7 52.5l2 74q0 39 -13 53q-1 -3 -10 -45t-9 -67q0 -33 6 -55q1 -4 7.5 -19t6.5 -23q0 -6 -3 -12.5t-19 -6.5q-15 0 -23 8t-8 37q0 47 23 123l2 5q-7 4 -17 18t-14 29q-28 34 -51 36q14 -24 14 -57q0 -14 -5 -45t-5 -47q0 -11 6.5 -36
t6.5 -39q0 -12 -10.5 -22t-22.5 -10h-63q-37 0 -37 46q0 31 21 89.5t21 83.5q0 14 -6.5 27.5t-20.5 13.5q-15 0 -29 -27q-29 -56 -45 -56q-9 0 -9 14q0 8 3.5 26t3.5 28q0 2 -2.5 7t-2.5 10q0 8 35 8h296q10 0 24.5 -13t28.5 -38.5t19 -41.5l36 36q11 11 11 25
q0 10 -3.5 15.5t-12 6.5t-8.5 5q4 5 7 5h47l29 -1q10 -5 19.5 -19.5t15 -39t5.5 -41.5l-6 -81l7 -50q0 -37 -37 -37h-46q-23 0 -34.5 15.5t-11.5 39.5q0 35 20.5 88t20.5 63l-2 14l-10 -14q-36 -51 -45.5 -77.5t-9.5 -52.5l1 -44q0 -17 -7.5 -25t-25.5 -8z" />
    <glyph glyph-name="uniF8FF" unicode="&#xf8ff;" horiz-adv-x="0" 
 />
    <glyph glyph-name="uniFB01" unicode="&#xfb01;" horiz-adv-x="612" 
d="M433 409q0 85 -49 112h-175q16 -29 27.5 -63.5t15 -72.5t3.5 -100q0 -40 5 -81t5 -59q0 -69 -13 -99.5t-45 -43t-94 -12.5q-91 0 -91 114q0 19 6 50.5t38 102.5t41 104.5t9 62.5q0 32 -10 60q-6 18 -23 26.5t-38 8.5h-10q-15 0 -15 9q0 16 32 16h23q7 0 11 2
q0 6 -12.5 35.5t-12.5 45.5q0 29 36 53.5t98.5 40t127.5 15.5q45 0 83.5 -8t64 -28.5t25.5 -56.5q0 -11 -9.5 -23t-32 -21t-45.5 -9q-29 0 -49.5 14.5t-20.5 42.5q0 19 6 32q-16 8 -43 13t-52 5q-46 0 -82 -13t-36 -33q0 -18 13.5 -44.5t46.5 -58.5l245 -2h29q17 0 20 -3
q46 -42 68.5 -88t22.5 -104v-53l-2 -104q0 -19 8.5 -55t8.5 -54q0 -27 -12 -49.5t-31.5 -31.5t-37.5 -9h-98q-13 0 -26.5 8.5t-21 29t-7.5 45.5q0 76 32 159.5t37 116t6 55.5z" />
    <glyph glyph-name="uniFB02" unicode="&#xfb02;" horiz-adv-x="610" 
d="M413 -5q-15 0 -33.5 12.5t-33 39t-14.5 46.5q0 44 18 119.5t67 233.5q16 51 16 112q0 64 -20 97q-38 35 -140 35q-58 0 -99.5 -11.5t-41.5 -31.5q0 -41 60 -99l175 -2q4 -2 4 -13q0 -6 -4 -12h-158q16 -29 27.5 -63.5t15 -72.5t3.5 -100q0 -40 5 -81t5 -59
q0 -69 -13 -99.5t-45 -43t-94 -12.5q-91 0 -91 114q0 19 6 50.5t38 102.5t41 104.5t9 62.5q0 32 -10 60q-6 18 -23 26.5t-38 8.5h-10q-15 0 -15 9q0 16 32 16h23q7 0 11 2q0 6 -12.5 35.5t-12.5 45.5q0 30 23 49t82 29.5t181 10.5h138q2 0 8.5 -3.5t14.5 -11.5
q20 -18 39 -48t29.5 -71t10.5 -85q-3 -44 -15 -106.5t-12 -86.5q0 -25 13 -77t14 -58q2 -8 2.5 -33.5t0.5 -27.5v-4q0 -30 -14.5 -57.5t-36.5 -39.5t-42 -12h-84z" />
    <glyph glyph-name="glyph267" horiz-adv-x="477" 
d="M153 416h13v38q0 59 16.5 78.5t45.5 19.5h28q25 0 37.5 -15.5t16 -42.5t3.5 -81h44q62 0 81 -15.5t19 -42.5v-18q0 -30 -19.5 -46.5t-82.5 -16.5h-42v-8q0 -57 -4.5 -87t-18 -47t-41.5 -17h-18q-32 0 -48.5 22.5t-16.5 90.5v44h-43q-36 0 -59 5.5t-33.5 20.5t-10.5 36v28
q0 19 11 32.5t39 17.5t83 4z" />
    </font>
</defs>
</svg>
